<?xml version="1.0" standalone="no"?>
 <!DOCTYPE svg PUBLIC "-//W3C//DTD SVG 1.1//EN" 
 "http://www.w3.org/Graphics/SVG/1.1/DTD/svg11.dtd"> 
<svg
  xmlns:svg="http://www.w3.org/2000/svg"
  xmlns="http://www.w3.org/2000/svg"
  xmlns:xlink="http://www.w3.org/1999/xlink"
  version="1.1"
  width="21.000720cm" height="29.700220cm" viewBox="0 0 210007200 297002200">
<title>SVG Picture created as GlowLEDsPCB-F_Paste.svg date 2022/06/21 16:44:56 </title>
  <desc>Picture generated by PCBNEW </desc>
<g style="fill:#000000; fill-opacity:1.000000;stroke:#000000; stroke-opacity:1.000000;
stroke-linecap:round; stroke-linejoin:round;"
 transform="translate(0 0) scale(1 1)">
</g>
<g style="fill:#000000; fill-opacity:0.0; 
stroke:#000000; stroke-width:0.000000; stroke-opacity:1; 
stroke-linecap:round; stroke-linejoin:round;">
<g >
</g>
<g style="fill:#000000; fill-opacity:0.0; 
stroke:#000000; stroke-width:1.000000; stroke-opacity:1; 
stroke-linecap:round; stroke-linejoin:round;">
</g>
<g style="fill:#000000; fill-opacity:1.0; 
stroke:#000000; stroke-width:1.000000; stroke-opacity:1; 
stroke-linecap:round; stroke-linejoin:round;">
<path style="fill:#000000; fill-opacity:1.0; 
stroke:#000000; stroke-width:1.000000; stroke-opacity:1; 
stroke-linecap:round; stroke-linejoin:round;fill-rule:evenodd;"
d="M 49570000.000000,220112500.000000
49588079.000000,220021613.000000
49639562.000000,219944562.000000
49716613.000000,219893079.000000
49807500.000000,219875000.000000
50407500.000000,219875000.000000
50498387.000000,219893079.000000
50575438.000000,219944562.000000
50626921.000000,220021613.000000
50645000.000000,220112500.000000
50645000.000000,220587500.000000
50626921.000000,220678387.000000
50575438.000000,220755438.000000
50498387.000000,220806921.000000
50407500.000000,220825000.000000
49807500.000000,220825000.000000
49716613.000000,220806921.000000
49639562.000000,220755438.000000
49588079.000000,220678387.000000
49570000.000000,220587500.000000
Z" /> 
<path style="fill:#000000; fill-opacity:1.0; 
stroke:#000000; stroke-width:1.000000; stroke-opacity:1; 
stroke-linecap:round; stroke-linejoin:round;fill-rule:evenodd;"
d="M 51295000.000000,220112500.000000
51313079.000000,220021613.000000
51364562.000000,219944562.000000
51441613.000000,219893079.000000
51532500.000000,219875000.000000
52132500.000000,219875000.000000
52223387.000000,219893079.000000
52300438.000000,219944562.000000
52351921.000000,220021613.000000
52370000.000000,220112500.000000
52370000.000000,220587500.000000
52351921.000000,220678387.000000
52300438.000000,220755438.000000
52223387.000000,220806921.000000
52132500.000000,220825000.000000
51532500.000000,220825000.000000
51441613.000000,220806921.000000
51364562.000000,220755438.000000
51313079.000000,220678387.000000
51295000.000000,220587500.000000
Z" /> 
</g>
<g >
</g>
<g style="fill:#000000; fill-opacity:1.0; 
stroke:#000000; stroke-width:1.000000; stroke-opacity:1; 
stroke-linecap:round; stroke-linejoin:round;">
<path style="fill:#000000; fill-opacity:1.0; 
stroke:#000000; stroke-width:1.000000; stroke-opacity:1; 
stroke-linecap:round; stroke-linejoin:round;fill-rule:evenodd;"
d="M 50967799.000000,52110184.000000
49967801.000000,52110184.000000
49967801.000000,50610186.000000
50967799.000000,50610186.000000
Z" /> 
<path style="fill:#000000; fill-opacity:1.0; 
stroke:#000000; stroke-width:1.000000; stroke-opacity:1; 
stroke-linecap:round; stroke-linejoin:round;fill-rule:evenodd;"
d="M 54167799.000000,52110184.000000
53167801.000000,52110184.000000
53167801.000000,50610186.000000
54167799.000000,50610186.000000
Z" /> 
<path style="fill:#000000; fill-opacity:1.0; 
stroke:#000000; stroke-width:1.000000; stroke-opacity:1; 
stroke-linecap:round; stroke-linejoin:round;fill-rule:evenodd;"
d="M 54167799.000000,47210184.000000
53167801.000000,47210184.000000
53167801.000000,45710186.000000
54167799.000000,45710186.000000
Z" /> 
<path style="fill:#000000; fill-opacity:1.0; 
stroke:#000000; stroke-width:1.000000; stroke-opacity:1; 
stroke-linecap:round; stroke-linejoin:round;fill-rule:evenodd;"
d="M 50967799.000000,47210184.000000
49967801.000000,47210184.000000
49967801.000000,45710186.000000
50967799.000000,45710186.000000
Z" /> 
</g>
<g >
</g>
<g style="fill:#000000; fill-opacity:1.0; 
stroke:#000000; stroke-width:1.000000; stroke-opacity:1; 
stroke-linecap:round; stroke-linejoin:round;">
<path style="fill:#000000; fill-opacity:1.0; 
stroke:#000000; stroke-width:1.000000; stroke-opacity:1; 
stroke-linecap:round; stroke-linejoin:round;fill-rule:evenodd;"
d="M 50967799.000000,268949999.000000
49967801.000000,268949999.000000
49967801.000000,267450001.000000
50967799.000000,267450001.000000
Z" /> 
<path style="fill:#000000; fill-opacity:1.0; 
stroke:#000000; stroke-width:1.000000; stroke-opacity:1; 
stroke-linecap:round; stroke-linejoin:round;fill-rule:evenodd;"
d="M 54167799.000000,268949999.000000
53167801.000000,268949999.000000
53167801.000000,267450001.000000
54167799.000000,267450001.000000
Z" /> 
<path style="fill:#000000; fill-opacity:1.0; 
stroke:#000000; stroke-width:1.000000; stroke-opacity:1; 
stroke-linecap:round; stroke-linejoin:round;fill-rule:evenodd;"
d="M 54167799.000000,264049999.000000
53167801.000000,264049999.000000
53167801.000000,262550001.000000
54167799.000000,262550001.000000
Z" /> 
<path style="fill:#000000; fill-opacity:1.0; 
stroke:#000000; stroke-width:1.000000; stroke-opacity:1; 
stroke-linecap:round; stroke-linejoin:round;fill-rule:evenodd;"
d="M 50967799.000000,264049999.000000
49967801.000000,264049999.000000
49967801.000000,262550001.000000
50967799.000000,262550001.000000
Z" /> 
</g>
<g >
</g>
<g style="fill:#000000; fill-opacity:1.0; 
stroke:#000000; stroke-width:1.000000; stroke-opacity:1; 
stroke-linecap:round; stroke-linejoin:round;">
<path style="fill:#000000; fill-opacity:1.0; 
stroke:#000000; stroke-width:1.000000; stroke-opacity:1; 
stroke-linecap:round; stroke-linejoin:round;fill-rule:evenodd;"
d="M 50967799.000000,68790169.000000
49967801.000000,68790169.000000
49967801.000000,67290171.000000
50967799.000000,67290171.000000
Z" /> 
<path style="fill:#000000; fill-opacity:1.0; 
stroke:#000000; stroke-width:1.000000; stroke-opacity:1; 
stroke-linecap:round; stroke-linejoin:round;fill-rule:evenodd;"
d="M 54167799.000000,68790169.000000
53167801.000000,68790169.000000
53167801.000000,67290171.000000
54167799.000000,67290171.000000
Z" /> 
<path style="fill:#000000; fill-opacity:1.0; 
stroke:#000000; stroke-width:1.000000; stroke-opacity:1; 
stroke-linecap:round; stroke-linejoin:round;fill-rule:evenodd;"
d="M 54167799.000000,63890169.000000
53167801.000000,63890169.000000
53167801.000000,62390171.000000
54167799.000000,62390171.000000
Z" /> 
<path style="fill:#000000; fill-opacity:1.0; 
stroke:#000000; stroke-width:1.000000; stroke-opacity:1; 
stroke-linecap:round; stroke-linejoin:round;fill-rule:evenodd;"
d="M 50967799.000000,63890169.000000
49967801.000000,63890169.000000
49967801.000000,62390171.000000
50967799.000000,62390171.000000
Z" /> 
</g>
<g >
</g>
<g style="fill:#000000; fill-opacity:1.0; 
stroke:#000000; stroke-width:1.000000; stroke-opacity:1; 
stroke-linecap:round; stroke-linejoin:round;">
<path style="fill:#000000; fill-opacity:1.0; 
stroke:#000000; stroke-width:1.000000; stroke-opacity:1; 
stroke-linecap:round; stroke-linejoin:round;fill-rule:evenodd;"
d="M 49570000.000000,203402500.000000
49588079.000000,203311613.000000
49639562.000000,203234562.000000
49716613.000000,203183079.000000
49807500.000000,203165000.000000
50407500.000000,203165000.000000
50498387.000000,203183079.000000
50575438.000000,203234562.000000
50626921.000000,203311613.000000
50645000.000000,203402500.000000
50645000.000000,203877500.000000
50626921.000000,203968387.000000
50575438.000000,204045438.000000
50498387.000000,204096921.000000
50407500.000000,204115000.000000
49807500.000000,204115000.000000
49716613.000000,204096921.000000
49639562.000000,204045438.000000
49588079.000000,203968387.000000
49570000.000000,203877500.000000
Z" /> 
<path style="fill:#000000; fill-opacity:1.0; 
stroke:#000000; stroke-width:1.000000; stroke-opacity:1; 
stroke-linecap:round; stroke-linejoin:round;fill-rule:evenodd;"
d="M 51295000.000000,203402500.000000
51313079.000000,203311613.000000
51364562.000000,203234562.000000
51441613.000000,203183079.000000
51532500.000000,203165000.000000
52132500.000000,203165000.000000
52223387.000000,203183079.000000
52300438.000000,203234562.000000
52351921.000000,203311613.000000
52370000.000000,203402500.000000
52370000.000000,203877500.000000
52351921.000000,203968387.000000
52300438.000000,204045438.000000
52223387.000000,204096921.000000
52132500.000000,204115000.000000
51532500.000000,204115000.000000
51441613.000000,204096921.000000
51364562.000000,204045438.000000
51313079.000000,203968387.000000
51295000.000000,203877500.000000
Z" /> 
</g>
<g >
</g>
<g >
</g>
<g style="fill:#000000; fill-opacity:1.0; 
stroke:#000000; stroke-width:1.000000; stroke-opacity:1; 
stroke-linecap:round; stroke-linejoin:round;">
<path style="fill:#000000; fill-opacity:1.0; 
stroke:#000000; stroke-width:1.000000; stroke-opacity:1; 
stroke-linecap:round; stroke-linejoin:round;fill-rule:evenodd;"
d="M 49570000.000000,120232500.000000
49588079.000000,120141613.000000
49639562.000000,120064562.000000
49716613.000000,120013079.000000
49807500.000000,119995000.000000
50407500.000000,119995000.000000
50498387.000000,120013079.000000
50575438.000000,120064562.000000
50626921.000000,120141613.000000
50645000.000000,120232500.000000
50645000.000000,120707500.000000
50626921.000000,120798387.000000
50575438.000000,120875438.000000
50498387.000000,120926921.000000
50407500.000000,120945000.000000
49807500.000000,120945000.000000
49716613.000000,120926921.000000
49639562.000000,120875438.000000
49588079.000000,120798387.000000
49570000.000000,120707500.000000
Z" /> 
<path style="fill:#000000; fill-opacity:1.0; 
stroke:#000000; stroke-width:1.000000; stroke-opacity:1; 
stroke-linecap:round; stroke-linejoin:round;fill-rule:evenodd;"
d="M 51295000.000000,120232500.000000
51313079.000000,120141613.000000
51364562.000000,120064562.000000
51441613.000000,120013079.000000
51532500.000000,119995000.000000
52132500.000000,119995000.000000
52223387.000000,120013079.000000
52300438.000000,120064562.000000
52351921.000000,120141613.000000
52370000.000000,120232500.000000
52370000.000000,120707500.000000
52351921.000000,120798387.000000
52300438.000000,120875438.000000
52223387.000000,120926921.000000
52132500.000000,120945000.000000
51532500.000000,120945000.000000
51441613.000000,120926921.000000
51364562.000000,120875438.000000
51313079.000000,120798387.000000
51295000.000000,120707500.000000
Z" /> 
</g>
<g >
</g>
<g style="fill:#000000; fill-opacity:1.0; 
stroke:#000000; stroke-width:1.000000; stroke-opacity:1; 
stroke-linecap:round; stroke-linejoin:round;">
<path style="fill:#000000; fill-opacity:1.0; 
stroke:#000000; stroke-width:1.000000; stroke-opacity:1; 
stroke-linecap:round; stroke-linejoin:round;fill-rule:evenodd;"
d="M 49570000.000000,253442500.000000
49588079.000000,253351613.000000
49639562.000000,253274562.000000
49716613.000000,253223079.000000
49807500.000000,253205000.000000
50407500.000000,253205000.000000
50498387.000000,253223079.000000
50575438.000000,253274562.000000
50626921.000000,253351613.000000
50645000.000000,253442500.000000
50645000.000000,253917500.000000
50626921.000000,254008387.000000
50575438.000000,254085438.000000
50498387.000000,254136921.000000
50407500.000000,254155000.000000
49807500.000000,254155000.000000
49716613.000000,254136921.000000
49639562.000000,254085438.000000
49588079.000000,254008387.000000
49570000.000000,253917500.000000
Z" /> 
<path style="fill:#000000; fill-opacity:1.0; 
stroke:#000000; stroke-width:1.000000; stroke-opacity:1; 
stroke-linecap:round; stroke-linejoin:round;fill-rule:evenodd;"
d="M 51295000.000000,253442500.000000
51313079.000000,253351613.000000
51364562.000000,253274562.000000
51441613.000000,253223079.000000
51532500.000000,253205000.000000
52132500.000000,253205000.000000
52223387.000000,253223079.000000
52300438.000000,253274562.000000
52351921.000000,253351613.000000
52370000.000000,253442500.000000
52370000.000000,253917500.000000
52351921.000000,254008387.000000
52300438.000000,254085438.000000
52223387.000000,254136921.000000
52132500.000000,254155000.000000
51532500.000000,254155000.000000
51441613.000000,254136921.000000
51364562.000000,254085438.000000
51313079.000000,254008387.000000
51295000.000000,253917500.000000
Z" /> 
</g>
<g >
</g>
<g >
</g>
<g >
</g>
<g style="fill:#000000; fill-opacity:1.0; 
stroke:#000000; stroke-width:1.000000; stroke-opacity:1; 
stroke-linecap:round; stroke-linejoin:round;">
<path style="fill:#000000; fill-opacity:1.0; 
stroke:#000000; stroke-width:1.000000; stroke-opacity:1; 
stroke-linecap:round; stroke-linejoin:round;fill-rule:evenodd;"
d="M 50967799.000000,102150139.000000
49967801.000000,102150139.000000
49967801.000000,100650141.000000
50967799.000000,100650141.000000
Z" /> 
<path style="fill:#000000; fill-opacity:1.0; 
stroke:#000000; stroke-width:1.000000; stroke-opacity:1; 
stroke-linecap:round; stroke-linejoin:round;fill-rule:evenodd;"
d="M 54167799.000000,102150139.000000
53167801.000000,102150139.000000
53167801.000000,100650141.000000
54167799.000000,100650141.000000
Z" /> 
<path style="fill:#000000; fill-opacity:1.0; 
stroke:#000000; stroke-width:1.000000; stroke-opacity:1; 
stroke-linecap:round; stroke-linejoin:round;fill-rule:evenodd;"
d="M 54167799.000000,97250139.000000
53167801.000000,97250139.000000
53167801.000000,95750141.000000
54167799.000000,95750141.000000
Z" /> 
<path style="fill:#000000; fill-opacity:1.0; 
stroke:#000000; stroke-width:1.000000; stroke-opacity:1; 
stroke-linecap:round; stroke-linejoin:round;fill-rule:evenodd;"
d="M 50967799.000000,97250139.000000
49967801.000000,97250139.000000
49967801.000000,95750141.000000
50967799.000000,95750141.000000
Z" /> 
</g>
<g >
</g>
<g style="fill:#000000; fill-opacity:1.0; 
stroke:#000000; stroke-width:1.000000; stroke-opacity:1; 
stroke-linecap:round; stroke-linejoin:round;">
<path style="fill:#000000; fill-opacity:1.0; 
stroke:#000000; stroke-width:1.000000; stroke-opacity:1; 
stroke-linecap:round; stroke-linejoin:round;fill-rule:evenodd;"
d="M 50967799.000000,235590019.000000
49967801.000000,235590019.000000
49967801.000000,234090021.000000
50967799.000000,234090021.000000
Z" /> 
<path style="fill:#000000; fill-opacity:1.0; 
stroke:#000000; stroke-width:1.000000; stroke-opacity:1; 
stroke-linecap:round; stroke-linejoin:round;fill-rule:evenodd;"
d="M 54167799.000000,235590019.000000
53167801.000000,235590019.000000
53167801.000000,234090021.000000
54167799.000000,234090021.000000
Z" /> 
<path style="fill:#000000; fill-opacity:1.0; 
stroke:#000000; stroke-width:1.000000; stroke-opacity:1; 
stroke-linecap:round; stroke-linejoin:round;fill-rule:evenodd;"
d="M 54167799.000000,230690019.000000
53167801.000000,230690019.000000
53167801.000000,229190021.000000
54167799.000000,229190021.000000
Z" /> 
<path style="fill:#000000; fill-opacity:1.0; 
stroke:#000000; stroke-width:1.000000; stroke-opacity:1; 
stroke-linecap:round; stroke-linejoin:round;fill-rule:evenodd;"
d="M 50967799.000000,230690019.000000
49967801.000000,230690019.000000
49967801.000000,229190021.000000
50967799.000000,229190021.000000
Z" /> 
</g>
<g >
</g>
<g style="fill:#000000; fill-opacity:1.0; 
stroke:#000000; stroke-width:1.000000; stroke-opacity:1; 
stroke-linecap:round; stroke-linejoin:round;">
<path style="fill:#000000; fill-opacity:1.0; 
stroke:#000000; stroke-width:1.000000; stroke-opacity:1; 
stroke-linecap:round; stroke-linejoin:round;fill-rule:evenodd;"
d="M 49570000.000000,136892500.000000
49588079.000000,136801613.000000
49639562.000000,136724562.000000
49716613.000000,136673079.000000
49807500.000000,136655000.000000
50407500.000000,136655000.000000
50498387.000000,136673079.000000
50575438.000000,136724562.000000
50626921.000000,136801613.000000
50645000.000000,136892500.000000
50645000.000000,137367500.000000
50626921.000000,137458387.000000
50575438.000000,137535438.000000
50498387.000000,137586921.000000
50407500.000000,137605000.000000
49807500.000000,137605000.000000
49716613.000000,137586921.000000
49639562.000000,137535438.000000
49588079.000000,137458387.000000
49570000.000000,137367500.000000
Z" /> 
<path style="fill:#000000; fill-opacity:1.0; 
stroke:#000000; stroke-width:1.000000; stroke-opacity:1; 
stroke-linecap:round; stroke-linejoin:round;fill-rule:evenodd;"
d="M 51295000.000000,136892500.000000
51313079.000000,136801613.000000
51364562.000000,136724562.000000
51441613.000000,136673079.000000
51532500.000000,136655000.000000
52132500.000000,136655000.000000
52223387.000000,136673079.000000
52300438.000000,136724562.000000
52351921.000000,136801613.000000
52370000.000000,136892500.000000
52370000.000000,137367500.000000
52351921.000000,137458387.000000
52300438.000000,137535438.000000
52223387.000000,137586921.000000
52132500.000000,137605000.000000
51532500.000000,137605000.000000
51441613.000000,137586921.000000
51364562.000000,137535438.000000
51313079.000000,137458387.000000
51295000.000000,137367500.000000
Z" /> 
</g>
<g >
</g>
<g style="fill:#000000; fill-opacity:1.0; 
stroke:#000000; stroke-width:1.000000; stroke-opacity:1; 
stroke-linecap:round; stroke-linejoin:round;">
<path style="fill:#000000; fill-opacity:1.0; 
stroke:#000000; stroke-width:1.000000; stroke-opacity:1; 
stroke-linecap:round; stroke-linejoin:round;fill-rule:evenodd;"
d="M 49570000.000000,53592500.000000
49588079.000000,53501613.000000
49639562.000000,53424562.000000
49716613.000000,53373079.000000
49807500.000000,53355000.000000
50407500.000000,53355000.000000
50498387.000000,53373079.000000
50575438.000000,53424562.000000
50626921.000000,53501613.000000
50645000.000000,53592500.000000
50645000.000000,54067500.000000
50626921.000000,54158387.000000
50575438.000000,54235438.000000
50498387.000000,54286921.000000
50407500.000000,54305000.000000
49807500.000000,54305000.000000
49716613.000000,54286921.000000
49639562.000000,54235438.000000
49588079.000000,54158387.000000
49570000.000000,54067500.000000
Z" /> 
<path style="fill:#000000; fill-opacity:1.0; 
stroke:#000000; stroke-width:1.000000; stroke-opacity:1; 
stroke-linecap:round; stroke-linejoin:round;fill-rule:evenodd;"
d="M 51295000.000000,53592500.000000
51313079.000000,53501613.000000
51364562.000000,53424562.000000
51441613.000000,53373079.000000
51532500.000000,53355000.000000
52132500.000000,53355000.000000
52223387.000000,53373079.000000
52300438.000000,53424562.000000
52351921.000000,53501613.000000
52370000.000000,53592500.000000
52370000.000000,54067500.000000
52351921.000000,54158387.000000
52300438.000000,54235438.000000
52223387.000000,54286921.000000
52132500.000000,54305000.000000
51532500.000000,54305000.000000
51441613.000000,54286921.000000
51364562.000000,54235438.000000
51313079.000000,54158387.000000
51295000.000000,54067500.000000
Z" /> 
</g>
<g >
</g>
<g >
</g>
<g style="fill:#000000; fill-opacity:1.0; 
stroke:#000000; stroke-width:1.000000; stroke-opacity:1; 
stroke-linecap:round; stroke-linejoin:round;">
<path style="fill:#000000; fill-opacity:1.0; 
stroke:#000000; stroke-width:1.000000; stroke-opacity:1; 
stroke-linecap:round; stroke-linejoin:round;fill-rule:evenodd;"
d="M 49570000.000000,70222500.000000
49588079.000000,70131613.000000
49639562.000000,70054562.000000
49716613.000000,70003079.000000
49807500.000000,69985000.000000
50407500.000000,69985000.000000
50498387.000000,70003079.000000
50575438.000000,70054562.000000
50626921.000000,70131613.000000
50645000.000000,70222500.000000
50645000.000000,70697500.000000
50626921.000000,70788387.000000
50575438.000000,70865438.000000
50498387.000000,70916921.000000
50407500.000000,70935000.000000
49807500.000000,70935000.000000
49716613.000000,70916921.000000
49639562.000000,70865438.000000
49588079.000000,70788387.000000
49570000.000000,70697500.000000
Z" /> 
<path style="fill:#000000; fill-opacity:1.0; 
stroke:#000000; stroke-width:1.000000; stroke-opacity:1; 
stroke-linecap:round; stroke-linejoin:round;fill-rule:evenodd;"
d="M 51295000.000000,70222500.000000
51313079.000000,70131613.000000
51364562.000000,70054562.000000
51441613.000000,70003079.000000
51532500.000000,69985000.000000
52132500.000000,69985000.000000
52223387.000000,70003079.000000
52300438.000000,70054562.000000
52351921.000000,70131613.000000
52370000.000000,70222500.000000
52370000.000000,70697500.000000
52351921.000000,70788387.000000
52300438.000000,70865438.000000
52223387.000000,70916921.000000
52132500.000000,70935000.000000
51532500.000000,70935000.000000
51441613.000000,70916921.000000
51364562.000000,70865438.000000
51313079.000000,70788387.000000
51295000.000000,70697500.000000
Z" /> 
</g>
<g >
</g>
<g style="fill:#000000; fill-opacity:1.0; 
stroke:#000000; stroke-width:1.000000; stroke-opacity:1; 
stroke-linecap:round; stroke-linejoin:round;">
<path style="fill:#000000; fill-opacity:1.0; 
stroke:#000000; stroke-width:1.000000; stroke-opacity:1; 
stroke-linecap:round; stroke-linejoin:round;fill-rule:evenodd;"
d="M 49570000.000000,236872500.000000
49588079.000000,236781613.000000
49639562.000000,236704562.000000
49716613.000000,236653079.000000
49807500.000000,236635000.000000
50407500.000000,236635000.000000
50498387.000000,236653079.000000
50575438.000000,236704562.000000
50626921.000000,236781613.000000
50645000.000000,236872500.000000
50645000.000000,237347500.000000
50626921.000000,237438387.000000
50575438.000000,237515438.000000
50498387.000000,237566921.000000
50407500.000000,237585000.000000
49807500.000000,237585000.000000
49716613.000000,237566921.000000
49639562.000000,237515438.000000
49588079.000000,237438387.000000
49570000.000000,237347500.000000
Z" /> 
<path style="fill:#000000; fill-opacity:1.0; 
stroke:#000000; stroke-width:1.000000; stroke-opacity:1; 
stroke-linecap:round; stroke-linejoin:round;fill-rule:evenodd;"
d="M 51295000.000000,236872500.000000
51313079.000000,236781613.000000
51364562.000000,236704562.000000
51441613.000000,236653079.000000
51532500.000000,236635000.000000
52132500.000000,236635000.000000
52223387.000000,236653079.000000
52300438.000000,236704562.000000
52351921.000000,236781613.000000
52370000.000000,236872500.000000
52370000.000000,237347500.000000
52351921.000000,237438387.000000
52300438.000000,237515438.000000
52223387.000000,237566921.000000
52132500.000000,237585000.000000
51532500.000000,237585000.000000
51441613.000000,237566921.000000
51364562.000000,237515438.000000
51313079.000000,237438387.000000
51295000.000000,237347500.000000
Z" /> 
</g>
<g >
</g>
<g style="fill:#000000; fill-opacity:1.0; 
stroke:#000000; stroke-width:1.000000; stroke-opacity:1; 
stroke-linecap:round; stroke-linejoin:round;">
<path style="fill:#000000; fill-opacity:1.0; 
stroke:#000000; stroke-width:1.000000; stroke-opacity:1; 
stroke-linecap:round; stroke-linejoin:round;fill-rule:evenodd;"
d="M 49570000.000000,170142500.000000
49588079.000000,170051613.000000
49639562.000000,169974562.000000
49716613.000000,169923079.000000
49807500.000000,169905000.000000
50407500.000000,169905000.000000
50498387.000000,169923079.000000
50575438.000000,169974562.000000
50626921.000000,170051613.000000
50645000.000000,170142500.000000
50645000.000000,170617500.000000
50626921.000000,170708387.000000
50575438.000000,170785438.000000
50498387.000000,170836921.000000
50407500.000000,170855000.000000
49807500.000000,170855000.000000
49716613.000000,170836921.000000
49639562.000000,170785438.000000
49588079.000000,170708387.000000
49570000.000000,170617500.000000
Z" /> 
<path style="fill:#000000; fill-opacity:1.0; 
stroke:#000000; stroke-width:1.000000; stroke-opacity:1; 
stroke-linecap:round; stroke-linejoin:round;fill-rule:evenodd;"
d="M 51295000.000000,170142500.000000
51313079.000000,170051613.000000
51364562.000000,169974562.000000
51441613.000000,169923079.000000
51532500.000000,169905000.000000
52132500.000000,169905000.000000
52223387.000000,169923079.000000
52300438.000000,169974562.000000
52351921.000000,170051613.000000
52370000.000000,170142500.000000
52370000.000000,170617500.000000
52351921.000000,170708387.000000
52300438.000000,170785438.000000
52223387.000000,170836921.000000
52132500.000000,170855000.000000
51532500.000000,170855000.000000
51441613.000000,170836921.000000
51364562.000000,170785438.000000
51313079.000000,170708387.000000
51295000.000000,170617500.000000
Z" /> 
</g>
<g >
</g>
<g >
</g>
<g >
</g>
<g style="fill:#000000; fill-opacity:1.0; 
stroke:#000000; stroke-width:1.000000; stroke-opacity:1; 
stroke-linecap:round; stroke-linejoin:round;">
<path style="fill:#000000; fill-opacity:1.0; 
stroke:#000000; stroke-width:1.000000; stroke-opacity:1; 
stroke-linecap:round; stroke-linejoin:round;fill-rule:evenodd;"
d="M 48122500.000000,268550000.000000
48031613.000000,268531921.000000
47954562.000000,268480438.000000
47903079.000000,268403387.000000
47885000.000000,268312500.000000
47885000.000000,267712500.000000
47903079.000000,267621613.000000
47954562.000000,267544562.000000
48031613.000000,267493079.000000
48122500.000000,267475000.000000
48597500.000000,267475000.000000
48688387.000000,267493079.000000
48765438.000000,267544562.000000
48816921.000000,267621613.000000
48835000.000000,267712500.000000
48835000.000000,268312500.000000
48816921.000000,268403387.000000
48765438.000000,268480438.000000
48688387.000000,268531921.000000
48597500.000000,268550000.000000
Z" /> 
<path style="fill:#000000; fill-opacity:1.0; 
stroke:#000000; stroke-width:1.000000; stroke-opacity:1; 
stroke-linecap:round; stroke-linejoin:round;fill-rule:evenodd;"
d="M 48122500.000000,266825000.000000
48031613.000000,266806921.000000
47954562.000000,266755438.000000
47903079.000000,266678387.000000
47885000.000000,266587500.000000
47885000.000000,265987500.000000
47903079.000000,265896613.000000
47954562.000000,265819562.000000
48031613.000000,265768079.000000
48122500.000000,265750000.000000
48597500.000000,265750000.000000
48688387.000000,265768079.000000
48765438.000000,265819562.000000
48816921.000000,265896613.000000
48835000.000000,265987500.000000
48835000.000000,266587500.000000
48816921.000000,266678387.000000
48765438.000000,266755438.000000
48688387.000000,266806921.000000
48597500.000000,266825000.000000
Z" /> 
</g>
<g >
</g>
<g style="fill:#000000; fill-opacity:1.0; 
stroke:#000000; stroke-width:1.000000; stroke-opacity:1; 
stroke-linecap:round; stroke-linejoin:round;">
<path style="fill:#000000; fill-opacity:1.0; 
stroke:#000000; stroke-width:1.000000; stroke-opacity:1; 
stroke-linecap:round; stroke-linejoin:round;fill-rule:evenodd;"
d="M 50967799.000000,35430199.000000
49967801.000000,35430199.000000
49967801.000000,33930201.000000
50967799.000000,33930201.000000
Z" /> 
<path style="fill:#000000; fill-opacity:1.0; 
stroke:#000000; stroke-width:1.000000; stroke-opacity:1; 
stroke-linecap:round; stroke-linejoin:round;fill-rule:evenodd;"
d="M 54167799.000000,35430199.000000
53167801.000000,35430199.000000
53167801.000000,33930201.000000
54167799.000000,33930201.000000
Z" /> 
<path style="fill:#000000; fill-opacity:1.0; 
stroke:#000000; stroke-width:1.000000; stroke-opacity:1; 
stroke-linecap:round; stroke-linejoin:round;fill-rule:evenodd;"
d="M 54167799.000000,30530199.000000
53167801.000000,30530199.000000
53167801.000000,29030201.000000
54167799.000000,29030201.000000
Z" /> 
<path style="fill:#000000; fill-opacity:1.0; 
stroke:#000000; stroke-width:1.000000; stroke-opacity:1; 
stroke-linecap:round; stroke-linejoin:round;fill-rule:evenodd;"
d="M 50967799.000000,30530199.000000
49967801.000000,30530199.000000
49967801.000000,29030201.000000
50967799.000000,29030201.000000
Z" /> 
</g>
<g >
</g>
<g style="fill:#000000; fill-opacity:1.0; 
stroke:#000000; stroke-width:1.000000; stroke-opacity:1; 
stroke-linecap:round; stroke-linejoin:round;">
<path style="fill:#000000; fill-opacity:1.0; 
stroke:#000000; stroke-width:1.000000; stroke-opacity:1; 
stroke-linecap:round; stroke-linejoin:round;fill-rule:evenodd;"
d="M 50967799.000000,185550064.000000
49967801.000000,185550064.000000
49967801.000000,184050066.000000
50967799.000000,184050066.000000
Z" /> 
<path style="fill:#000000; fill-opacity:1.0; 
stroke:#000000; stroke-width:1.000000; stroke-opacity:1; 
stroke-linecap:round; stroke-linejoin:round;fill-rule:evenodd;"
d="M 54167799.000000,185550064.000000
53167801.000000,185550064.000000
53167801.000000,184050066.000000
54167799.000000,184050066.000000
Z" /> 
<path style="fill:#000000; fill-opacity:1.0; 
stroke:#000000; stroke-width:1.000000; stroke-opacity:1; 
stroke-linecap:round; stroke-linejoin:round;fill-rule:evenodd;"
d="M 54167799.000000,180650064.000000
53167801.000000,180650064.000000
53167801.000000,179150066.000000
54167799.000000,179150066.000000
Z" /> 
<path style="fill:#000000; fill-opacity:1.0; 
stroke:#000000; stroke-width:1.000000; stroke-opacity:1; 
stroke-linecap:round; stroke-linejoin:round;fill-rule:evenodd;"
d="M 50967799.000000,180650064.000000
49967801.000000,180650064.000000
49967801.000000,179150066.000000
50967799.000000,179150066.000000
Z" /> 
</g>
<g >
</g>
<g style="fill:#000000; fill-opacity:1.0; 
stroke:#000000; stroke-width:1.000000; stroke-opacity:1; 
stroke-linecap:round; stroke-linejoin:round;">
<path style="fill:#000000; fill-opacity:1.0; 
stroke:#000000; stroke-width:1.000000; stroke-opacity:1; 
stroke-linecap:round; stroke-linejoin:round;fill-rule:evenodd;"
d="M 50967799.000000,152190094.000000
49967801.000000,152190094.000000
49967801.000000,150690096.000000
50967799.000000,150690096.000000
Z" /> 
<path style="fill:#000000; fill-opacity:1.0; 
stroke:#000000; stroke-width:1.000000; stroke-opacity:1; 
stroke-linecap:round; stroke-linejoin:round;fill-rule:evenodd;"
d="M 54167799.000000,152190094.000000
53167801.000000,152190094.000000
53167801.000000,150690096.000000
54167799.000000,150690096.000000
Z" /> 
<path style="fill:#000000; fill-opacity:1.0; 
stroke:#000000; stroke-width:1.000000; stroke-opacity:1; 
stroke-linecap:round; stroke-linejoin:round;fill-rule:evenodd;"
d="M 54167799.000000,147290094.000000
53167801.000000,147290094.000000
53167801.000000,145790096.000000
54167799.000000,145790096.000000
Z" /> 
<path style="fill:#000000; fill-opacity:1.0; 
stroke:#000000; stroke-width:1.000000; stroke-opacity:1; 
stroke-linecap:round; stroke-linejoin:round;fill-rule:evenodd;"
d="M 50967799.000000,147290094.000000
49967801.000000,147290094.000000
49967801.000000,145790096.000000
50967799.000000,145790096.000000
Z" /> 
</g>
<g >
</g>
<g style="fill:#000000; fill-opacity:1.0; 
stroke:#000000; stroke-width:1.000000; stroke-opacity:1; 
stroke-linecap:round; stroke-linejoin:round;">
<path style="fill:#000000; fill-opacity:1.0; 
stroke:#000000; stroke-width:1.000000; stroke-opacity:1; 
stroke-linecap:round; stroke-linejoin:round;fill-rule:evenodd;"
d="M 49570000.000000,36852500.000000
49588079.000000,36761613.000000
49639562.000000,36684562.000000
49716613.000000,36633079.000000
49807500.000000,36615000.000000
50407500.000000,36615000.000000
50498387.000000,36633079.000000
50575438.000000,36684562.000000
50626921.000000,36761613.000000
50645000.000000,36852500.000000
50645000.000000,37327500.000000
50626921.000000,37418387.000000
50575438.000000,37495438.000000
50498387.000000,37546921.000000
50407500.000000,37565000.000000
49807500.000000,37565000.000000
49716613.000000,37546921.000000
49639562.000000,37495438.000000
49588079.000000,37418387.000000
49570000.000000,37327500.000000
Z" /> 
<path style="fill:#000000; fill-opacity:1.0; 
stroke:#000000; stroke-width:1.000000; stroke-opacity:1; 
stroke-linecap:round; stroke-linejoin:round;fill-rule:evenodd;"
d="M 51295000.000000,36852500.000000
51313079.000000,36761613.000000
51364562.000000,36684562.000000
51441613.000000,36633079.000000
51532500.000000,36615000.000000
52132500.000000,36615000.000000
52223387.000000,36633079.000000
52300438.000000,36684562.000000
52351921.000000,36761613.000000
52370000.000000,36852500.000000
52370000.000000,37327500.000000
52351921.000000,37418387.000000
52300438.000000,37495438.000000
52223387.000000,37546921.000000
52132500.000000,37565000.000000
51532500.000000,37565000.000000
51441613.000000,37546921.000000
51364562.000000,37495438.000000
51313079.000000,37418387.000000
51295000.000000,37327500.000000
Z" /> 
</g>
<g >
</g>
<g style="fill:#000000; fill-opacity:1.0; 
stroke:#000000; stroke-width:1.000000; stroke-opacity:1; 
stroke-linecap:round; stroke-linejoin:round;">
<path style="fill:#000000; fill-opacity:1.0; 
stroke:#000000; stroke-width:1.000000; stroke-opacity:1; 
stroke-linecap:round; stroke-linejoin:round;fill-rule:evenodd;"
d="M 50967799.000000,118830124.000000
49967801.000000,118830124.000000
49967801.000000,117330126.000000
50967799.000000,117330126.000000
Z" /> 
<path style="fill:#000000; fill-opacity:1.0; 
stroke:#000000; stroke-width:1.000000; stroke-opacity:1; 
stroke-linecap:round; stroke-linejoin:round;fill-rule:evenodd;"
d="M 54167799.000000,118830124.000000
53167801.000000,118830124.000000
53167801.000000,117330126.000000
54167799.000000,117330126.000000
Z" /> 
<path style="fill:#000000; fill-opacity:1.0; 
stroke:#000000; stroke-width:1.000000; stroke-opacity:1; 
stroke-linecap:round; stroke-linejoin:round;fill-rule:evenodd;"
d="M 54167799.000000,113930124.000000
53167801.000000,113930124.000000
53167801.000000,112430126.000000
54167799.000000,112430126.000000
Z" /> 
<path style="fill:#000000; fill-opacity:1.0; 
stroke:#000000; stroke-width:1.000000; stroke-opacity:1; 
stroke-linecap:round; stroke-linejoin:round;fill-rule:evenodd;"
d="M 50967799.000000,113930124.000000
49967801.000000,113930124.000000
49967801.000000,112430126.000000
50967799.000000,112430126.000000
Z" /> 
</g>
<g >
</g>
<g style="fill:#000000; fill-opacity:1.0; 
stroke:#000000; stroke-width:1.000000; stroke-opacity:1; 
stroke-linecap:round; stroke-linejoin:round;">
<path style="fill:#000000; fill-opacity:1.0; 
stroke:#000000; stroke-width:1.000000; stroke-opacity:1; 
stroke-linecap:round; stroke-linejoin:round;fill-rule:evenodd;"
d="M 49570000.000000,153542500.000000
49588079.000000,153451613.000000
49639562.000000,153374562.000000
49716613.000000,153323079.000000
49807500.000000,153305000.000000
50407500.000000,153305000.000000
50498387.000000,153323079.000000
50575438.000000,153374562.000000
50626921.000000,153451613.000000
50645000.000000,153542500.000000
50645000.000000,154017500.000000
50626921.000000,154108387.000000
50575438.000000,154185438.000000
50498387.000000,154236921.000000
50407500.000000,154255000.000000
49807500.000000,154255000.000000
49716613.000000,154236921.000000
49639562.000000,154185438.000000
49588079.000000,154108387.000000
49570000.000000,154017500.000000
Z" /> 
<path style="fill:#000000; fill-opacity:1.0; 
stroke:#000000; stroke-width:1.000000; stroke-opacity:1; 
stroke-linecap:round; stroke-linejoin:round;fill-rule:evenodd;"
d="M 51295000.000000,153542500.000000
51313079.000000,153451613.000000
51364562.000000,153374562.000000
51441613.000000,153323079.000000
51532500.000000,153305000.000000
52132500.000000,153305000.000000
52223387.000000,153323079.000000
52300438.000000,153374562.000000
52351921.000000,153451613.000000
52370000.000000,153542500.000000
52370000.000000,154017500.000000
52351921.000000,154108387.000000
52300438.000000,154185438.000000
52223387.000000,154236921.000000
52132500.000000,154255000.000000
51532500.000000,154255000.000000
51441613.000000,154236921.000000
51364562.000000,154185438.000000
51313079.000000,154108387.000000
51295000.000000,154017500.000000
Z" /> 
</g>
<g >
</g>
<g >
</g>
<g style="fill:#000000; fill-opacity:1.0; 
stroke:#000000; stroke-width:1.000000; stroke-opacity:1; 
stroke-linecap:round; stroke-linejoin:round;">
<path style="fill:#000000; fill-opacity:1.0; 
stroke:#000000; stroke-width:1.000000; stroke-opacity:1; 
stroke-linecap:round; stroke-linejoin:round;fill-rule:evenodd;"
d="M 50967799.000000,252270004.000000
49967801.000000,252270004.000000
49967801.000000,250770006.000000
50967799.000000,250770006.000000
Z" /> 
<path style="fill:#000000; fill-opacity:1.0; 
stroke:#000000; stroke-width:1.000000; stroke-opacity:1; 
stroke-linecap:round; stroke-linejoin:round;fill-rule:evenodd;"
d="M 54167799.000000,252270004.000000
53167801.000000,252270004.000000
53167801.000000,250770006.000000
54167799.000000,250770006.000000
Z" /> 
<path style="fill:#000000; fill-opacity:1.0; 
stroke:#000000; stroke-width:1.000000; stroke-opacity:1; 
stroke-linecap:round; stroke-linejoin:round;fill-rule:evenodd;"
d="M 54167799.000000,247370004.000000
53167801.000000,247370004.000000
53167801.000000,245870006.000000
54167799.000000,245870006.000000
Z" /> 
<path style="fill:#000000; fill-opacity:1.0; 
stroke:#000000; stroke-width:1.000000; stroke-opacity:1; 
stroke-linecap:round; stroke-linejoin:round;fill-rule:evenodd;"
d="M 50967799.000000,247370004.000000
49967801.000000,247370004.000000
49967801.000000,245870006.000000
50967799.000000,245870006.000000
Z" /> 
</g>
<g >
</g>
<g >
</g>
<g style="fill:#000000; fill-opacity:1.0; 
stroke:#000000; stroke-width:1.000000; stroke-opacity:1; 
stroke-linecap:round; stroke-linejoin:round;">
<path style="fill:#000000; fill-opacity:1.0; 
stroke:#000000; stroke-width:1.000000; stroke-opacity:1; 
stroke-linecap:round; stroke-linejoin:round;fill-rule:evenodd;"
d="M 50967799.000000,218910034.000000
49967801.000000,218910034.000000
49967801.000000,217410036.000000
50967799.000000,217410036.000000
Z" /> 
<path style="fill:#000000; fill-opacity:1.0; 
stroke:#000000; stroke-width:1.000000; stroke-opacity:1; 
stroke-linecap:round; stroke-linejoin:round;fill-rule:evenodd;"
d="M 54167799.000000,218910034.000000
53167801.000000,218910034.000000
53167801.000000,217410036.000000
54167799.000000,217410036.000000
Z" /> 
<path style="fill:#000000; fill-opacity:1.0; 
stroke:#000000; stroke-width:1.000000; stroke-opacity:1; 
stroke-linecap:round; stroke-linejoin:round;fill-rule:evenodd;"
d="M 54167799.000000,214010034.000000
53167801.000000,214010034.000000
53167801.000000,212510036.000000
54167799.000000,212510036.000000
Z" /> 
<path style="fill:#000000; fill-opacity:1.0; 
stroke:#000000; stroke-width:1.000000; stroke-opacity:1; 
stroke-linecap:round; stroke-linejoin:round;fill-rule:evenodd;"
d="M 50967799.000000,214010034.000000
49967801.000000,214010034.000000
49967801.000000,212510036.000000
50967799.000000,212510036.000000
Z" /> 
</g>
<g >
</g>
<g style="fill:#000000; fill-opacity:1.0; 
stroke:#000000; stroke-width:1.000000; stroke-opacity:1; 
stroke-linecap:round; stroke-linejoin:round;">
<path style="fill:#000000; fill-opacity:1.0; 
stroke:#000000; stroke-width:1.000000; stroke-opacity:1; 
stroke-linecap:round; stroke-linejoin:round;fill-rule:evenodd;"
d="M 49570000.000000,103622500.000000
49588079.000000,103531613.000000
49639562.000000,103454562.000000
49716613.000000,103403079.000000
49807500.000000,103385000.000000
50407500.000000,103385000.000000
50498387.000000,103403079.000000
50575438.000000,103454562.000000
50626921.000000,103531613.000000
50645000.000000,103622500.000000
50645000.000000,104097500.000000
50626921.000000,104188387.000000
50575438.000000,104265438.000000
50498387.000000,104316921.000000
50407500.000000,104335000.000000
49807500.000000,104335000.000000
49716613.000000,104316921.000000
49639562.000000,104265438.000000
49588079.000000,104188387.000000
49570000.000000,104097500.000000
Z" /> 
<path style="fill:#000000; fill-opacity:1.0; 
stroke:#000000; stroke-width:1.000000; stroke-opacity:1; 
stroke-linecap:round; stroke-linejoin:round;fill-rule:evenodd;"
d="M 51295000.000000,103622500.000000
51313079.000000,103531613.000000
51364562.000000,103454562.000000
51441613.000000,103403079.000000
51532500.000000,103385000.000000
52132500.000000,103385000.000000
52223387.000000,103403079.000000
52300438.000000,103454562.000000
52351921.000000,103531613.000000
52370000.000000,103622500.000000
52370000.000000,104097500.000000
52351921.000000,104188387.000000
52300438.000000,104265438.000000
52223387.000000,104316921.000000
52132500.000000,104335000.000000
51532500.000000,104335000.000000
51441613.000000,104316921.000000
51364562.000000,104265438.000000
51313079.000000,104188387.000000
51295000.000000,104097500.000000
Z" /> 
</g>
<g >
</g>
<g style="fill:#000000; fill-opacity:1.0; 
stroke:#000000; stroke-width:1.000000; stroke-opacity:1; 
stroke-linecap:round; stroke-linejoin:round;">
<path style="fill:#000000; fill-opacity:1.0; 
stroke:#000000; stroke-width:1.000000; stroke-opacity:1; 
stroke-linecap:round; stroke-linejoin:round;fill-rule:evenodd;"
d="M 49570000.000000,186792500.000000
49588079.000000,186701613.000000
49639562.000000,186624562.000000
49716613.000000,186573079.000000
49807500.000000,186555000.000000
50407500.000000,186555000.000000
50498387.000000,186573079.000000
50575438.000000,186624562.000000
50626921.000000,186701613.000000
50645000.000000,186792500.000000
50645000.000000,187267500.000000
50626921.000000,187358387.000000
50575438.000000,187435438.000000
50498387.000000,187486921.000000
50407500.000000,187505000.000000
49807500.000000,187505000.000000
49716613.000000,187486921.000000
49639562.000000,187435438.000000
49588079.000000,187358387.000000
49570000.000000,187267500.000000
Z" /> 
<path style="fill:#000000; fill-opacity:1.0; 
stroke:#000000; stroke-width:1.000000; stroke-opacity:1; 
stroke-linecap:round; stroke-linejoin:round;fill-rule:evenodd;"
d="M 51295000.000000,186792500.000000
51313079.000000,186701613.000000
51364562.000000,186624562.000000
51441613.000000,186573079.000000
51532500.000000,186555000.000000
52132500.000000,186555000.000000
52223387.000000,186573079.000000
52300438.000000,186624562.000000
52351921.000000,186701613.000000
52370000.000000,186792500.000000
52370000.000000,187267500.000000
52351921.000000,187358387.000000
52300438.000000,187435438.000000
52223387.000000,187486921.000000
52132500.000000,187505000.000000
51532500.000000,187505000.000000
51441613.000000,187486921.000000
51364562.000000,187435438.000000
51313079.000000,187358387.000000
51295000.000000,187267500.000000
Z" /> 
</g>
<g >
</g>
<g style="fill:#000000; fill-opacity:1.0; 
stroke:#000000; stroke-width:1.000000; stroke-opacity:1; 
stroke-linecap:round; stroke-linejoin:round;">
<path style="fill:#000000; fill-opacity:1.0; 
stroke:#000000; stroke-width:1.000000; stroke-opacity:1; 
stroke-linecap:round; stroke-linejoin:round;fill-rule:evenodd;"
d="M 49570000.000000,86902500.000000
49588079.000000,86811613.000000
49639562.000000,86734562.000000
49716613.000000,86683079.000000
49807500.000000,86665000.000000
50407500.000000,86665000.000000
50498387.000000,86683079.000000
50575438.000000,86734562.000000
50626921.000000,86811613.000000
50645000.000000,86902500.000000
50645000.000000,87377500.000000
50626921.000000,87468387.000000
50575438.000000,87545438.000000
50498387.000000,87596921.000000
50407500.000000,87615000.000000
49807500.000000,87615000.000000
49716613.000000,87596921.000000
49639562.000000,87545438.000000
49588079.000000,87468387.000000
49570000.000000,87377500.000000
Z" /> 
<path style="fill:#000000; fill-opacity:1.0; 
stroke:#000000; stroke-width:1.000000; stroke-opacity:1; 
stroke-linecap:round; stroke-linejoin:round;fill-rule:evenodd;"
d="M 51295000.000000,86902500.000000
51313079.000000,86811613.000000
51364562.000000,86734562.000000
51441613.000000,86683079.000000
51532500.000000,86665000.000000
52132500.000000,86665000.000000
52223387.000000,86683079.000000
52300438.000000,86734562.000000
52351921.000000,86811613.000000
52370000.000000,86902500.000000
52370000.000000,87377500.000000
52351921.000000,87468387.000000
52300438.000000,87545438.000000
52223387.000000,87596921.000000
52132500.000000,87615000.000000
51532500.000000,87615000.000000
51441613.000000,87596921.000000
51364562.000000,87545438.000000
51313079.000000,87468387.000000
51295000.000000,87377500.000000
Z" /> 
</g>
<g >
</g>
<g style="fill:#000000; fill-opacity:1.0; 
stroke:#000000; stroke-width:1.000000; stroke-opacity:1; 
stroke-linecap:round; stroke-linejoin:round;">
<path style="fill:#000000; fill-opacity:1.0; 
stroke:#000000; stroke-width:1.000000; stroke-opacity:1; 
stroke-linecap:round; stroke-linejoin:round;fill-rule:evenodd;"
d="M 50967799.000000,168870079.000000
49967801.000000,168870079.000000
49967801.000000,167370081.000000
50967799.000000,167370081.000000
Z" /> 
<path style="fill:#000000; fill-opacity:1.0; 
stroke:#000000; stroke-width:1.000000; stroke-opacity:1; 
stroke-linecap:round; stroke-linejoin:round;fill-rule:evenodd;"
d="M 54167799.000000,168870079.000000
53167801.000000,168870079.000000
53167801.000000,167370081.000000
54167799.000000,167370081.000000
Z" /> 
<path style="fill:#000000; fill-opacity:1.0; 
stroke:#000000; stroke-width:1.000000; stroke-opacity:1; 
stroke-linecap:round; stroke-linejoin:round;fill-rule:evenodd;"
d="M 54167799.000000,163970079.000000
53167801.000000,163970079.000000
53167801.000000,162470081.000000
54167799.000000,162470081.000000
Z" /> 
<path style="fill:#000000; fill-opacity:1.0; 
stroke:#000000; stroke-width:1.000000; stroke-opacity:1; 
stroke-linecap:round; stroke-linejoin:round;fill-rule:evenodd;"
d="M 50967799.000000,163970079.000000
49967801.000000,163970079.000000
49967801.000000,162470081.000000
50967799.000000,162470081.000000
Z" /> 
</g>
<g >
</g>
<g style="fill:#000000; fill-opacity:1.0; 
stroke:#000000; stroke-width:1.000000; stroke-opacity:1; 
stroke-linecap:round; stroke-linejoin:round;">
<path style="fill:#000000; fill-opacity:1.0; 
stroke:#000000; stroke-width:1.000000; stroke-opacity:1; 
stroke-linecap:round; stroke-linejoin:round;fill-rule:evenodd;"
d="M 50967799.000000,135510109.000000
49967801.000000,135510109.000000
49967801.000000,134010111.000000
50967799.000000,134010111.000000
Z" /> 
<path style="fill:#000000; fill-opacity:1.0; 
stroke:#000000; stroke-width:1.000000; stroke-opacity:1; 
stroke-linecap:round; stroke-linejoin:round;fill-rule:evenodd;"
d="M 54167799.000000,135510109.000000
53167801.000000,135510109.000000
53167801.000000,134010111.000000
54167799.000000,134010111.000000
Z" /> 
<path style="fill:#000000; fill-opacity:1.0; 
stroke:#000000; stroke-width:1.000000; stroke-opacity:1; 
stroke-linecap:round; stroke-linejoin:round;fill-rule:evenodd;"
d="M 54167799.000000,130610109.000000
53167801.000000,130610109.000000
53167801.000000,129110111.000000
54167799.000000,129110111.000000
Z" /> 
<path style="fill:#000000; fill-opacity:1.0; 
stroke:#000000; stroke-width:1.000000; stroke-opacity:1; 
stroke-linecap:round; stroke-linejoin:round;fill-rule:evenodd;"
d="M 50967799.000000,130610109.000000
49967801.000000,130610109.000000
49967801.000000,129110111.000000
50967799.000000,129110111.000000
Z" /> 
</g>
<g >
</g>
<g style="fill:#000000; fill-opacity:1.0; 
stroke:#000000; stroke-width:1.000000; stroke-opacity:1; 
stroke-linecap:round; stroke-linejoin:round;">
<path style="fill:#000000; fill-opacity:1.0; 
stroke:#000000; stroke-width:1.000000; stroke-opacity:1; 
stroke-linecap:round; stroke-linejoin:round;fill-rule:evenodd;"
d="M 50967799.000000,202230049.000000
49967801.000000,202230049.000000
49967801.000000,200730051.000000
50967799.000000,200730051.000000
Z" /> 
<path style="fill:#000000; fill-opacity:1.0; 
stroke:#000000; stroke-width:1.000000; stroke-opacity:1; 
stroke-linecap:round; stroke-linejoin:round;fill-rule:evenodd;"
d="M 54167799.000000,202230049.000000
53167801.000000,202230049.000000
53167801.000000,200730051.000000
54167799.000000,200730051.000000
Z" /> 
<path style="fill:#000000; fill-opacity:1.0; 
stroke:#000000; stroke-width:1.000000; stroke-opacity:1; 
stroke-linecap:round; stroke-linejoin:round;fill-rule:evenodd;"
d="M 54167799.000000,197330049.000000
53167801.000000,197330049.000000
53167801.000000,195830051.000000
54167799.000000,195830051.000000
Z" /> 
<path style="fill:#000000; fill-opacity:1.0; 
stroke:#000000; stroke-width:1.000000; stroke-opacity:1; 
stroke-linecap:round; stroke-linejoin:round;fill-rule:evenodd;"
d="M 50967799.000000,197330049.000000
49967801.000000,197330049.000000
49967801.000000,195830051.000000
50967799.000000,195830051.000000
Z" /> 
</g>
<g >
</g>
<g style="fill:#000000; fill-opacity:1.0; 
stroke:#000000; stroke-width:1.000000; stroke-opacity:1; 
stroke-linecap:round; stroke-linejoin:round;">
<path style="fill:#000000; fill-opacity:1.0; 
stroke:#000000; stroke-width:1.000000; stroke-opacity:1; 
stroke-linecap:round; stroke-linejoin:round;fill-rule:evenodd;"
d="M 50967799.000000,85470154.000000
49967801.000000,85470154.000000
49967801.000000,83970156.000000
50967799.000000,83970156.000000
Z" /> 
<path style="fill:#000000; fill-opacity:1.0; 
stroke:#000000; stroke-width:1.000000; stroke-opacity:1; 
stroke-linecap:round; stroke-linejoin:round;fill-rule:evenodd;"
d="M 54167799.000000,85470154.000000
53167801.000000,85470154.000000
53167801.000000,83970156.000000
54167799.000000,83970156.000000
Z" /> 
<path style="fill:#000000; fill-opacity:1.0; 
stroke:#000000; stroke-width:1.000000; stroke-opacity:1; 
stroke-linecap:round; stroke-linejoin:round;fill-rule:evenodd;"
d="M 54167799.000000,80570154.000000
53167801.000000,80570154.000000
53167801.000000,79070156.000000
54167799.000000,79070156.000000
Z" /> 
<path style="fill:#000000; fill-opacity:1.0; 
stroke:#000000; stroke-width:1.000000; stroke-opacity:1; 
stroke-linecap:round; stroke-linejoin:round;fill-rule:evenodd;"
d="M 50967799.000000,80570154.000000
49967801.000000,80570154.000000
49967801.000000,79070156.000000
50967799.000000,79070156.000000
Z" /> 
</g>
<g >
</g>
<g >
</g>
<g >
</g>
<g >
</g>
<g >
</g>
<g >
</g>
<g >
</g>
<g >
</g>
</g> 
</svg>
