%TF.GenerationSoftware,KiCad,Pcbnew,(6.0.4-0)*%
%TF.CreationDate,2022-06-21T16:43:55+02:00*%
%TF.ProjectId,GlowLEDsPCB,476c6f77-4c45-4447-9350-43422e6b6963,rev?*%
%TF.SameCoordinates,Original*%
%TF.FileFunction,Legend,Bot*%
%TF.FilePolarity,Positive*%
%FSLAX46Y46*%
G04 Gerber Fmt 4.6, Leading zero omitted, Abs format (unit mm)*
G04 Created by KiCad (PCBNEW (6.0.4-0)) date 2022-06-21 16:43:55*
%MOMM*%
%LPD*%
G01*
G04 APERTURE LIST*
%ADD10C,0.150000*%
%ADD11C,0.400000*%
%ADD12C,0.010000*%
G04 APERTURE END LIST*
D10*
X47662380Y-272263213D02*
X47662380Y-271787023D01*
X48138571Y-271739404D01*
X48090952Y-271787023D01*
X48043333Y-271882261D01*
X48043333Y-272120356D01*
X48090952Y-272215594D01*
X48138571Y-272263213D01*
X48233809Y-272310832D01*
X48471904Y-272310832D01*
X48567142Y-272263213D01*
X48614761Y-272215594D01*
X48662380Y-272120356D01*
X48662380Y-271882261D01*
X48614761Y-271787023D01*
X48567142Y-271739404D01*
X47662380Y-272596547D02*
X48662380Y-272929880D01*
X47662380Y-273263213D01*
X47722380Y-25301785D02*
X47722380Y-24825595D01*
X48198571Y-24777976D01*
X48150952Y-24825595D01*
X48103333Y-24920833D01*
X48103333Y-25158928D01*
X48150952Y-25254166D01*
X48198571Y-25301785D01*
X48293809Y-25349404D01*
X48531904Y-25349404D01*
X48627142Y-25301785D01*
X48674761Y-25254166D01*
X48722380Y-25158928D01*
X48722380Y-24920833D01*
X48674761Y-24825595D01*
X48627142Y-24777976D01*
X47722380Y-25635119D02*
X48722380Y-25968452D01*
X47722380Y-26301785D01*
X55948571Y-25158928D02*
X55996190Y-25301785D01*
X56043809Y-25349404D01*
X56139047Y-25397023D01*
X56281904Y-25397023D01*
X56377142Y-25349404D01*
X56424761Y-25301785D01*
X56472380Y-25206547D01*
X56472380Y-24825595D01*
X55472380Y-24825595D01*
X55472380Y-25158928D01*
X55520000Y-25254166D01*
X55567619Y-25301785D01*
X55662857Y-25349404D01*
X55758095Y-25349404D01*
X55853333Y-25301785D01*
X55900952Y-25254166D01*
X55948571Y-25158928D01*
X55948571Y-24825595D01*
X55805714Y-26254166D02*
X56472380Y-26254166D01*
X55805714Y-25825595D02*
X56329523Y-25825595D01*
X56424761Y-25873214D01*
X56472380Y-25968452D01*
X56472380Y-26111309D01*
X56424761Y-26206547D01*
X56377142Y-26254166D01*
X55805714Y-26587500D02*
X55805714Y-26968452D01*
X55472380Y-26730357D02*
X56329523Y-26730357D01*
X56424761Y-26777976D01*
X56472380Y-26873214D01*
X56472380Y-26968452D01*
X55805714Y-27158928D02*
X55805714Y-27539880D01*
X55472380Y-27301785D02*
X56329523Y-27301785D01*
X56424761Y-27349404D01*
X56472380Y-27444642D01*
X56472380Y-27539880D01*
X56472380Y-28016071D02*
X56424761Y-27920833D01*
X56377142Y-27873214D01*
X56281904Y-27825595D01*
X55996190Y-27825595D01*
X55900952Y-27873214D01*
X55853333Y-27920833D01*
X55805714Y-28016071D01*
X55805714Y-28158928D01*
X55853333Y-28254166D01*
X55900952Y-28301785D01*
X55996190Y-28349404D01*
X56281904Y-28349404D01*
X56377142Y-28301785D01*
X56424761Y-28254166D01*
X56472380Y-28158928D01*
X56472380Y-28016071D01*
X55805714Y-28777976D02*
X56472380Y-28777976D01*
X55900952Y-28777976D02*
X55853333Y-28825595D01*
X55805714Y-28920833D01*
X55805714Y-29063690D01*
X55853333Y-29158928D01*
X55948571Y-29206547D01*
X56472380Y-29206547D01*
X51142380Y-270215595D02*
X50142380Y-270215595D01*
X50142380Y-270453690D01*
X50190000Y-270596547D01*
X50285238Y-270691785D01*
X50380476Y-270739404D01*
X50570952Y-270787023D01*
X50713809Y-270787023D01*
X50904285Y-270739404D01*
X50999523Y-270691785D01*
X51094761Y-270596547D01*
X51142380Y-270453690D01*
X51142380Y-270215595D01*
X51142380Y-271644166D02*
X50618571Y-271644166D01*
X50523333Y-271596547D01*
X50475714Y-271501309D01*
X50475714Y-271310833D01*
X50523333Y-271215595D01*
X51094761Y-271644166D02*
X51142380Y-271548928D01*
X51142380Y-271310833D01*
X51094761Y-271215595D01*
X50999523Y-271167976D01*
X50904285Y-271167976D01*
X50809047Y-271215595D01*
X50761428Y-271310833D01*
X50761428Y-271548928D01*
X50713809Y-271644166D01*
X50475714Y-271977500D02*
X50475714Y-272358452D01*
X50142380Y-272120357D02*
X50999523Y-272120357D01*
X51094761Y-272167976D01*
X51142380Y-272263214D01*
X51142380Y-272358452D01*
X51142380Y-273120357D02*
X50618571Y-273120357D01*
X50523333Y-273072738D01*
X50475714Y-272977500D01*
X50475714Y-272787023D01*
X50523333Y-272691785D01*
X51094761Y-273120357D02*
X51142380Y-273025119D01*
X51142380Y-272787023D01*
X51094761Y-272691785D01*
X50999523Y-272644166D01*
X50904285Y-272644166D01*
X50809047Y-272691785D01*
X50761428Y-272787023D01*
X50761428Y-273025119D01*
X50713809Y-273120357D01*
X53040000Y-25349404D02*
X52992380Y-25254166D01*
X52992380Y-25111309D01*
X53040000Y-24968452D01*
X53135238Y-24873214D01*
X53230476Y-24825595D01*
X53420952Y-24777976D01*
X53563809Y-24777976D01*
X53754285Y-24825595D01*
X53849523Y-24873214D01*
X53944761Y-24968452D01*
X53992380Y-25111309D01*
X53992380Y-25206547D01*
X53944761Y-25349404D01*
X53897142Y-25397023D01*
X53563809Y-25397023D01*
X53563809Y-25206547D01*
X53992380Y-25825595D02*
X52992380Y-25825595D01*
X53992380Y-26397023D01*
X52992380Y-26397023D01*
X53992380Y-26873214D02*
X52992380Y-26873214D01*
X52992380Y-27111309D01*
X53040000Y-27254166D01*
X53135238Y-27349404D01*
X53230476Y-27397023D01*
X53420952Y-27444642D01*
X53563809Y-27444642D01*
X53754285Y-27397023D01*
X53849523Y-27349404D01*
X53944761Y-27254166D01*
X53992380Y-27111309D01*
X53992380Y-26873214D01*
X53835714Y-138830357D02*
X54502380Y-139068452D01*
X53835714Y-139306547D01*
X54502380Y-140211309D02*
X54502380Y-139639880D01*
X54502380Y-139925595D02*
X53502380Y-139925595D01*
X53645238Y-139830357D01*
X53740476Y-139735119D01*
X53788095Y-139639880D01*
X54407142Y-140639880D02*
X54454761Y-140687500D01*
X54502380Y-140639880D01*
X54454761Y-140592261D01*
X54407142Y-140639880D01*
X54502380Y-140639880D01*
X53502380Y-141306547D02*
X53502380Y-141401785D01*
X53550000Y-141497023D01*
X53597619Y-141544642D01*
X53692857Y-141592261D01*
X53883333Y-141639880D01*
X54121428Y-141639880D01*
X54311904Y-141592261D01*
X54407142Y-141544642D01*
X54454761Y-141497023D01*
X54502380Y-141401785D01*
X54502380Y-141306547D01*
X54454761Y-141211309D01*
X54407142Y-141163690D01*
X54311904Y-141116071D01*
X54121428Y-141068452D01*
X53883333Y-141068452D01*
X53692857Y-141116071D01*
X53597619Y-141163690D01*
X53550000Y-141211309D01*
X53502380Y-141306547D01*
X54502380Y-143401785D02*
X54026190Y-143068452D01*
X54502380Y-142830357D02*
X53502380Y-142830357D01*
X53502380Y-143211309D01*
X53550000Y-143306547D01*
X53597619Y-143354166D01*
X53692857Y-143401785D01*
X53835714Y-143401785D01*
X53930952Y-143354166D01*
X53978571Y-143306547D01*
X54026190Y-143211309D01*
X54026190Y-142830357D01*
X54407142Y-144401785D02*
X54454761Y-144354166D01*
X54502380Y-144211309D01*
X54502380Y-144116071D01*
X54454761Y-143973214D01*
X54359523Y-143877976D01*
X54264285Y-143830357D01*
X54073809Y-143782738D01*
X53930952Y-143782738D01*
X53740476Y-143830357D01*
X53645238Y-143877976D01*
X53550000Y-143973214D01*
X53502380Y-144116071D01*
X53502380Y-144211309D01*
X53550000Y-144354166D01*
X53597619Y-144401785D01*
X54502380Y-145354166D02*
X54502380Y-144782738D01*
X54502380Y-145068452D02*
X53502380Y-145068452D01*
X53645238Y-144973214D01*
X53740476Y-144877976D01*
X53788095Y-144782738D01*
X51967904Y-65797976D02*
X51167904Y-65797976D01*
X51167904Y-66102738D01*
X51206000Y-66178928D01*
X51244095Y-66217023D01*
X51320285Y-66255119D01*
X51434571Y-66255119D01*
X51510761Y-66217023D01*
X51548857Y-66178928D01*
X51586952Y-66102738D01*
X51586952Y-65797976D01*
X51891714Y-67055119D02*
X51929809Y-67017023D01*
X51967904Y-66902738D01*
X51967904Y-66826547D01*
X51929809Y-66712261D01*
X51853619Y-66636071D01*
X51777428Y-66597976D01*
X51625047Y-66559880D01*
X51510761Y-66559880D01*
X51358380Y-66597976D01*
X51282190Y-66636071D01*
X51206000Y-66712261D01*
X51167904Y-66826547D01*
X51167904Y-66902738D01*
X51206000Y-67017023D01*
X51244095Y-67055119D01*
X51548857Y-67664642D02*
X51586952Y-67778928D01*
X51625047Y-67817023D01*
X51701238Y-67855119D01*
X51815523Y-67855119D01*
X51891714Y-67817023D01*
X51929809Y-67778928D01*
X51967904Y-67702738D01*
X51967904Y-67397976D01*
X51167904Y-67397976D01*
X51167904Y-67664642D01*
X51206000Y-67740833D01*
X51244095Y-67778928D01*
X51320285Y-67817023D01*
X51396476Y-67817023D01*
X51472666Y-67778928D01*
X51510761Y-67740833D01*
X51548857Y-67664642D01*
X51548857Y-67397976D01*
X51434571Y-68693214D02*
X51434571Y-68997976D01*
X51967904Y-68807500D02*
X51282190Y-68807500D01*
X51206000Y-68845595D01*
X51167904Y-68921785D01*
X51167904Y-68997976D01*
X51967904Y-69264642D02*
X51434571Y-69264642D01*
X51167904Y-69264642D02*
X51206000Y-69226547D01*
X51244095Y-69264642D01*
X51206000Y-69302738D01*
X51167904Y-69264642D01*
X51244095Y-69264642D01*
X51967904Y-69759880D02*
X51929809Y-69683690D01*
X51853619Y-69645595D01*
X51167904Y-69645595D01*
X51929809Y-70369404D02*
X51967904Y-70293214D01*
X51967904Y-70140833D01*
X51929809Y-70064642D01*
X51853619Y-70026547D01*
X51548857Y-70026547D01*
X51472666Y-70064642D01*
X51434571Y-70140833D01*
X51434571Y-70293214D01*
X51472666Y-70369404D01*
X51548857Y-70407500D01*
X51625047Y-70407500D01*
X51701238Y-70026547D01*
X51929809Y-70712261D02*
X51967904Y-70788452D01*
X51967904Y-70940833D01*
X51929809Y-71017023D01*
X51853619Y-71055119D01*
X51815523Y-71055119D01*
X51739333Y-71017023D01*
X51701238Y-70940833D01*
X51701238Y-70826547D01*
X51663142Y-70750357D01*
X51586952Y-70712261D01*
X51548857Y-70712261D01*
X51472666Y-70750357D01*
X51434571Y-70826547D01*
X51434571Y-70940833D01*
X51472666Y-71017023D01*
X51891714Y-71397976D02*
X51929809Y-71436071D01*
X51967904Y-71397976D01*
X51929809Y-71359880D01*
X51891714Y-71397976D01*
X51967904Y-71397976D01*
X51472666Y-71397976D02*
X51510761Y-71436071D01*
X51548857Y-71397976D01*
X51510761Y-71359880D01*
X51472666Y-71397976D01*
X51548857Y-71397976D01*
X53255904Y-65797976D02*
X52455904Y-65797976D01*
X53255904Y-66140833D02*
X52836857Y-66140833D01*
X52760666Y-66102738D01*
X52722571Y-66026547D01*
X52722571Y-65912261D01*
X52760666Y-65836071D01*
X52798761Y-65797976D01*
X52722571Y-66407500D02*
X52722571Y-66712261D01*
X52455904Y-66521785D02*
X53141619Y-66521785D01*
X53217809Y-66559880D01*
X53255904Y-66636071D01*
X53255904Y-66712261D01*
X52722571Y-66864642D02*
X52722571Y-67169404D01*
X52455904Y-66978928D02*
X53141619Y-66978928D01*
X53217809Y-67017023D01*
X53255904Y-67093214D01*
X53255904Y-67169404D01*
X52722571Y-67436071D02*
X53522571Y-67436071D01*
X52760666Y-67436071D02*
X52722571Y-67512261D01*
X52722571Y-67664642D01*
X52760666Y-67740833D01*
X52798761Y-67778928D01*
X52874952Y-67817023D01*
X53103523Y-67817023D01*
X53179714Y-67778928D01*
X53217809Y-67740833D01*
X53255904Y-67664642D01*
X53255904Y-67512261D01*
X53217809Y-67436071D01*
X53217809Y-68121785D02*
X53255904Y-68197976D01*
X53255904Y-68350357D01*
X53217809Y-68426547D01*
X53141619Y-68464642D01*
X53103523Y-68464642D01*
X53027333Y-68426547D01*
X52989238Y-68350357D01*
X52989238Y-68236071D01*
X52951142Y-68159880D01*
X52874952Y-68121785D01*
X52836857Y-68121785D01*
X52760666Y-68159880D01*
X52722571Y-68236071D01*
X52722571Y-68350357D01*
X52760666Y-68426547D01*
X53179714Y-68807500D02*
X53217809Y-68845595D01*
X53255904Y-68807500D01*
X53217809Y-68769404D01*
X53179714Y-68807500D01*
X53255904Y-68807500D01*
X52760666Y-68807500D02*
X52798761Y-68845595D01*
X52836857Y-68807500D01*
X52798761Y-68769404D01*
X52760666Y-68807500D01*
X52836857Y-68807500D01*
X52417809Y-69759880D02*
X53446380Y-69074166D01*
X52417809Y-70597976D02*
X53446380Y-69912261D01*
X53255904Y-70864642D02*
X52455904Y-70864642D01*
X52760666Y-70864642D02*
X52722571Y-70940833D01*
X52722571Y-71093214D01*
X52760666Y-71169404D01*
X52798761Y-71207500D01*
X52874952Y-71245595D01*
X53103523Y-71245595D01*
X53179714Y-71207500D01*
X53217809Y-71169404D01*
X53255904Y-71093214D01*
X53255904Y-70940833D01*
X53217809Y-70864642D01*
X53255904Y-71588452D02*
X52722571Y-71588452D01*
X52455904Y-71588452D02*
X52494000Y-71550357D01*
X52532095Y-71588452D01*
X52494000Y-71626547D01*
X52455904Y-71588452D01*
X52532095Y-71588452D01*
X52722571Y-71855119D02*
X52722571Y-72159880D01*
X52455904Y-71969404D02*
X53141619Y-71969404D01*
X53217809Y-72007500D01*
X53255904Y-72083690D01*
X53255904Y-72159880D01*
X53179714Y-72426547D02*
X53217809Y-72464642D01*
X53255904Y-72426547D01*
X53217809Y-72388452D01*
X53179714Y-72426547D01*
X53255904Y-72426547D01*
X53255904Y-72921785D02*
X53217809Y-72845595D01*
X53141619Y-72807500D01*
X52455904Y-72807500D01*
X52722571Y-73150357D02*
X53255904Y-73340833D01*
X52722571Y-73531309D02*
X53255904Y-73340833D01*
X53446380Y-73264642D01*
X53484476Y-73226547D01*
X53522571Y-73150357D01*
X52417809Y-74407500D02*
X53446380Y-73721785D01*
X52455904Y-74597976D02*
X52455904Y-75093214D01*
X52760666Y-74826547D01*
X52760666Y-74940833D01*
X52798761Y-75017023D01*
X52836857Y-75055119D01*
X52913047Y-75093214D01*
X53103523Y-75093214D01*
X53179714Y-75055119D01*
X53217809Y-75017023D01*
X53255904Y-74940833D01*
X53255904Y-74712261D01*
X53217809Y-74636071D01*
X53179714Y-74597976D01*
X53255904Y-75436071D02*
X52455904Y-75436071D01*
X52951142Y-75512261D02*
X53255904Y-75740833D01*
X52722571Y-75740833D02*
X53027333Y-75436071D01*
X52455904Y-76236071D02*
X52455904Y-76388452D01*
X52494000Y-76464642D01*
X52570190Y-76540833D01*
X52722571Y-76578928D01*
X52989238Y-76578928D01*
X53141619Y-76540833D01*
X53217809Y-76464642D01*
X53255904Y-76388452D01*
X53255904Y-76236071D01*
X53217809Y-76159880D01*
X53141619Y-76083690D01*
X52989238Y-76045595D01*
X52722571Y-76045595D01*
X52570190Y-76083690D01*
X52494000Y-76159880D01*
X52455904Y-76236071D01*
X53217809Y-77264642D02*
X53255904Y-77188452D01*
X53255904Y-77036071D01*
X53217809Y-76959880D01*
X53179714Y-76921785D01*
X53103523Y-76883690D01*
X52874952Y-76883690D01*
X52798761Y-76921785D01*
X52760666Y-76959880D01*
X52722571Y-77036071D01*
X52722571Y-77188452D01*
X52760666Y-77264642D01*
X52722571Y-77531309D02*
X53255904Y-77721785D01*
X52722571Y-77912261D01*
X52455904Y-78369404D02*
X52455904Y-78521785D01*
X52494000Y-78597976D01*
X52570190Y-78674166D01*
X52722571Y-78712261D01*
X52989238Y-78712261D01*
X53141619Y-78674166D01*
X53217809Y-78597976D01*
X53255904Y-78521785D01*
X53255904Y-78369404D01*
X53217809Y-78293214D01*
X53141619Y-78217023D01*
X52989238Y-78178928D01*
X52722571Y-78178928D01*
X52570190Y-78217023D01*
X52494000Y-78293214D01*
X52455904Y-78369404D01*
X53332095Y-79588452D02*
X53294000Y-79512261D01*
X53217809Y-79436071D01*
X53103523Y-79321785D01*
X53065428Y-79245595D01*
X53065428Y-79169404D01*
X53255904Y-79207500D02*
X53217809Y-79131309D01*
X53141619Y-79055119D01*
X52989238Y-79017023D01*
X52722571Y-79017023D01*
X52570190Y-79055119D01*
X52494000Y-79131309D01*
X52455904Y-79207500D01*
X52455904Y-79359880D01*
X52494000Y-79436071D01*
X52570190Y-79512261D01*
X52722571Y-79550357D01*
X52989238Y-79550357D01*
X53141619Y-79512261D01*
X53217809Y-79436071D01*
X53255904Y-79359880D01*
X53255904Y-79207500D01*
X55888571Y-269072737D02*
X55936190Y-269215594D01*
X55983809Y-269263213D01*
X56079047Y-269310832D01*
X56221904Y-269310832D01*
X56317142Y-269263213D01*
X56364761Y-269215594D01*
X56412380Y-269120356D01*
X56412380Y-268739404D01*
X55412380Y-268739404D01*
X55412380Y-269072737D01*
X55460000Y-269167975D01*
X55507619Y-269215594D01*
X55602857Y-269263213D01*
X55698095Y-269263213D01*
X55793333Y-269215594D01*
X55840952Y-269167975D01*
X55888571Y-269072737D01*
X55888571Y-268739404D01*
X55745714Y-270167975D02*
X56412380Y-270167975D01*
X55745714Y-269739404D02*
X56269523Y-269739404D01*
X56364761Y-269787023D01*
X56412380Y-269882261D01*
X56412380Y-270025118D01*
X56364761Y-270120356D01*
X56317142Y-270167975D01*
X55745714Y-270501309D02*
X55745714Y-270882261D01*
X55412380Y-270644166D02*
X56269523Y-270644166D01*
X56364761Y-270691785D01*
X56412380Y-270787023D01*
X56412380Y-270882261D01*
X55745714Y-271072737D02*
X55745714Y-271453689D01*
X55412380Y-271215594D02*
X56269523Y-271215594D01*
X56364761Y-271263213D01*
X56412380Y-271358451D01*
X56412380Y-271453689D01*
X56412380Y-271929880D02*
X56364761Y-271834642D01*
X56317142Y-271787023D01*
X56221904Y-271739404D01*
X55936190Y-271739404D01*
X55840952Y-271787023D01*
X55793333Y-271834642D01*
X55745714Y-271929880D01*
X55745714Y-272072737D01*
X55793333Y-272167975D01*
X55840952Y-272215594D01*
X55936190Y-272263213D01*
X56221904Y-272263213D01*
X56317142Y-272215594D01*
X56364761Y-272167975D01*
X56412380Y-272072737D01*
X56412380Y-271929880D01*
X55745714Y-272691785D02*
X56412380Y-272691785D01*
X55840952Y-272691785D02*
X55793333Y-272739404D01*
X55745714Y-272834642D01*
X55745714Y-272977499D01*
X55793333Y-273072737D01*
X55888571Y-273120356D01*
X56412380Y-273120356D01*
D11*
X49910000Y-140093333D02*
X49790952Y-139855238D01*
X49790952Y-139498095D01*
X49910000Y-139140952D01*
X50148095Y-138902857D01*
X50386190Y-138783809D01*
X50862380Y-138664761D01*
X51219523Y-138664761D01*
X51695714Y-138783809D01*
X51933809Y-138902857D01*
X52171904Y-139140952D01*
X52290952Y-139498095D01*
X52290952Y-139736190D01*
X52171904Y-140093333D01*
X52052857Y-140212380D01*
X51219523Y-140212380D01*
X51219523Y-139736190D01*
X52290952Y-141640952D02*
X52171904Y-141402857D01*
X51933809Y-141283809D01*
X49790952Y-141283809D01*
X52290952Y-142950476D02*
X52171904Y-142712380D01*
X52052857Y-142593333D01*
X51814761Y-142474285D01*
X51100476Y-142474285D01*
X50862380Y-142593333D01*
X50743333Y-142712380D01*
X50624285Y-142950476D01*
X50624285Y-143307619D01*
X50743333Y-143545714D01*
X50862380Y-143664761D01*
X51100476Y-143783809D01*
X51814761Y-143783809D01*
X52052857Y-143664761D01*
X52171904Y-143545714D01*
X52290952Y-143307619D01*
X52290952Y-142950476D01*
X50624285Y-144617142D02*
X52290952Y-145093333D01*
X51100476Y-145569523D01*
X52290952Y-146045714D01*
X50624285Y-146521904D01*
X52171904Y-147355238D02*
X52290952Y-147712380D01*
X52290952Y-148307619D01*
X52171904Y-148545714D01*
X52052857Y-148664761D01*
X51814761Y-148783809D01*
X51576666Y-148783809D01*
X51338571Y-148664761D01*
X51219523Y-148545714D01*
X51100476Y-148307619D01*
X50981428Y-147831428D01*
X50862380Y-147593333D01*
X50743333Y-147474285D01*
X50505238Y-147355238D01*
X50267142Y-147355238D01*
X50029047Y-147474285D01*
X49910000Y-147593333D01*
X49790952Y-147831428D01*
X49790952Y-148426666D01*
X49910000Y-148783809D01*
X50624285Y-149498095D02*
X50624285Y-150450476D01*
X49790952Y-149855238D02*
X51933809Y-149855238D01*
X52171904Y-149974285D01*
X52290952Y-150212380D01*
X52290952Y-150450476D01*
X52290952Y-151283809D02*
X50624285Y-151283809D01*
X51100476Y-151283809D02*
X50862380Y-151402857D01*
X50743333Y-151521904D01*
X50624285Y-151760000D01*
X50624285Y-151998095D01*
X52290952Y-152831428D02*
X50624285Y-152831428D01*
X49790952Y-152831428D02*
X49910000Y-152712380D01*
X50029047Y-152831428D01*
X49910000Y-152950476D01*
X49790952Y-152831428D01*
X50029047Y-152831428D01*
X50624285Y-154021904D02*
X53124285Y-154021904D01*
X50743333Y-154021904D02*
X50624285Y-154260000D01*
X50624285Y-154736190D01*
X50743333Y-154974285D01*
X50862380Y-155093333D01*
X51100476Y-155212380D01*
X51814761Y-155212380D01*
X52052857Y-155093333D01*
X52171904Y-154974285D01*
X52290952Y-154736190D01*
X52290952Y-154260000D01*
X52171904Y-154021904D01*
X52171904Y-157236190D02*
X52290952Y-156998095D01*
X52290952Y-156521904D01*
X52171904Y-156283809D01*
X51933809Y-156164761D01*
X50981428Y-156164761D01*
X50743333Y-156283809D01*
X50624285Y-156521904D01*
X50624285Y-156998095D01*
X50743333Y-157236190D01*
X50981428Y-157355238D01*
X51219523Y-157355238D01*
X51457619Y-156164761D01*
D10*
X52980000Y-271072737D02*
X52932380Y-270977499D01*
X52932380Y-270834642D01*
X52980000Y-270691785D01*
X53075238Y-270596547D01*
X53170476Y-270548928D01*
X53360952Y-270501309D01*
X53503809Y-270501309D01*
X53694285Y-270548928D01*
X53789523Y-270596547D01*
X53884761Y-270691785D01*
X53932380Y-270834642D01*
X53932380Y-270929880D01*
X53884761Y-271072737D01*
X53837142Y-271120356D01*
X53503809Y-271120356D01*
X53503809Y-270929880D01*
X53932380Y-271548928D02*
X52932380Y-271548928D01*
X53932380Y-272120356D01*
X52932380Y-272120356D01*
X53932380Y-272596547D02*
X52932380Y-272596547D01*
X52932380Y-272834642D01*
X52980000Y-272977499D01*
X53075238Y-273072737D01*
X53170476Y-273120356D01*
X53360952Y-273167975D01*
X53503809Y-273167975D01*
X53694285Y-273120356D01*
X53789523Y-273072737D01*
X53884761Y-272977499D01*
X53932380Y-272834642D01*
X53932380Y-272596547D01*
X51202380Y-24825595D02*
X50202380Y-24825595D01*
X50202380Y-25063690D01*
X50250000Y-25206547D01*
X50345238Y-25301785D01*
X50440476Y-25349404D01*
X50630952Y-25397023D01*
X50773809Y-25397023D01*
X50964285Y-25349404D01*
X51059523Y-25301785D01*
X51154761Y-25206547D01*
X51202380Y-25063690D01*
X51202380Y-24825595D01*
X51202380Y-26254166D02*
X50678571Y-26254166D01*
X50583333Y-26206547D01*
X50535714Y-26111309D01*
X50535714Y-25920833D01*
X50583333Y-25825595D01*
X51154761Y-26254166D02*
X51202380Y-26158928D01*
X51202380Y-25920833D01*
X51154761Y-25825595D01*
X51059523Y-25777976D01*
X50964285Y-25777976D01*
X50869047Y-25825595D01*
X50821428Y-25920833D01*
X50821428Y-26158928D01*
X50773809Y-26254166D01*
X50535714Y-26587500D02*
X50535714Y-26968452D01*
X50202380Y-26730357D02*
X51059523Y-26730357D01*
X51154761Y-26777976D01*
X51202380Y-26873214D01*
X51202380Y-26968452D01*
X51202380Y-27730357D02*
X50678571Y-27730357D01*
X50583333Y-27682738D01*
X50535714Y-27587500D01*
X50535714Y-27397023D01*
X50583333Y-27301785D01*
X51154761Y-27730357D02*
X51202380Y-27635119D01*
X51202380Y-27397023D01*
X51154761Y-27301785D01*
X51059523Y-27254166D01*
X50964285Y-27254166D01*
X50869047Y-27301785D01*
X50821428Y-27397023D01*
X50821428Y-27635119D01*
X50773809Y-27730357D01*
%TO.C,leddirectionarrow4*%
G36*
X52194541Y-257085406D02*
G01*
X52194810Y-257085550D01*
X52199899Y-257089724D01*
X52210193Y-257099159D01*
X52225433Y-257113599D01*
X52245357Y-257132788D01*
X52269707Y-257156471D01*
X52298222Y-257184393D01*
X52330642Y-257216296D01*
X52366708Y-257251927D01*
X52406160Y-257291028D01*
X52448737Y-257333345D01*
X52494180Y-257378622D01*
X52542229Y-257426602D01*
X52592624Y-257477031D01*
X52643141Y-257527624D01*
X52692775Y-257577326D01*
X52737404Y-257622038D01*
X52777289Y-257662047D01*
X52812691Y-257697642D01*
X52843870Y-257729108D01*
X52871086Y-257756736D01*
X52894600Y-257780811D01*
X52914672Y-257801622D01*
X52931562Y-257819457D01*
X52945532Y-257834603D01*
X52956840Y-257847348D01*
X52965749Y-257857980D01*
X52972517Y-257866786D01*
X52977406Y-257874055D01*
X52980676Y-257880073D01*
X52982588Y-257885129D01*
X52983400Y-257889511D01*
X52983375Y-257893506D01*
X52982773Y-257897401D01*
X52981853Y-257901486D01*
X52980876Y-257906046D01*
X52980370Y-257908299D01*
X52973713Y-257923330D01*
X52962749Y-257937746D01*
X52949900Y-257948244D01*
X52945519Y-257949471D01*
X52936464Y-257950570D01*
X52922316Y-257951539D01*
X52902620Y-257952394D01*
X52876925Y-257953151D01*
X52844777Y-257953826D01*
X52805723Y-257954434D01*
X52759308Y-257954992D01*
X52743328Y-257955165D01*
X52703437Y-257955615D01*
X52670420Y-257956044D01*
X52643584Y-257956487D01*
X52622237Y-257956978D01*
X52605687Y-257957553D01*
X52593240Y-257958248D01*
X52584205Y-257959098D01*
X52577888Y-257960139D01*
X52573598Y-257961406D01*
X52570642Y-257962934D01*
X52568328Y-257964759D01*
X52568085Y-257964974D01*
X52565373Y-257967300D01*
X52562930Y-257969505D01*
X52560741Y-257971984D01*
X52558792Y-257975134D01*
X52557070Y-257979353D01*
X52555561Y-257985037D01*
X52554250Y-257992583D01*
X52553124Y-258002388D01*
X52552168Y-258014847D01*
X52551369Y-258030359D01*
X52550713Y-258049320D01*
X52550186Y-258072126D01*
X52549773Y-258099174D01*
X52549461Y-258130862D01*
X52549236Y-258167585D01*
X52549085Y-258209741D01*
X52548992Y-258257726D01*
X52548943Y-258311937D01*
X52548926Y-258372770D01*
X52548926Y-258440623D01*
X52548930Y-258515893D01*
X52548930Y-259034073D01*
X52540656Y-259048794D01*
X52539307Y-259051006D01*
X52529326Y-259062745D01*
X52517548Y-259071852D01*
X52502713Y-259080189D01*
X52166709Y-259079149D01*
X52114621Y-259078986D01*
X52062113Y-259078808D01*
X52016474Y-259078629D01*
X51977203Y-259078433D01*
X51943797Y-259078209D01*
X51915753Y-259077942D01*
X51892569Y-259077620D01*
X51873741Y-259077230D01*
X51858769Y-259076758D01*
X51847148Y-259076191D01*
X51838377Y-259075517D01*
X51831953Y-259074722D01*
X51827374Y-259073792D01*
X51824137Y-259072715D01*
X51821739Y-259071478D01*
X51819678Y-259070067D01*
X51816440Y-259067318D01*
X51807528Y-259056999D01*
X51799860Y-259044823D01*
X51791070Y-259027622D01*
X51791070Y-258508692D01*
X51791074Y-258458433D01*
X51791087Y-258387839D01*
X51791093Y-258324413D01*
X51791073Y-258267762D01*
X51791011Y-258217497D01*
X51790889Y-258173226D01*
X51790688Y-258134559D01*
X51790391Y-258101106D01*
X51789980Y-258072475D01*
X51789439Y-258048276D01*
X51788748Y-258028118D01*
X51787890Y-258011611D01*
X51786848Y-257998364D01*
X51785603Y-257987987D01*
X51784138Y-257980088D01*
X51782436Y-257974276D01*
X51780478Y-257970163D01*
X51778247Y-257967355D01*
X51775725Y-257965464D01*
X51772895Y-257964098D01*
X51769738Y-257962866D01*
X51766237Y-257961379D01*
X51762454Y-257959901D01*
X51757159Y-257958607D01*
X51749810Y-257957558D01*
X51739686Y-257956729D01*
X51726069Y-257956095D01*
X51708238Y-257955632D01*
X51685474Y-257955315D01*
X51657056Y-257955119D01*
X51622265Y-257955020D01*
X51580381Y-257954992D01*
X51578899Y-257954992D01*
X51535863Y-257954977D01*
X51499902Y-257954880D01*
X51470301Y-257954620D01*
X51446345Y-257954120D01*
X51427318Y-257953301D01*
X51412505Y-257952082D01*
X51401192Y-257950386D01*
X51392661Y-257948133D01*
X51386200Y-257945243D01*
X51381091Y-257941639D01*
X51376620Y-257937241D01*
X51372072Y-257931970D01*
X51364834Y-257921141D01*
X51358516Y-257900745D01*
X51359222Y-257877839D01*
X51359236Y-257877764D01*
X51360076Y-257875238D01*
X51361939Y-257871850D01*
X51365092Y-257867327D01*
X51369798Y-257861395D01*
X51376323Y-257853780D01*
X51384933Y-257844208D01*
X51395893Y-257832406D01*
X51409467Y-257818099D01*
X51425921Y-257801014D01*
X51445521Y-257780877D01*
X51468531Y-257757413D01*
X51495217Y-257730350D01*
X51525844Y-257699413D01*
X51560677Y-257664329D01*
X51599982Y-257624823D01*
X51644023Y-257580621D01*
X51693066Y-257531450D01*
X51747376Y-257477037D01*
X51779520Y-257444862D01*
X51824435Y-257399979D01*
X51867734Y-257356797D01*
X51909094Y-257315637D01*
X51948190Y-257276817D01*
X51984697Y-257240659D01*
X52018290Y-257207481D01*
X52048646Y-257177604D01*
X52075439Y-257151347D01*
X52098345Y-257129031D01*
X52117039Y-257110974D01*
X52131198Y-257097498D01*
X52140495Y-257088921D01*
X52144608Y-257085564D01*
X52153332Y-257082447D01*
X52174148Y-257080486D01*
X52194541Y-257085406D01*
G37*
%TO.C,designedby*%
G36*
X53494257Y-192056793D02*
G01*
X53517115Y-192074769D01*
X53534668Y-192116979D01*
X53525946Y-192162039D01*
X53494765Y-192197906D01*
X53444937Y-192212538D01*
X53400298Y-192200952D01*
X53368606Y-192162787D01*
X53366644Y-192107280D01*
X53392049Y-192064056D01*
X53438722Y-192044341D01*
X53494257Y-192056793D01*
G37*
G36*
X54263340Y-193385197D02*
G01*
X54282068Y-193402234D01*
X54287614Y-193450386D01*
X54285896Y-193462435D01*
X54270227Y-193495384D01*
X54232911Y-193503899D01*
X54221938Y-193503532D01*
X54190540Y-193490438D01*
X54178209Y-193450386D01*
X54183323Y-193407265D01*
X54213570Y-193380637D01*
X54263340Y-193385197D01*
G37*
G36*
X52185280Y-192077492D02*
G01*
X52200771Y-192093608D01*
X52210938Y-192135997D01*
X52182824Y-192182022D01*
X52137403Y-192207915D01*
X52095506Y-192201150D01*
X52066933Y-192167196D01*
X52061352Y-192111657D01*
X52065397Y-192097174D01*
X52095266Y-192066715D01*
X52140184Y-192058788D01*
X52185280Y-192077492D01*
G37*
G36*
X51798484Y-194686786D02*
G01*
X51817487Y-194707241D01*
X51821346Y-194761143D01*
X51814436Y-194801047D01*
X51794643Y-194820485D01*
X51749401Y-194824388D01*
X51722596Y-194822344D01*
X51673231Y-194802490D01*
X51651104Y-194766945D01*
X51661982Y-194722438D01*
X51687835Y-194697998D01*
X51741547Y-194680387D01*
X51798484Y-194686786D01*
G37*
G36*
X53490860Y-194292639D02*
G01*
X53518523Y-194310890D01*
X53536069Y-194350719D01*
X53529659Y-194394981D01*
X53502163Y-194430905D01*
X53456453Y-194445718D01*
X53401916Y-194433372D01*
X53368414Y-194396516D01*
X53366387Y-194341486D01*
X53384668Y-194305893D01*
X53429094Y-194283694D01*
X53490860Y-194292639D01*
G37*
G36*
X51801657Y-199556788D02*
G01*
X51814444Y-199576308D01*
X51824960Y-199620871D01*
X51818274Y-199656041D01*
X51788278Y-199693469D01*
X51745051Y-199709072D01*
X51700665Y-199699691D01*
X51667194Y-199662165D01*
X51658252Y-199612265D01*
X51675413Y-199567229D01*
X51711217Y-199538126D01*
X51756390Y-199532222D01*
X51801657Y-199556788D01*
G37*
G36*
X51789262Y-198234096D02*
G01*
X51792770Y-198236156D01*
X51819200Y-198272494D01*
X51822746Y-198321405D01*
X51801657Y-198364464D01*
X51764656Y-198383977D01*
X51712186Y-198383605D01*
X51669818Y-198358891D01*
X51651836Y-198317766D01*
X51661009Y-198273626D01*
X51692522Y-198239167D01*
X51738048Y-198223091D01*
X51789262Y-198234096D01*
G37*
G36*
X51395287Y-196910611D02*
G01*
X51420881Y-196932705D01*
X51436581Y-196986401D01*
X51431686Y-197025980D01*
X51402494Y-197071034D01*
X51349196Y-197086697D01*
X51314161Y-197080896D01*
X51275266Y-197047081D01*
X51261810Y-196985302D01*
X51265016Y-196960553D01*
X51292907Y-196917332D01*
X51340135Y-196898556D01*
X51395287Y-196910611D01*
G37*
G36*
X51801657Y-194896238D02*
G01*
X51808529Y-194904117D01*
X51825121Y-194949948D01*
X51815448Y-194996036D01*
X51781992Y-195026015D01*
X51734344Y-195035735D01*
X51684994Y-195021134D01*
X51657518Y-194977167D01*
X51654781Y-194953146D01*
X51670742Y-194906892D01*
X51708210Y-194877684D01*
X51755683Y-194871980D01*
X51801657Y-194896238D01*
G37*
G36*
X51798484Y-192841985D02*
G01*
X51817487Y-192862439D01*
X51821346Y-192916342D01*
X51814436Y-192956246D01*
X51794643Y-192975684D01*
X51749401Y-192979587D01*
X51722596Y-192977543D01*
X51673231Y-192957688D01*
X51651104Y-192922144D01*
X51661982Y-192877637D01*
X51687835Y-192853197D01*
X51741547Y-192835586D01*
X51798484Y-192841985D01*
G37*
G36*
X53894148Y-192465871D02*
G01*
X53911284Y-192482980D01*
X53920454Y-192515984D01*
X53902106Y-192563356D01*
X53881318Y-192588524D01*
X53842495Y-192600684D01*
X53803966Y-192586594D01*
X53776339Y-192551348D01*
X53770220Y-192500036D01*
X53774266Y-192485553D01*
X53804134Y-192455095D01*
X53849052Y-192447167D01*
X53894148Y-192465871D01*
G37*
G36*
X52574828Y-198999240D02*
G01*
X52586820Y-199021853D01*
X52585366Y-199064960D01*
X52551670Y-199094448D01*
X52512621Y-199099773D01*
X52478453Y-199078182D01*
X52469590Y-199031133D01*
X52473576Y-199013295D01*
X52499921Y-198979352D01*
X52538090Y-198973328D01*
X52574828Y-198999240D01*
G37*
G36*
X50440287Y-193887234D02*
G01*
X50446465Y-193893804D01*
X50484639Y-193948100D01*
X50514503Y-194010408D01*
X50530988Y-194067837D01*
X50540858Y-194174549D01*
X50524841Y-194271592D01*
X50486615Y-194354135D01*
X50429859Y-194417349D01*
X50358254Y-194456402D01*
X50275477Y-194466466D01*
X50185209Y-194442709D01*
X50155970Y-194419246D01*
X50116231Y-194368540D01*
X50078200Y-194305388D01*
X50049647Y-194242932D01*
X50038343Y-194194314D01*
X50028156Y-194149009D01*
X49996925Y-194095878D01*
X49954760Y-194054556D01*
X49912062Y-194037920D01*
X49891269Y-194040701D01*
X49852489Y-194068387D01*
X49831928Y-194118803D01*
X49830347Y-194183336D01*
X49848506Y-194253372D01*
X49887163Y-194320295D01*
X49929079Y-194373583D01*
X49873115Y-194421722D01*
X49817150Y-194469861D01*
X49772274Y-194414097D01*
X49765687Y-194405666D01*
X49715616Y-194316221D01*
X49691965Y-194220901D01*
X49692416Y-194125901D01*
X49714649Y-194037412D01*
X49756346Y-193961629D01*
X49815190Y-193904744D01*
X49888862Y-193872950D01*
X49975043Y-193872439D01*
X50005690Y-193880262D01*
X50056701Y-193907577D01*
X50100397Y-193955780D01*
X50141348Y-194030677D01*
X50184124Y-194138075D01*
X50200009Y-194181496D01*
X50225478Y-194244351D01*
X50246510Y-194281175D01*
X50267930Y-194299311D01*
X50294567Y-194306103D01*
X50332013Y-194302905D01*
X50373249Y-194273416D01*
X50397032Y-194221678D01*
X50401865Y-194155772D01*
X50386253Y-194083778D01*
X50348698Y-194013778D01*
X50308364Y-193959223D01*
X50350768Y-193899671D01*
X50393173Y-193840119D01*
X50440287Y-193887234D01*
G37*
G36*
X52941550Y-192472007D02*
G01*
X52944604Y-192473376D01*
X52966137Y-192501860D01*
X52968982Y-192541861D01*
X52951086Y-192571896D01*
X52947220Y-192574010D01*
X52907473Y-192576297D01*
X52870479Y-192555617D01*
X52854165Y-192521323D01*
X52861719Y-192493010D01*
X52894441Y-192468844D01*
X52941550Y-192472007D01*
G37*
G36*
X52554472Y-193579386D02*
G01*
X52573200Y-193596424D01*
X52578745Y-193644576D01*
X52577027Y-193656625D01*
X52561358Y-193689573D01*
X52524043Y-193698088D01*
X52513070Y-193697722D01*
X52481672Y-193684628D01*
X52469340Y-193644576D01*
X52474455Y-193601455D01*
X52504701Y-193574827D01*
X52554472Y-193579386D01*
G37*
G36*
X52166090Y-199558417D02*
G01*
X52196371Y-199575623D01*
X52203208Y-199588193D01*
X52212745Y-199620871D01*
X52208631Y-199645234D01*
X52178118Y-199678235D01*
X52123847Y-199685538D01*
X52098787Y-199681287D01*
X52073497Y-199663301D01*
X52067697Y-199620871D01*
X52069037Y-199594718D01*
X52083590Y-199566817D01*
X52123847Y-199556204D01*
X52166090Y-199558417D01*
G37*
G36*
X53084288Y-194468984D02*
G01*
X53122147Y-194488440D01*
X53136972Y-194514876D01*
X53145449Y-194562232D01*
X53140870Y-194598696D01*
X53111528Y-194643515D01*
X53058064Y-194659327D01*
X53025246Y-194654238D01*
X52984909Y-194621636D01*
X52970679Y-194562232D01*
X52975258Y-194525767D01*
X53004601Y-194480949D01*
X53058064Y-194465137D01*
X53084288Y-194468984D01*
G37*
G36*
X52554790Y-194505760D02*
G01*
X52577488Y-194520969D01*
X52582300Y-194562232D01*
X52580515Y-194592980D01*
X52565306Y-194615677D01*
X52524043Y-194620489D01*
X52493295Y-194618704D01*
X52470598Y-194603495D01*
X52465786Y-194562232D01*
X52467571Y-194531484D01*
X52482779Y-194508787D01*
X52524043Y-194503975D01*
X52554790Y-194505760D01*
G37*
G36*
X54667967Y-197151577D02*
G01*
X54676802Y-197185443D01*
X54661730Y-197219540D01*
X54626058Y-197238556D01*
X54597875Y-197237115D01*
X54570001Y-197212776D01*
X54567461Y-197203215D01*
X54576792Y-197164940D01*
X54608101Y-197138532D01*
X54647998Y-197137002D01*
X54667967Y-197151577D01*
G37*
G36*
X49503007Y-194670423D02*
G01*
X49525464Y-194704693D01*
X49530044Y-194762512D01*
X49501385Y-194818004D01*
X49480218Y-194836169D01*
X49427407Y-194852442D01*
X49375387Y-194839933D01*
X49335707Y-194803177D01*
X49319914Y-194746712D01*
X49322766Y-194722074D01*
X49350228Y-194673173D01*
X49397294Y-194644984D01*
X49452156Y-194642428D01*
X49503007Y-194670423D01*
G37*
G36*
X51979578Y-193571472D02*
G01*
X52010757Y-193602476D01*
X52016019Y-193649156D01*
X51988634Y-193696701D01*
X51949672Y-193722021D01*
X51907141Y-193719887D01*
X51875928Y-193686961D01*
X51863798Y-193627547D01*
X51864304Y-193617459D01*
X51883916Y-193574327D01*
X51925378Y-193557527D01*
X51979578Y-193571472D01*
G37*
G36*
X54079384Y-195093139D02*
G01*
X54101869Y-195120527D01*
X54101277Y-195164774D01*
X54078593Y-195205715D01*
X54040416Y-195222477D01*
X54002237Y-195211767D01*
X53971962Y-195175437D01*
X53970459Y-195126314D01*
X53971378Y-195123698D01*
X53998203Y-195095427D01*
X54039517Y-195085007D01*
X54079384Y-195093139D01*
G37*
G36*
X52554790Y-192855148D02*
G01*
X52577488Y-192870357D01*
X52582300Y-192911620D01*
X52580515Y-192942368D01*
X52565306Y-192965065D01*
X52524043Y-192969877D01*
X52493295Y-192968092D01*
X52470598Y-192952884D01*
X52465786Y-192911620D01*
X52467571Y-192880873D01*
X52482779Y-192858175D01*
X52524043Y-192853363D01*
X52554790Y-192855148D01*
G37*
G36*
X54252524Y-196009030D02*
G01*
X54283259Y-196030917D01*
X54287442Y-196073723D01*
X54278163Y-196103096D01*
X54247428Y-196130130D01*
X54209052Y-196130252D01*
X54176721Y-196100191D01*
X54169295Y-196080488D01*
X54174271Y-196037260D01*
X54204250Y-196009352D01*
X54250084Y-196008232D01*
X54252524Y-196009030D01*
G37*
G36*
X52554222Y-192264175D02*
G01*
X52572431Y-192280652D01*
X52578495Y-192326677D01*
X52577508Y-192334016D01*
X52562111Y-192368499D01*
X52524043Y-192377599D01*
X52517030Y-192377456D01*
X52482768Y-192365500D01*
X52469590Y-192326677D01*
X52474700Y-192286059D01*
X52504981Y-192259853D01*
X52554222Y-192264175D01*
G37*
G36*
X50265210Y-197890513D02*
G01*
X50320277Y-197914524D01*
X50405599Y-197973294D01*
X50476085Y-198047264D01*
X50520004Y-198125611D01*
X50534788Y-198185890D01*
X50535771Y-198295720D01*
X50507438Y-198401020D01*
X50452173Y-198489006D01*
X50435822Y-198508592D01*
X50437177Y-198521355D01*
X50472333Y-198523700D01*
X50479244Y-198523759D01*
X50508919Y-198529233D01*
X50521365Y-198551435D01*
X50523890Y-198601376D01*
X50523890Y-198679051D01*
X49378171Y-198679051D01*
X49378171Y-198523700D01*
X49582070Y-198523700D01*
X49647311Y-198523146D01*
X49718995Y-198520964D01*
X49767889Y-198517513D01*
X49785969Y-198513204D01*
X49785824Y-198512102D01*
X49773297Y-198488356D01*
X49746739Y-198449646D01*
X49716935Y-198388723D01*
X49701305Y-198319482D01*
X49840066Y-198319482D01*
X49861133Y-198392783D01*
X49886670Y-198426970D01*
X49951068Y-198475930D01*
X50031757Y-198510563D01*
X50114845Y-198523700D01*
X50173186Y-198518708D01*
X50270102Y-198483076D01*
X50347405Y-198414665D01*
X50363699Y-198388342D01*
X50384761Y-198312911D01*
X50383355Y-198228798D01*
X50358769Y-198152438D01*
X50337272Y-198121870D01*
X50272960Y-198073660D01*
X50190378Y-198046540D01*
X50099255Y-198040558D01*
X50009319Y-198055766D01*
X49930297Y-198092213D01*
X49871918Y-198149949D01*
X49865576Y-198160599D01*
X49841842Y-198235424D01*
X49840066Y-198319482D01*
X49701305Y-198319482D01*
X49697458Y-198302441D01*
X49693220Y-198211140D01*
X49706342Y-198131524D01*
X49716228Y-198107101D01*
X49764698Y-198031978D01*
X49832859Y-197961393D01*
X49908342Y-197908973D01*
X49945925Y-197892975D01*
X50048343Y-197870969D01*
X50099255Y-197870465D01*
X50160320Y-197869861D01*
X50265210Y-197890513D01*
G37*
G36*
X54263659Y-192855148D02*
G01*
X54286356Y-192870357D01*
X54291168Y-192911620D01*
X54289383Y-192942368D01*
X54274175Y-192965065D01*
X54232911Y-192969877D01*
X54202163Y-192968092D01*
X54179466Y-192952884D01*
X54174654Y-192911620D01*
X54176439Y-192880873D01*
X54191648Y-192858175D01*
X54232911Y-192853363D01*
X54263659Y-192855148D01*
G37*
G36*
X54263340Y-195812567D02*
G01*
X54282068Y-195829604D01*
X54287614Y-195877756D01*
X54285896Y-195889805D01*
X54270227Y-195922754D01*
X54232911Y-195931269D01*
X54221938Y-195930902D01*
X54190540Y-195917808D01*
X54178209Y-195877756D01*
X54183323Y-195834635D01*
X54213570Y-195808007D01*
X54263340Y-195812567D01*
G37*
G36*
X54262040Y-196938367D02*
G01*
X54280454Y-196956105D01*
X54291168Y-196996624D01*
X54284163Y-197029641D01*
X54252362Y-197057774D01*
X54203783Y-197054881D01*
X54185368Y-197037144D01*
X54174654Y-196996624D01*
X54181660Y-196963607D01*
X54213461Y-196935475D01*
X54262040Y-196938367D01*
G37*
G36*
X54456229Y-197326747D02*
G01*
X54472028Y-197339138D01*
X54484310Y-197376440D01*
X54478092Y-197417744D01*
X54453768Y-197444205D01*
X54418290Y-197445332D01*
X54383367Y-197419800D01*
X54368844Y-197374994D01*
X54376518Y-197347170D01*
X54409360Y-197323545D01*
X54456229Y-197326747D01*
G37*
G36*
X54283696Y-197154439D02*
G01*
X54295688Y-197177051D01*
X54294235Y-197220159D01*
X54260538Y-197249647D01*
X54221489Y-197254972D01*
X54187322Y-197233381D01*
X54178459Y-197186332D01*
X54182445Y-197168494D01*
X54208790Y-197134551D01*
X54246959Y-197128527D01*
X54283696Y-197154439D01*
G37*
G36*
X53874958Y-195616368D02*
G01*
X53905239Y-195633574D01*
X53912076Y-195646144D01*
X53921613Y-195678822D01*
X53917500Y-195703185D01*
X53886986Y-195736186D01*
X53832715Y-195743489D01*
X53807656Y-195739238D01*
X53782365Y-195721252D01*
X53776566Y-195678822D01*
X53777905Y-195652669D01*
X53792458Y-195624768D01*
X53832715Y-195614155D01*
X53874958Y-195616368D01*
G37*
G36*
X54061158Y-193577297D02*
G01*
X54094367Y-193605347D01*
X54095980Y-193608412D01*
X54101360Y-193653414D01*
X54080150Y-193691649D01*
X54040416Y-193707798D01*
X54002237Y-193697088D01*
X53971962Y-193660758D01*
X53970459Y-193611635D01*
X53981281Y-193592763D01*
X54017893Y-193573385D01*
X54061158Y-193577297D01*
G37*
G36*
X53510526Y-197323608D02*
G01*
X53512350Y-197325503D01*
X53532438Y-197370664D01*
X53525668Y-197420192D01*
X53494257Y-197456050D01*
X53474616Y-197464408D01*
X53422054Y-197465814D01*
X53382776Y-197439858D01*
X53365285Y-197395045D01*
X53378084Y-197339877D01*
X53379326Y-197337668D01*
X53416341Y-197307485D01*
X53466087Y-197302060D01*
X53510526Y-197323608D01*
G37*
G36*
X51789262Y-192253056D02*
G01*
X51792770Y-192255116D01*
X51819200Y-192291454D01*
X51822746Y-192340366D01*
X51801657Y-192383425D01*
X51764656Y-192402937D01*
X51712186Y-192402565D01*
X51669818Y-192377851D01*
X51651836Y-192336727D01*
X51661009Y-192292586D01*
X51692522Y-192258127D01*
X51738048Y-192242051D01*
X51789262Y-192253056D01*
G37*
G36*
X50132741Y-200367263D02*
G01*
X50559134Y-200557801D01*
X50709814Y-200492279D01*
X50735191Y-200481343D01*
X50802235Y-200453467D01*
X50852514Y-200434048D01*
X50876672Y-200426758D01*
X50887264Y-200438940D01*
X50892562Y-200476272D01*
X50890752Y-200524670D01*
X50882526Y-200569610D01*
X50868576Y-200596568D01*
X50844317Y-200610219D01*
X50792641Y-200633249D01*
X50727789Y-200658657D01*
X50706210Y-200666795D01*
X50639210Y-200692966D01*
X50546614Y-200729855D01*
X50435302Y-200774699D01*
X50312156Y-200824729D01*
X50184058Y-200877183D01*
X50106470Y-200909074D01*
X49991715Y-200956209D01*
X49891637Y-200997275D01*
X49811546Y-201030094D01*
X49756753Y-201052490D01*
X49732567Y-201062286D01*
X49721548Y-201061373D01*
X49711405Y-201035040D01*
X49708293Y-200974684D01*
X49708293Y-200877629D01*
X49936466Y-200794764D01*
X50026704Y-200761826D01*
X50120119Y-200727399D01*
X50198871Y-200698044D01*
X50252024Y-200677812D01*
X50339410Y-200643725D01*
X50252024Y-200604474D01*
X50204206Y-200583344D01*
X50127950Y-200550147D01*
X50036723Y-200510762D01*
X49941321Y-200469867D01*
X49718003Y-200374510D01*
X49712175Y-200275618D01*
X49706348Y-200176726D01*
X50132741Y-200367263D01*
G37*
G36*
X51971900Y-192062698D02*
G01*
X52002181Y-192079905D01*
X52018682Y-192129086D01*
X52005980Y-192175059D01*
X51967883Y-192203352D01*
X51911417Y-192204330D01*
X51887487Y-192196391D01*
X51868113Y-192174448D01*
X51867472Y-192129341D01*
X51871776Y-192100586D01*
X51889339Y-192071489D01*
X51929657Y-192060486D01*
X51971900Y-192062698D01*
G37*
G36*
X52185280Y-196213731D02*
G01*
X52200771Y-196229846D01*
X52210938Y-196272236D01*
X52182824Y-196318261D01*
X52137403Y-196344154D01*
X52095506Y-196337388D01*
X52066933Y-196303435D01*
X52061352Y-196247896D01*
X52065397Y-196233412D01*
X52095266Y-196202954D01*
X52140184Y-196195027D01*
X52185280Y-196213731D01*
G37*
G36*
X53506112Y-194492120D02*
G01*
X53511084Y-194494699D01*
X53529573Y-194525579D01*
X53531992Y-194572163D01*
X53516860Y-194617189D01*
X53496425Y-194632257D01*
X53452126Y-194636468D01*
X53404598Y-194623641D01*
X53370825Y-194596215D01*
X53361649Y-194572930D01*
X53369576Y-194532070D01*
X53402348Y-194500324D01*
X53450887Y-194484679D01*
X53506112Y-194492120D01*
G37*
G36*
X52554472Y-193773576D02*
G01*
X52573200Y-193790613D01*
X52578745Y-193838765D01*
X52577027Y-193850814D01*
X52561358Y-193883763D01*
X52524043Y-193892278D01*
X52513070Y-193891912D01*
X52481672Y-193878818D01*
X52469340Y-193838765D01*
X52474455Y-193795645D01*
X52504701Y-193769016D01*
X52554472Y-193773576D01*
G37*
G36*
X53316336Y-195614740D02*
G01*
X53329123Y-195634259D01*
X53339639Y-195678822D01*
X53335792Y-195705046D01*
X53316336Y-195742905D01*
X53296817Y-195755691D01*
X53252254Y-195766207D01*
X53225046Y-195762655D01*
X53181167Y-195732807D01*
X53164868Y-195678822D01*
X53164875Y-195677732D01*
X53181298Y-195627862D01*
X53220614Y-195597102D01*
X53269926Y-195590909D01*
X53316336Y-195614740D01*
G37*
G36*
X52182824Y-198787243D02*
G01*
X52199151Y-198806691D01*
X52211364Y-198851425D01*
X52185280Y-198891773D01*
X52171115Y-198901236D01*
X52124424Y-198910588D01*
X52082879Y-198894679D01*
X52061352Y-198857608D01*
X52066878Y-198802203D01*
X52095398Y-198768178D01*
X52137270Y-198761324D01*
X52182824Y-198787243D01*
G37*
G36*
X51607468Y-193575749D02*
G01*
X51620254Y-193595268D01*
X51630771Y-193639831D01*
X51627218Y-193667039D01*
X51597370Y-193710918D01*
X51543385Y-193727217D01*
X51516178Y-193723664D01*
X51472299Y-193693816D01*
X51456000Y-193639831D01*
X51456006Y-193638741D01*
X51472430Y-193588871D01*
X51511746Y-193558111D01*
X51561058Y-193551918D01*
X51607468Y-193575749D01*
G37*
G36*
X54090840Y-192087914D02*
G01*
X54110381Y-192115580D01*
X54114420Y-192134253D01*
X54104610Y-192162402D01*
X54081076Y-192184593D01*
X54037886Y-192193134D01*
X53993900Y-192185341D01*
X53967055Y-192161351D01*
X53962407Y-192131363D01*
X53978639Y-192091794D01*
X54013181Y-192066779D01*
X54054444Y-192063195D01*
X54090840Y-192087914D01*
G37*
G36*
X53874958Y-193577377D02*
G01*
X53905239Y-193594584D01*
X53912076Y-193607153D01*
X53921613Y-193639831D01*
X53917500Y-193664195D01*
X53886986Y-193697195D01*
X53832715Y-193704498D01*
X53807656Y-193700248D01*
X53782365Y-193682261D01*
X53776566Y-193639831D01*
X53777905Y-193613678D01*
X53792458Y-193585777D01*
X53832715Y-193575165D01*
X53874958Y-193577377D01*
G37*
G36*
X54061582Y-195614980D02*
G01*
X54094367Y-195644337D01*
X54096505Y-195648444D01*
X54101358Y-195694611D01*
X54076393Y-195731627D01*
X54029637Y-195746788D01*
X53999040Y-195740523D01*
X53970459Y-195707019D01*
X53967618Y-195672902D01*
X53986618Y-195635125D01*
X54021802Y-195613863D01*
X54061582Y-195614980D01*
G37*
G36*
X53119143Y-193560551D02*
G01*
X53120682Y-193561189D01*
X53139776Y-193587503D01*
X53141776Y-193644530D01*
X53139848Y-193665791D01*
X53131243Y-193701556D01*
X53108016Y-193715278D01*
X53058064Y-193717507D01*
X52980388Y-193717507D01*
X52980388Y-193639831D01*
X52980419Y-193630911D01*
X52984220Y-193584856D01*
X52999929Y-193563848D01*
X53035431Y-193555853D01*
X53079114Y-193554454D01*
X53119143Y-193560551D01*
G37*
G36*
X54090840Y-196224153D02*
G01*
X54110381Y-196251818D01*
X54114420Y-196270491D01*
X54104610Y-196298641D01*
X54081076Y-196320831D01*
X54037886Y-196329372D01*
X53993900Y-196321579D01*
X53967055Y-196297589D01*
X53962407Y-196267602D01*
X53978639Y-196228032D01*
X54013181Y-196203018D01*
X54054444Y-196199433D01*
X54090840Y-196224153D01*
G37*
G36*
X50219439Y-195033843D02*
G01*
X50269233Y-195048661D01*
X50325877Y-195076628D01*
X50403741Y-195127273D01*
X50473795Y-195202072D01*
X50520543Y-195298195D01*
X50529847Y-195329150D01*
X50540644Y-195444743D01*
X50513886Y-195554909D01*
X50450572Y-195654548D01*
X50441508Y-195665374D01*
X50435529Y-195680911D01*
X50455097Y-195687294D01*
X50506850Y-195688532D01*
X50594446Y-195675852D01*
X50663191Y-195633768D01*
X50710421Y-195560394D01*
X50733839Y-195475436D01*
X50730830Y-195385620D01*
X50700378Y-195280552D01*
X50663258Y-195182860D01*
X50718833Y-195154121D01*
X50721179Y-195152912D01*
X50761924Y-195133427D01*
X50784398Y-195125382D01*
X50797122Y-195134478D01*
X50819657Y-195173439D01*
X50844080Y-195234887D01*
X50866407Y-195309862D01*
X50880279Y-195402048D01*
X50875165Y-195516906D01*
X50848425Y-195625396D01*
X50802714Y-195717521D01*
X50740686Y-195783287D01*
X50738489Y-195784838D01*
X50697016Y-195809732D01*
X50648893Y-195828907D01*
X50588760Y-195843055D01*
X50511258Y-195852867D01*
X50411028Y-195859033D01*
X50282711Y-195862245D01*
X50120946Y-195863194D01*
X49708293Y-195863302D01*
X49708293Y-195775917D01*
X49708302Y-195771056D01*
X49711298Y-195718660D01*
X49722624Y-195694426D01*
X49746585Y-195688532D01*
X49765048Y-195687227D01*
X49772869Y-195677421D01*
X49763783Y-195650597D01*
X49736876Y-195598254D01*
X49702224Y-195507602D01*
X49699995Y-195482175D01*
X49845523Y-195482175D01*
X49874642Y-195574508D01*
X49906693Y-195614784D01*
X49969715Y-195660596D01*
X50044498Y-195694104D01*
X50116092Y-195707098D01*
X50157231Y-195702894D01*
X50238029Y-195674414D01*
X50308902Y-195626197D01*
X50355447Y-195566692D01*
X50370645Y-195527971D01*
X50385816Y-195438611D01*
X50374292Y-195358409D01*
X50365830Y-195340137D01*
X50320599Y-195283151D01*
X50257088Y-195232996D01*
X50189838Y-195201999D01*
X50109568Y-195191407D01*
X50018523Y-195207412D01*
X49941682Y-195250300D01*
X49883958Y-195314263D01*
X49850266Y-195393491D01*
X49845523Y-195482175D01*
X49699995Y-195482175D01*
X49692157Y-195392744D01*
X49716525Y-195281204D01*
X49773557Y-195180104D01*
X49861486Y-195096569D01*
X49895506Y-195074223D01*
X49945347Y-195050904D01*
X50004080Y-195038076D01*
X50086656Y-195031412D01*
X50109568Y-195030737D01*
X50160899Y-195029224D01*
X50219439Y-195033843D01*
G37*
G36*
X54284277Y-197349424D02*
G01*
X54293516Y-197366280D01*
X54294833Y-197409676D01*
X54270059Y-197442727D01*
X54226743Y-197451981D01*
X54217836Y-197450322D01*
X54191490Y-197432018D01*
X54184364Y-197387957D01*
X54188018Y-197360698D01*
X54211604Y-197326793D01*
X54247466Y-197321579D01*
X54284277Y-197349424D01*
G37*
G36*
X54263659Y-194699949D02*
G01*
X54286356Y-194715158D01*
X54291168Y-194756421D01*
X54289383Y-194787169D01*
X54274175Y-194809867D01*
X54232911Y-194814678D01*
X54202163Y-194812894D01*
X54179466Y-194797685D01*
X54174654Y-194756421D01*
X54176439Y-194725674D01*
X54191648Y-194702976D01*
X54232911Y-194698165D01*
X54263659Y-194699949D01*
G37*
G36*
X51979578Y-195416274D02*
G01*
X52010757Y-195447277D01*
X52016019Y-195493958D01*
X51988634Y-195541502D01*
X51949672Y-195566822D01*
X51907141Y-195564688D01*
X51875928Y-195531762D01*
X51863798Y-195472348D01*
X51864304Y-195462260D01*
X51883916Y-195419128D01*
X51925378Y-195402328D01*
X51979578Y-195416274D01*
G37*
G36*
X53689180Y-195610856D02*
G01*
X53710216Y-195627371D01*
X53728151Y-195670322D01*
X53717776Y-195716063D01*
X53680046Y-195750060D01*
X53636386Y-195762012D01*
X53602370Y-195747266D01*
X53599610Y-195744889D01*
X53573774Y-195702442D01*
X53576380Y-195657496D01*
X53600861Y-195620371D01*
X53640650Y-195601384D01*
X53689180Y-195610856D01*
G37*
G36*
X51950247Y-196916083D02*
G01*
X51991090Y-196932232D01*
X51996833Y-196937383D01*
X52020256Y-196980511D01*
X52013270Y-197023703D01*
X51981271Y-197055383D01*
X51929657Y-197063978D01*
X51895528Y-197056857D01*
X51877391Y-197036073D01*
X51873508Y-196989602D01*
X51875040Y-196956953D01*
X51887384Y-196926711D01*
X51918269Y-196915290D01*
X51950247Y-196916083D01*
G37*
G36*
X53507353Y-192841985D02*
G01*
X53526356Y-192862439D01*
X53530214Y-192916342D01*
X53523304Y-192956246D01*
X53503512Y-192975684D01*
X53458269Y-192979587D01*
X53431464Y-192977543D01*
X53382100Y-192957688D01*
X53359972Y-192922144D01*
X53370850Y-192877637D01*
X53396703Y-192853197D01*
X53450415Y-192835586D01*
X53507353Y-192841985D01*
G37*
G36*
X52554790Y-194699949D02*
G01*
X52577488Y-194715158D01*
X52582300Y-194756421D01*
X52580515Y-194787169D01*
X52565306Y-194809867D01*
X52524043Y-194814678D01*
X52493295Y-194812894D01*
X52470598Y-194797685D01*
X52465786Y-194756421D01*
X52467571Y-194725674D01*
X52482779Y-194702976D01*
X52524043Y-194698165D01*
X52554790Y-194699949D01*
G37*
G36*
X52554472Y-197657368D02*
G01*
X52573200Y-197674405D01*
X52578745Y-197722557D01*
X52577027Y-197734606D01*
X52561358Y-197767555D01*
X52524043Y-197776070D01*
X52513070Y-197775704D01*
X52481672Y-197762610D01*
X52469340Y-197722557D01*
X52474455Y-197679437D01*
X52504701Y-197652808D01*
X52554472Y-197657368D01*
G37*
G36*
X53894148Y-192077492D02*
G01*
X53909639Y-192093608D01*
X53919806Y-192135997D01*
X53891692Y-192182022D01*
X53846272Y-192207915D01*
X53804375Y-192201150D01*
X53775801Y-192167196D01*
X53770220Y-192111657D01*
X53774266Y-192097174D01*
X53804134Y-192066715D01*
X53849052Y-192058788D01*
X53894148Y-192077492D01*
G37*
G36*
X52575409Y-199194225D02*
G01*
X52584647Y-199211081D01*
X52585964Y-199254478D01*
X52561191Y-199287528D01*
X52517874Y-199296782D01*
X52508968Y-199295124D01*
X52482622Y-199276820D01*
X52475495Y-199232758D01*
X52479149Y-199205499D01*
X52502736Y-199171595D01*
X52538597Y-199166380D01*
X52575409Y-199194225D01*
G37*
G36*
X52960149Y-199386877D02*
G01*
X52966851Y-199424298D01*
X52955709Y-199449925D01*
X52923454Y-199470700D01*
X52886420Y-199469967D01*
X52860633Y-199444654D01*
X52858133Y-199432063D01*
X52871661Y-199397107D01*
X52905047Y-199373182D01*
X52944465Y-199372230D01*
X52960149Y-199386877D01*
G37*
G36*
X53119143Y-195599542D02*
G01*
X53120682Y-195600180D01*
X53139776Y-195626493D01*
X53141776Y-195683521D01*
X53139848Y-195704782D01*
X53131243Y-195740547D01*
X53108016Y-195754268D01*
X53058064Y-195756498D01*
X52980388Y-195756498D01*
X52980388Y-195678822D01*
X52980419Y-195669902D01*
X52984220Y-195623847D01*
X52999929Y-195602839D01*
X53035431Y-195594843D01*
X53079114Y-195593445D01*
X53119143Y-195599542D01*
G37*
G36*
X52574828Y-197154439D02*
G01*
X52586820Y-197177051D01*
X52585366Y-197220159D01*
X52551670Y-197249647D01*
X52512621Y-197254972D01*
X52478453Y-197233381D01*
X52469590Y-197186332D01*
X52473576Y-197168494D01*
X52499921Y-197134551D01*
X52538090Y-197128527D01*
X52574828Y-197154439D01*
G37*
G36*
X54667420Y-196750921D02*
G01*
X54670469Y-196754467D01*
X54677762Y-196790150D01*
X54663305Y-196828744D01*
X54633792Y-196850437D01*
X54599978Y-196849658D01*
X54571556Y-196824420D01*
X54572123Y-196777948D01*
X54591818Y-196750232D01*
X54630449Y-196736667D01*
X54667420Y-196750921D01*
G37*
G36*
X52352290Y-195422098D02*
G01*
X52385498Y-195450148D01*
X52387112Y-195453214D01*
X52392492Y-195498216D01*
X52371281Y-195536450D01*
X52331548Y-195552599D01*
X52293368Y-195541889D01*
X52263093Y-195505560D01*
X52261591Y-195456436D01*
X52272412Y-195437564D01*
X52309024Y-195418187D01*
X52352290Y-195422098D01*
G37*
G36*
X54079384Y-197326320D02*
G01*
X54101869Y-197353707D01*
X54101277Y-197397955D01*
X54078593Y-197438896D01*
X54040416Y-197455657D01*
X54002237Y-197444947D01*
X53971962Y-197408618D01*
X53970459Y-197359494D01*
X53971378Y-197356878D01*
X53998203Y-197328607D01*
X54039517Y-197318187D01*
X54079384Y-197326320D01*
G37*
G36*
X52554472Y-199366237D02*
G01*
X52573200Y-199383274D01*
X52578745Y-199431426D01*
X52577027Y-199443475D01*
X52561358Y-199476423D01*
X52524043Y-199484938D01*
X52513070Y-199484572D01*
X52481672Y-199471478D01*
X52469340Y-199431426D01*
X52474455Y-199388305D01*
X52504701Y-199361677D01*
X52554472Y-199366237D01*
G37*
G36*
X52353167Y-199559267D02*
G01*
X52385498Y-199586386D01*
X52387445Y-199590101D01*
X52392546Y-199636313D01*
X52367879Y-199673546D01*
X52321538Y-199688837D01*
X52284903Y-199678936D01*
X52259660Y-199642933D01*
X52262755Y-199589007D01*
X52273863Y-199570921D01*
X52310310Y-199554232D01*
X52353167Y-199559267D01*
G37*
G36*
X52352722Y-197654253D02*
G01*
X52386555Y-197683830D01*
X52400777Y-197710435D01*
X52404014Y-197736864D01*
X52384226Y-197762477D01*
X52376416Y-197769272D01*
X52332326Y-197785516D01*
X52288597Y-197777029D01*
X52261591Y-197746010D01*
X52258481Y-197712921D01*
X52276989Y-197674618D01*
X52312301Y-197653122D01*
X52352722Y-197654253D01*
G37*
G36*
X52553771Y-196738805D02*
G01*
X52577216Y-196753431D01*
X52582300Y-196793147D01*
X52576138Y-196832020D01*
X52548316Y-196857953D01*
X52510347Y-196862449D01*
X52476596Y-196843700D01*
X52465786Y-196793794D01*
X52467523Y-196764597D01*
X52482738Y-196742019D01*
X52524043Y-196737155D01*
X52553771Y-196738805D01*
G37*
G36*
X50523890Y-199416972D02*
G01*
X50523851Y-199427384D01*
X50520217Y-199472093D01*
X50505481Y-199490844D01*
X50472333Y-199494648D01*
X50444163Y-199495568D01*
X50432956Y-199504224D01*
X50452053Y-199529209D01*
X50454696Y-199532245D01*
X50484366Y-199576191D01*
X50512559Y-199631158D01*
X50532071Y-199689838D01*
X50538516Y-199800727D01*
X50506606Y-199912155D01*
X50447344Y-200005223D01*
X50357795Y-200079845D01*
X50243545Y-200125032D01*
X50105512Y-200140265D01*
X50031455Y-200134882D01*
X49917550Y-200102378D01*
X49823402Y-200044906D01*
X49752114Y-199967616D01*
X49706791Y-199875656D01*
X49690537Y-199774178D01*
X49696366Y-199735424D01*
X49841189Y-199735424D01*
X49857744Y-199816781D01*
X49908542Y-199895521D01*
X49908879Y-199895889D01*
X49956719Y-199940783D01*
X50005207Y-199964200D01*
X50073379Y-199975361D01*
X50179002Y-199973414D01*
X50267036Y-199942170D01*
X50339803Y-199879018D01*
X50343639Y-199874344D01*
X50383631Y-199797895D01*
X50389969Y-199717970D01*
X50366103Y-199641379D01*
X50315480Y-199574935D01*
X50241549Y-199525449D01*
X50147760Y-199499733D01*
X50145102Y-199499443D01*
X50044851Y-199503862D01*
X49960707Y-199535670D01*
X49896297Y-199588868D01*
X49855249Y-199657453D01*
X49841189Y-199735424D01*
X49696366Y-199735424D01*
X49706458Y-199668329D01*
X49757657Y-199563259D01*
X49804218Y-199494648D01*
X49378171Y-199494648D01*
X49378171Y-199339296D01*
X50523890Y-199339296D01*
X50523890Y-199416972D01*
G37*
G36*
X51785389Y-197843644D02*
G01*
X51787598Y-197844885D01*
X51817780Y-197881900D01*
X51823205Y-197931646D01*
X51801657Y-197976085D01*
X51799763Y-197977909D01*
X51754602Y-197997997D01*
X51705073Y-197991228D01*
X51669216Y-197959816D01*
X51660858Y-197940175D01*
X51659452Y-197887613D01*
X51685407Y-197848335D01*
X51730220Y-197830844D01*
X51785389Y-197843644D01*
G37*
G36*
X53510526Y-193381559D02*
G01*
X53530039Y-193418560D01*
X53529666Y-193471030D01*
X53504952Y-193513399D01*
X53492611Y-193521219D01*
X53445025Y-193527674D01*
X53397795Y-193510740D01*
X53368986Y-193475458D01*
X53364856Y-193440455D01*
X53382410Y-193394819D01*
X53419569Y-193365128D01*
X53465789Y-193358376D01*
X53510526Y-193381559D01*
G37*
G36*
X52564045Y-198452867D02*
G01*
X52587230Y-198470298D01*
X52592247Y-198509403D01*
X52571023Y-198548064D01*
X52521778Y-198562538D01*
X52493205Y-198560821D01*
X52470672Y-198545604D01*
X52465786Y-198504281D01*
X52467475Y-198474249D01*
X52482267Y-198451026D01*
X52522424Y-198446024D01*
X52564045Y-198452867D01*
G37*
G36*
X53494257Y-195804653D02*
G01*
X53496466Y-195805894D01*
X53526649Y-195842909D01*
X53532074Y-195892655D01*
X53510526Y-195937094D01*
X53508631Y-195938918D01*
X53463470Y-195959006D01*
X53413942Y-195952237D01*
X53378084Y-195920826D01*
X53369726Y-195901184D01*
X53368320Y-195848622D01*
X53394275Y-195809344D01*
X53439089Y-195791853D01*
X53494257Y-195804653D01*
G37*
G36*
X51971900Y-196198937D02*
G01*
X52002181Y-196216143D01*
X52018682Y-196265325D01*
X52005980Y-196311298D01*
X51967883Y-196339590D01*
X51911417Y-196340569D01*
X51887487Y-196332629D01*
X51868113Y-196310686D01*
X51867472Y-196265579D01*
X51871776Y-196236824D01*
X51889339Y-196207727D01*
X51929657Y-196196724D01*
X51971900Y-196198937D01*
G37*
G36*
X52352173Y-194295083D02*
G01*
X52386555Y-194324350D01*
X52398676Y-194346366D01*
X52405247Y-194373150D01*
X52392667Y-194399114D01*
X52388251Y-194405032D01*
X52349827Y-194429041D01*
X52304959Y-194429552D01*
X52267718Y-194409355D01*
X52252177Y-194371243D01*
X52252879Y-194360259D01*
X52272580Y-194317489D01*
X52309929Y-194294280D01*
X52352173Y-194295083D01*
G37*
G36*
X53317212Y-192061945D02*
G01*
X53332288Y-192094778D01*
X53335660Y-192144476D01*
X53332813Y-192164799D01*
X53315847Y-192196980D01*
X53275353Y-192209086D01*
X53224942Y-192206158D01*
X53180916Y-192177957D01*
X53164868Y-192126658D01*
X53164882Y-192125001D01*
X53181448Y-192074252D01*
X53220754Y-192043259D01*
X53270207Y-192037374D01*
X53317212Y-192061945D01*
G37*
G36*
X54262640Y-196738805D02*
G01*
X54286085Y-196753431D01*
X54291168Y-196793147D01*
X54285006Y-196832020D01*
X54257185Y-196857953D01*
X54219216Y-196862449D01*
X54185465Y-196843700D01*
X54174654Y-196793794D01*
X54176391Y-196764597D01*
X54191607Y-196742019D01*
X54232911Y-196737155D01*
X54262640Y-196738805D01*
G37*
G36*
X51801657Y-196935229D02*
G01*
X51820522Y-196963685D01*
X51823399Y-197010585D01*
X51800901Y-197052094D01*
X51760022Y-197077670D01*
X51707758Y-197076769D01*
X51694790Y-197070662D01*
X51664826Y-197033999D01*
X51654821Y-196984691D01*
X51669818Y-196940802D01*
X51704725Y-196918250D01*
X51757012Y-196914194D01*
X51801657Y-196935229D01*
G37*
G36*
X53894012Y-196543740D02*
G01*
X53908202Y-196560179D01*
X53922208Y-196601223D01*
X53921522Y-196612010D01*
X53901119Y-196653563D01*
X53861904Y-196673322D01*
X53816804Y-196668223D01*
X53778746Y-196635206D01*
X53768725Y-196608017D01*
X53777631Y-196567172D01*
X53808428Y-196537332D01*
X53850695Y-196526765D01*
X53894012Y-196543740D01*
G37*
G36*
X52377013Y-198457120D02*
G01*
X52395192Y-198478597D01*
X52407529Y-198504281D01*
X52406121Y-198510419D01*
X52387572Y-198538957D01*
X52359403Y-198568405D01*
X52336899Y-198581957D01*
X52302898Y-198570624D01*
X52267759Y-198540751D01*
X52252177Y-198507481D01*
X52258106Y-198473529D01*
X52287373Y-198438445D01*
X52330866Y-198431420D01*
X52377013Y-198457120D01*
G37*
G36*
X52166090Y-193577377D02*
G01*
X52196371Y-193594584D01*
X52203208Y-193607153D01*
X52212745Y-193639831D01*
X52208631Y-193664195D01*
X52178118Y-193697195D01*
X52123847Y-193704498D01*
X52098787Y-193700248D01*
X52073497Y-193682261D01*
X52067697Y-193639831D01*
X52069037Y-193613678D01*
X52083590Y-193585777D01*
X52123847Y-193575165D01*
X52166090Y-193577377D01*
G37*
G36*
X51950247Y-195071282D02*
G01*
X51991090Y-195087431D01*
X51996833Y-195092582D01*
X52020256Y-195135710D01*
X52013270Y-195178902D01*
X51981271Y-195210582D01*
X51929657Y-195219177D01*
X51895528Y-195212056D01*
X51877391Y-195191272D01*
X51873508Y-195144801D01*
X51875040Y-195112152D01*
X51887384Y-195081910D01*
X51918269Y-195070489D01*
X51950247Y-195071282D01*
G37*
G36*
X54286826Y-194907045D02*
G01*
X54291168Y-194947244D01*
X54282837Y-194990536D01*
X54251709Y-195019293D01*
X54202732Y-195015487D01*
X54184523Y-194999010D01*
X54178459Y-194952985D01*
X54179268Y-194946912D01*
X54195863Y-194910126D01*
X54237766Y-194895919D01*
X54266201Y-194894423D01*
X54286826Y-194907045D01*
G37*
G36*
X51392888Y-193360157D02*
G01*
X51410356Y-193370563D01*
X51434472Y-193409338D01*
X51439922Y-193458349D01*
X51426580Y-193502900D01*
X51394320Y-193528295D01*
X51352060Y-193539347D01*
X51395504Y-193555418D01*
X51417940Y-193566918D01*
X51432903Y-193593598D01*
X51432910Y-193644498D01*
X51430980Y-193665783D01*
X51422374Y-193701555D01*
X51399147Y-193715278D01*
X51349196Y-193717507D01*
X51325925Y-193717341D01*
X51287761Y-193711934D01*
X51271625Y-193690801D01*
X51265404Y-193643198D01*
X51264114Y-193599573D01*
X51274379Y-193571064D01*
X51302810Y-193557507D01*
X51346332Y-193546126D01*
X51302888Y-193530055D01*
X51281762Y-193519525D01*
X51265734Y-193493252D01*
X51265482Y-193443077D01*
X51266605Y-193432893D01*
X51288111Y-193376242D01*
X51331120Y-193351401D01*
X51392888Y-193360157D01*
G37*
G36*
X52185280Y-194310672D02*
G01*
X52202415Y-194327781D01*
X52211585Y-194360785D01*
X52193237Y-194408157D01*
X52172449Y-194433325D01*
X52133626Y-194445485D01*
X52095097Y-194431396D01*
X52067470Y-194396149D01*
X52061352Y-194344837D01*
X52065397Y-194330354D01*
X52095266Y-194299896D01*
X52140184Y-194291969D01*
X52185280Y-194310672D01*
G37*
G36*
X53894148Y-192271682D02*
G01*
X53909639Y-192287797D01*
X53919806Y-192330187D01*
X53891692Y-192376212D01*
X53846272Y-192402105D01*
X53804375Y-192395339D01*
X53775801Y-192361386D01*
X53770220Y-192305847D01*
X53774266Y-192291363D01*
X53804134Y-192260905D01*
X53849052Y-192252978D01*
X53894148Y-192271682D01*
G37*
G36*
X51980312Y-195805045D02*
G01*
X51988133Y-195810013D01*
X52014435Y-195849447D01*
X52015576Y-195898861D01*
X51990273Y-195940769D01*
X51962874Y-195953077D01*
X51912598Y-195952486D01*
X51902227Y-195949518D01*
X51871811Y-195927798D01*
X51863798Y-195883034D01*
X51865115Y-195865035D01*
X51887044Y-195816870D01*
X51928630Y-195794740D01*
X51980312Y-195805045D01*
G37*
G36*
X54263340Y-193773576D02*
G01*
X54282068Y-193790613D01*
X54287614Y-193838765D01*
X54285896Y-193850814D01*
X54270227Y-193883763D01*
X54232911Y-193892278D01*
X54221938Y-193891912D01*
X54190540Y-193878818D01*
X54178209Y-193838765D01*
X54183323Y-193795645D01*
X54213570Y-193769016D01*
X54263340Y-193773576D01*
G37*
G36*
X50248210Y-196971833D02*
G01*
X50332126Y-197009962D01*
X50414331Y-197073948D01*
X50480806Y-197152226D01*
X50520344Y-197233998D01*
X50532054Y-197293349D01*
X50535087Y-197406647D01*
X50517867Y-197519089D01*
X50482115Y-197613598D01*
X50448868Y-197668280D01*
X50419866Y-197696318D01*
X50389636Y-197695753D01*
X50349579Y-197670262D01*
X50301492Y-197633341D01*
X50344725Y-197556419D01*
X50366755Y-197508837D01*
X50386861Y-197412684D01*
X50378525Y-197319316D01*
X50344294Y-197236605D01*
X50286714Y-197172425D01*
X50208332Y-197134652D01*
X50154930Y-197121324D01*
X50154930Y-197746941D01*
X50072399Y-197746515D01*
X49981960Y-197733707D01*
X49882916Y-197692722D01*
X49796660Y-197629866D01*
X49731853Y-197551646D01*
X49697153Y-197464568D01*
X49690158Y-197409930D01*
X49693478Y-197363181D01*
X49840714Y-197363181D01*
X49855334Y-197444829D01*
X49900989Y-197515408D01*
X49913282Y-197527049D01*
X49956045Y-197559242D01*
X49988375Y-197572171D01*
X50001204Y-197567572D01*
X50010254Y-197548969D01*
X50015674Y-197510152D01*
X50018307Y-197444918D01*
X50018997Y-197347065D01*
X50018997Y-197121960D01*
X49955929Y-197158793D01*
X49898372Y-197206931D01*
X49855576Y-197280527D01*
X49840714Y-197363181D01*
X49693478Y-197363181D01*
X49698829Y-197287838D01*
X49739030Y-197178567D01*
X49806052Y-197086325D01*
X49895188Y-197015321D01*
X50001732Y-196969765D01*
X50018997Y-196967463D01*
X50120975Y-196953866D01*
X50248210Y-196971833D01*
G37*
G36*
X51801657Y-193575749D02*
G01*
X51821170Y-193612750D01*
X51820798Y-193665220D01*
X51796084Y-193707588D01*
X51783743Y-193715408D01*
X51736157Y-193721864D01*
X51688926Y-193704930D01*
X51660117Y-193669648D01*
X51655988Y-193634645D01*
X51673542Y-193589009D01*
X51710700Y-193559317D01*
X51756920Y-193552566D01*
X51801657Y-193575749D01*
G37*
G36*
X51950247Y-194294523D02*
G01*
X51991090Y-194310672D01*
X52005144Y-194326950D01*
X52019150Y-194368042D01*
X52009480Y-194403125D01*
X51972309Y-194435238D01*
X51918269Y-194442354D01*
X51896910Y-194436999D01*
X51878146Y-194415596D01*
X51873508Y-194368042D01*
X51875040Y-194335393D01*
X51887384Y-194305151D01*
X51918269Y-194293731D01*
X51950247Y-194294523D01*
G37*
G36*
X53510526Y-193575749D02*
G01*
X53530039Y-193612750D01*
X53529666Y-193665220D01*
X53504952Y-193707588D01*
X53492611Y-193715408D01*
X53445025Y-193721864D01*
X53397795Y-193704930D01*
X53368986Y-193669648D01*
X53364856Y-193634645D01*
X53382410Y-193589009D01*
X53419569Y-193559317D01*
X53465789Y-193552566D01*
X53510526Y-193575749D01*
G37*
G36*
X54056911Y-196528919D02*
G01*
X54085882Y-196554062D01*
X54104061Y-196575539D01*
X54116397Y-196601223D01*
X54116043Y-196604818D01*
X54097745Y-196635609D01*
X54063903Y-196665485D01*
X54031509Y-196678899D01*
X54024055Y-196678491D01*
X53985033Y-196658887D01*
X53965444Y-196620258D01*
X53968798Y-196577035D01*
X53998607Y-196543649D01*
X54032133Y-196527585D01*
X54056911Y-196528919D01*
G37*
G36*
X52553860Y-194894015D02*
G01*
X52577240Y-194908690D01*
X52582300Y-194948533D01*
X52574906Y-194989555D01*
X52553171Y-195015890D01*
X52514506Y-195021441D01*
X52479019Y-194999288D01*
X52465786Y-194948533D01*
X52467508Y-194919780D01*
X52482725Y-194897233D01*
X52524043Y-194892354D01*
X52553860Y-194894015D01*
G37*
G36*
X52352290Y-193577297D02*
G01*
X52385498Y-193605347D01*
X52387112Y-193608412D01*
X52392492Y-193653414D01*
X52371281Y-193691649D01*
X52331548Y-193707798D01*
X52293368Y-193697088D01*
X52263093Y-193660758D01*
X52261591Y-193611635D01*
X52272412Y-193592763D01*
X52309024Y-193573385D01*
X52352290Y-193577297D01*
G37*
G36*
X52166090Y-195422178D02*
G01*
X52196371Y-195439385D01*
X52203208Y-195451955D01*
X52212745Y-195484633D01*
X52208631Y-195508996D01*
X52178118Y-195541996D01*
X52123847Y-195549299D01*
X52098787Y-195545049D01*
X52073497Y-195527062D01*
X52067697Y-195484633D01*
X52069037Y-195458479D01*
X52083590Y-195430579D01*
X52123847Y-195419966D01*
X52166090Y-195422178D01*
G37*
G36*
X53688447Y-193571472D02*
G01*
X53719626Y-193602476D01*
X53724888Y-193649156D01*
X53697503Y-193696701D01*
X53658540Y-193722021D01*
X53616009Y-193719887D01*
X53584797Y-193686961D01*
X53572667Y-193627547D01*
X53573173Y-193617459D01*
X53592784Y-193574327D01*
X53634246Y-193557527D01*
X53688447Y-193571472D01*
G37*
G36*
X54261502Y-192069376D02*
G01*
X54285280Y-192093158D01*
X54288763Y-192132162D01*
X54272372Y-192169567D01*
X54239080Y-192189442D01*
X54213005Y-192188128D01*
X54179155Y-192164991D01*
X54167687Y-192126926D01*
X54185789Y-192087663D01*
X54208581Y-192066004D01*
X54229242Y-192058940D01*
X54261502Y-192069376D01*
G37*
G36*
X51781992Y-192447838D02*
G01*
X51809655Y-192466089D01*
X51827201Y-192505918D01*
X51820790Y-192550180D01*
X51793295Y-192586104D01*
X51747584Y-192600917D01*
X51693048Y-192588571D01*
X51659546Y-192551715D01*
X51657518Y-192496685D01*
X51675800Y-192461092D01*
X51720226Y-192438892D01*
X51781992Y-192447838D01*
G37*
G36*
X54085882Y-192670270D02*
G01*
X54104061Y-192691747D01*
X54116397Y-192717431D01*
X54114989Y-192723568D01*
X54096440Y-192752107D01*
X54068272Y-192781555D01*
X54045767Y-192795107D01*
X54011766Y-192783774D01*
X53976628Y-192753901D01*
X53961046Y-192720631D01*
X53966974Y-192686679D01*
X53996242Y-192651595D01*
X54039734Y-192644569D01*
X54085882Y-192670270D01*
G37*
G36*
X51980312Y-197649847D02*
G01*
X51988133Y-197654814D01*
X52014435Y-197694248D01*
X52015576Y-197743662D01*
X51990273Y-197785570D01*
X51962874Y-197797878D01*
X51912598Y-197797287D01*
X51902227Y-197794319D01*
X51871811Y-197772599D01*
X51863798Y-197727836D01*
X51865115Y-197709836D01*
X51887044Y-197661671D01*
X51928630Y-197639542D01*
X51980312Y-197649847D01*
G37*
G36*
X53507353Y-194686786D02*
G01*
X53526356Y-194707241D01*
X53530214Y-194761143D01*
X53523304Y-194801047D01*
X53503512Y-194820485D01*
X53458269Y-194824388D01*
X53431464Y-194822344D01*
X53382100Y-194802490D01*
X53359972Y-194766945D01*
X53370850Y-194722438D01*
X53396703Y-194697998D01*
X53450415Y-194680387D01*
X53507353Y-194686786D01*
G37*
G36*
X53498130Y-196195105D02*
G01*
X53501638Y-196197165D01*
X53528068Y-196233503D01*
X53531615Y-196282415D01*
X53510526Y-196325473D01*
X53473525Y-196344986D01*
X53421055Y-196344614D01*
X53378686Y-196319900D01*
X53360705Y-196278776D01*
X53369878Y-196234635D01*
X53401391Y-196200176D01*
X53446917Y-196184100D01*
X53498130Y-196195105D01*
G37*
G36*
X51950247Y-198760884D02*
G01*
X51991090Y-198777033D01*
X51996833Y-198782184D01*
X52020256Y-198825312D01*
X52013270Y-198868504D01*
X51981271Y-198900184D01*
X51929657Y-198908779D01*
X51895528Y-198901658D01*
X51877391Y-198880875D01*
X51873508Y-198834403D01*
X51875040Y-198801754D01*
X51887384Y-198771512D01*
X51918269Y-198760091D01*
X51950247Y-198760884D01*
G37*
G36*
X52185280Y-197670153D02*
G01*
X52192774Y-197677106D01*
X52211738Y-197718675D01*
X52197229Y-197760024D01*
X52152115Y-197790717D01*
X52145130Y-197792843D01*
X52101226Y-197787167D01*
X52069303Y-197754994D01*
X52060998Y-197707015D01*
X52064830Y-197692462D01*
X52094398Y-197659906D01*
X52139357Y-197651043D01*
X52185280Y-197670153D01*
G37*
G36*
X53699142Y-197319934D02*
G01*
X53713969Y-197336103D01*
X53727429Y-197382870D01*
X53711683Y-197428920D01*
X53669761Y-197459831D01*
X53623071Y-197460255D01*
X53586848Y-197430444D01*
X53572667Y-197377668D01*
X53572978Y-197365433D01*
X53584995Y-197326763D01*
X53621466Y-197308216D01*
X53657171Y-197305428D01*
X53699142Y-197319934D01*
G37*
G36*
X53510526Y-195420550D02*
G01*
X53530039Y-195457551D01*
X53529666Y-195510021D01*
X53504952Y-195552390D01*
X53492611Y-195560210D01*
X53445025Y-195566665D01*
X53397795Y-195549731D01*
X53368986Y-195514449D01*
X53364856Y-195479446D01*
X53382410Y-195433810D01*
X53419569Y-195404119D01*
X53465789Y-195397367D01*
X53510526Y-195420550D01*
G37*
G36*
X53510526Y-195090428D02*
G01*
X53529391Y-195118883D01*
X53532268Y-195165784D01*
X53509769Y-195207293D01*
X53468891Y-195232869D01*
X53416627Y-195231968D01*
X53403659Y-195225861D01*
X53373694Y-195189198D01*
X53363690Y-195139889D01*
X53378686Y-195096001D01*
X53413594Y-195073448D01*
X53465880Y-195069392D01*
X53510526Y-195090428D01*
G37*
G36*
X52554472Y-199560426D02*
G01*
X52573200Y-199577464D01*
X52578745Y-199625615D01*
X52577027Y-199637664D01*
X52561358Y-199670613D01*
X52524043Y-199679128D01*
X52513070Y-199678762D01*
X52481672Y-199665668D01*
X52469340Y-199625615D01*
X52474455Y-199582495D01*
X52504701Y-199555866D01*
X52554472Y-199560426D01*
G37*
G36*
X51950247Y-192838101D02*
G01*
X51991090Y-192854250D01*
X52005144Y-192870528D01*
X52019150Y-192911620D01*
X52009480Y-192946703D01*
X51972309Y-192978816D01*
X51918269Y-192985932D01*
X51896910Y-192980577D01*
X51878146Y-192959174D01*
X51873508Y-192911620D01*
X51875040Y-192878971D01*
X51887384Y-192848729D01*
X51918269Y-192837308D01*
X51950247Y-192838101D01*
G37*
G36*
X52348042Y-192839317D02*
G01*
X52377013Y-192864460D01*
X52395192Y-192885937D01*
X52407529Y-192911620D01*
X52407175Y-192915215D01*
X52388877Y-192946007D01*
X52355035Y-192975883D01*
X52322640Y-192989296D01*
X52315186Y-192988888D01*
X52276164Y-192969284D01*
X52256575Y-192930656D01*
X52259930Y-192887433D01*
X52289739Y-192854047D01*
X52323265Y-192837983D01*
X52348042Y-192839317D01*
G37*
G36*
X52185280Y-195825351D02*
G01*
X52192774Y-195832305D01*
X52211738Y-195873873D01*
X52197229Y-195915223D01*
X52152115Y-195945915D01*
X52145130Y-195948042D01*
X52101226Y-195942366D01*
X52069303Y-195910193D01*
X52060998Y-195862214D01*
X52064830Y-195847661D01*
X52094398Y-195815105D01*
X52139357Y-195806242D01*
X52185280Y-195825351D01*
G37*
G36*
X52190037Y-192857247D02*
G01*
X52200744Y-192870049D01*
X52213647Y-192914424D01*
X52197725Y-192954578D01*
X52159823Y-192980301D01*
X52106787Y-192981385D01*
X52072037Y-192964223D01*
X52057988Y-192924844D01*
X52068906Y-192877813D01*
X52101796Y-192843132D01*
X52145860Y-192834389D01*
X52190037Y-192857247D01*
G37*
G36*
X51801657Y-198974220D02*
G01*
X51820522Y-199002676D01*
X51823399Y-199049576D01*
X51800901Y-199091085D01*
X51760022Y-199116661D01*
X51707758Y-199115760D01*
X51694790Y-199109653D01*
X51664826Y-199072990D01*
X51654821Y-199023682D01*
X51669818Y-198979793D01*
X51704725Y-198957240D01*
X51757012Y-198953184D01*
X51801657Y-198974220D01*
G37*
G36*
X53510526Y-195614740D02*
G01*
X53523312Y-195634259D01*
X53533829Y-195678822D01*
X53527143Y-195713992D01*
X53497147Y-195751420D01*
X53453919Y-195767024D01*
X53409534Y-195757642D01*
X53376063Y-195720116D01*
X53367121Y-195670216D01*
X53384281Y-195625180D01*
X53420085Y-195596077D01*
X53465258Y-195590174D01*
X53510526Y-195614740D01*
G37*
G36*
X53659116Y-194488713D02*
G01*
X53699959Y-194504862D01*
X53714013Y-194521140D01*
X53728018Y-194562232D01*
X53718349Y-194597315D01*
X53681178Y-194629428D01*
X53627138Y-194636544D01*
X53605779Y-194631188D01*
X53587014Y-194609786D01*
X53582376Y-194562232D01*
X53583909Y-194529583D01*
X53596252Y-194499341D01*
X53627138Y-194487920D01*
X53659116Y-194488713D01*
G37*
G36*
X52381972Y-196224153D02*
G01*
X52401513Y-196251818D01*
X52405551Y-196270491D01*
X52395742Y-196298641D01*
X52372208Y-196320831D01*
X52329017Y-196329372D01*
X52285032Y-196321579D01*
X52258187Y-196297589D01*
X52253538Y-196267602D01*
X52269771Y-196228032D01*
X52304313Y-196203018D01*
X52345576Y-196199433D01*
X52381972Y-196224153D01*
G37*
G36*
X50222230Y-191970898D02*
G01*
X50338597Y-192008124D01*
X50431070Y-192075560D01*
X50500885Y-192173960D01*
X50526416Y-192240281D01*
X50539971Y-192342100D01*
X50527095Y-192440707D01*
X50488259Y-192523056D01*
X50468373Y-192550630D01*
X50449747Y-192583506D01*
X50455408Y-192597799D01*
X50485052Y-192600917D01*
X50487842Y-192600950D01*
X50510797Y-192607870D01*
X50521349Y-192633693D01*
X50523890Y-192688302D01*
X50523890Y-192775688D01*
X49378171Y-192775688D01*
X49378171Y-192600917D01*
X49780687Y-192600917D01*
X49734781Y-192510241D01*
X49704213Y-192428858D01*
X49698831Y-192374085D01*
X49833334Y-192374085D01*
X49856285Y-192457692D01*
X49862378Y-192469056D01*
X49905845Y-192526315D01*
X49956661Y-192568634D01*
X50023287Y-192595197D01*
X50117722Y-192605525D01*
X50212672Y-192591703D01*
X50296520Y-192555732D01*
X50357650Y-192499612D01*
X50364458Y-192487685D01*
X50381319Y-192432264D01*
X50387957Y-192365058D01*
X50385876Y-192330198D01*
X50357305Y-192241855D01*
X50297548Y-192175134D01*
X50209582Y-192133891D01*
X50120029Y-192121515D01*
X50026413Y-192134157D01*
X49945760Y-192170479D01*
X49883247Y-192225735D01*
X49844046Y-192295185D01*
X49833334Y-192374085D01*
X49698831Y-192374085D01*
X49693108Y-192315836D01*
X49715163Y-192207518D01*
X49767580Y-192110732D01*
X49847562Y-192032312D01*
X49952310Y-191979088D01*
X50000009Y-191969227D01*
X50075546Y-191962954D01*
X50120029Y-191963224D01*
X50155866Y-191963442D01*
X50222230Y-191970898D01*
G37*
G36*
X53659116Y-196527704D02*
G01*
X53699959Y-196543853D01*
X53714013Y-196560131D01*
X53728018Y-196601223D01*
X53718349Y-196636306D01*
X53681178Y-196668418D01*
X53627138Y-196675534D01*
X53605779Y-196670179D01*
X53587014Y-196648776D01*
X53582376Y-196601223D01*
X53583909Y-196568574D01*
X53596252Y-196538332D01*
X53627138Y-196526911D01*
X53659116Y-196527704D01*
G37*
G36*
X52370515Y-196937941D02*
G01*
X52393000Y-196965328D01*
X52392409Y-197009575D01*
X52369724Y-197050517D01*
X52331548Y-197067278D01*
X52293368Y-197056568D01*
X52263093Y-197020238D01*
X52261591Y-196971115D01*
X52262510Y-196968499D01*
X52289334Y-196940228D01*
X52330648Y-196929808D01*
X52370515Y-196937941D01*
G37*
G36*
X53680769Y-192062698D02*
G01*
X53711050Y-192079905D01*
X53727550Y-192129086D01*
X53714849Y-192175059D01*
X53676752Y-192203352D01*
X53620285Y-192204330D01*
X53596355Y-192196391D01*
X53576982Y-192174448D01*
X53576341Y-192129341D01*
X53580644Y-192100586D01*
X53598207Y-192071489D01*
X53638526Y-192060486D01*
X53680769Y-192062698D01*
G37*
G36*
X51980312Y-199552905D02*
G01*
X52001348Y-199569420D01*
X52019282Y-199612370D01*
X52008907Y-199658112D01*
X51971177Y-199692109D01*
X51927517Y-199704061D01*
X51893502Y-199689315D01*
X51890742Y-199686938D01*
X51864906Y-199644491D01*
X51867512Y-199599545D01*
X51891993Y-199562420D01*
X51931782Y-199543433D01*
X51980312Y-199552905D01*
G37*
G36*
X53510526Y-194896238D02*
G01*
X53517398Y-194904117D01*
X53533989Y-194949948D01*
X53524317Y-194996036D01*
X53490860Y-195026015D01*
X53443212Y-195035735D01*
X53393863Y-195021134D01*
X53366387Y-194977167D01*
X53363650Y-194953146D01*
X53379611Y-194906892D01*
X53417079Y-194877684D01*
X53464551Y-194871980D01*
X53510526Y-194896238D01*
G37*
G36*
X52941550Y-192277817D02*
G01*
X52950733Y-192282995D01*
X52968574Y-192315041D01*
X52965415Y-192354110D01*
X52941303Y-192380381D01*
X52905720Y-192379281D01*
X52869900Y-192354229D01*
X52854165Y-192316355D01*
X52863562Y-192292572D01*
X52897533Y-192274265D01*
X52941550Y-192277817D01*
G37*
G36*
X52381972Y-192087914D02*
G01*
X52401513Y-192115580D01*
X52405551Y-192134253D01*
X52395742Y-192162402D01*
X52372208Y-192184593D01*
X52329017Y-192193134D01*
X52285032Y-192185341D01*
X52258187Y-192161351D01*
X52253538Y-192131363D01*
X52269771Y-192091794D01*
X52304313Y-192066779D01*
X52345576Y-192063195D01*
X52381972Y-192087914D01*
G37*
G36*
X52553171Y-196938367D02*
G01*
X52571586Y-196956105D01*
X52582300Y-196996624D01*
X52575294Y-197029641D01*
X52543493Y-197057774D01*
X52494914Y-197054881D01*
X52476500Y-197037144D01*
X52465786Y-196996624D01*
X52472791Y-196963607D01*
X52504592Y-196935475D01*
X52553171Y-196938367D01*
G37*
G36*
X53494257Y-195998842D02*
G01*
X53517115Y-196016818D01*
X53534668Y-196059028D01*
X53525946Y-196104088D01*
X53494765Y-196139955D01*
X53444937Y-196154587D01*
X53400298Y-196143001D01*
X53368606Y-196104836D01*
X53366644Y-196049329D01*
X53392049Y-196006105D01*
X53438722Y-195986390D01*
X53494257Y-195998842D01*
G37*
G36*
X51950247Y-198430762D02*
G01*
X51991090Y-198446911D01*
X52005144Y-198463189D01*
X52019150Y-198504281D01*
X52009480Y-198539364D01*
X51972309Y-198571476D01*
X51918269Y-198578593D01*
X51896910Y-198573237D01*
X51878146Y-198551835D01*
X51873508Y-198504281D01*
X51875040Y-198471632D01*
X51887384Y-198441390D01*
X51918269Y-198429969D01*
X51950247Y-198430762D01*
G37*
G36*
X53507353Y-196531587D02*
G01*
X53526356Y-196552042D01*
X53530214Y-196605944D01*
X53523304Y-196645848D01*
X53503512Y-196665286D01*
X53458269Y-196669189D01*
X53431464Y-196667146D01*
X53382100Y-196647291D01*
X53359972Y-196611746D01*
X53370850Y-196567240D01*
X53396703Y-196542799D01*
X53450415Y-196525188D01*
X53507353Y-196531587D01*
G37*
G36*
X52352722Y-195809452D02*
G01*
X52386555Y-195839029D01*
X52400777Y-195865634D01*
X52404014Y-195892063D01*
X52384226Y-195917675D01*
X52376416Y-195924471D01*
X52332326Y-195940715D01*
X52288597Y-195932228D01*
X52261591Y-195901208D01*
X52258481Y-195868120D01*
X52276989Y-195829817D01*
X52312301Y-195808321D01*
X52352722Y-195809452D01*
G37*
G36*
X52190037Y-198449908D02*
G01*
X52203953Y-198466247D01*
X52211507Y-198498550D01*
X52193237Y-198544395D01*
X52165631Y-198574485D01*
X52126695Y-198581646D01*
X52090297Y-198563837D01*
X52066633Y-198526582D01*
X52065899Y-198475405D01*
X52069706Y-198464296D01*
X52100925Y-198432314D01*
X52145865Y-198426526D01*
X52190037Y-198449908D01*
G37*
G36*
X52747361Y-199565301D02*
G01*
X52765164Y-199581452D01*
X52776489Y-199620871D01*
X52769399Y-199652343D01*
X52737339Y-199679400D01*
X52689104Y-199676441D01*
X52671300Y-199660290D01*
X52659975Y-199620871D01*
X52667066Y-199589399D01*
X52699125Y-199562342D01*
X52747361Y-199565301D01*
G37*
G36*
X52748723Y-192860908D02*
G01*
X52765943Y-192875426D01*
X52772996Y-192916388D01*
X52758236Y-192949495D01*
X52718232Y-192960168D01*
X52680232Y-192951096D01*
X52663468Y-192916388D01*
X52669292Y-192879850D01*
X52700647Y-192856586D01*
X52748723Y-192860908D01*
G37*
G36*
X51797244Y-194492120D02*
G01*
X51802215Y-194494699D01*
X51820704Y-194525579D01*
X51823124Y-194572163D01*
X51807991Y-194617189D01*
X51787557Y-194632257D01*
X51743258Y-194636468D01*
X51695730Y-194623641D01*
X51661957Y-194596215D01*
X51652780Y-194572930D01*
X51660707Y-194532070D01*
X51693480Y-194500324D01*
X51742018Y-194484679D01*
X51797244Y-194492120D01*
G37*
G36*
X52959099Y-198996379D02*
G01*
X52967933Y-199030245D01*
X52952861Y-199064341D01*
X52917190Y-199083357D01*
X52889006Y-199081917D01*
X52861132Y-199057577D01*
X52858593Y-199048016D01*
X52867924Y-199009741D01*
X52899233Y-198983334D01*
X52939129Y-198981803D01*
X52959099Y-198996379D01*
G37*
G36*
X54263340Y-193579386D02*
G01*
X54282068Y-193596424D01*
X54287614Y-193644576D01*
X54285896Y-193656625D01*
X54270227Y-193689573D01*
X54232911Y-193698088D01*
X54221938Y-193697722D01*
X54190540Y-193684628D01*
X54178209Y-193644576D01*
X54183323Y-193601455D01*
X54213570Y-193574827D01*
X54263340Y-193579386D01*
G37*
G36*
X52182824Y-195097640D02*
G01*
X52199151Y-195117089D01*
X52211364Y-195161823D01*
X52185280Y-195202171D01*
X52171115Y-195211633D01*
X52124424Y-195220986D01*
X52082879Y-195205076D01*
X52061352Y-195168006D01*
X52066878Y-195112601D01*
X52095398Y-195078576D01*
X52137270Y-195071722D01*
X52182824Y-195097640D01*
G37*
G36*
X52554472Y-195618377D02*
G01*
X52573200Y-195635415D01*
X52578745Y-195683566D01*
X52577027Y-195695615D01*
X52561358Y-195728564D01*
X52524043Y-195737079D01*
X52513070Y-195736713D01*
X52481672Y-195723619D01*
X52469340Y-195683566D01*
X52474455Y-195640446D01*
X52504701Y-195613817D01*
X52554472Y-195618377D01*
G37*
G36*
X51801657Y-196741039D02*
G01*
X51808529Y-196748919D01*
X51825121Y-196794750D01*
X51815448Y-196840837D01*
X51781992Y-196870816D01*
X51734344Y-196880536D01*
X51684994Y-196865935D01*
X51657518Y-196821968D01*
X51654781Y-196797947D01*
X51670742Y-196751693D01*
X51708210Y-196722485D01*
X51755683Y-196716781D01*
X51801657Y-196741039D01*
G37*
G36*
X51801657Y-195420550D02*
G01*
X51821170Y-195457551D01*
X51820798Y-195510021D01*
X51796084Y-195552390D01*
X51783743Y-195560210D01*
X51736157Y-195566665D01*
X51688926Y-195549731D01*
X51660117Y-195514449D01*
X51655988Y-195479446D01*
X51673542Y-195433810D01*
X51710700Y-195404119D01*
X51756920Y-195397367D01*
X51801657Y-195420550D01*
G37*
G36*
X50161511Y-192944117D02*
G01*
X50286463Y-192970566D01*
X50390334Y-193027265D01*
X50469827Y-193111942D01*
X50521646Y-193222324D01*
X50533724Y-193283557D01*
X50535081Y-193392113D01*
X50517227Y-193501667D01*
X50482115Y-193593874D01*
X50449722Y-193647324D01*
X50420641Y-193676312D01*
X50390843Y-193676718D01*
X50351931Y-193652311D01*
X50306196Y-193617164D01*
X50347076Y-193537031D01*
X50374358Y-193466409D01*
X50386371Y-193365964D01*
X50369036Y-193271997D01*
X50324235Y-193192604D01*
X50253847Y-193135881D01*
X50250712Y-193134275D01*
X50205408Y-193114117D01*
X50175313Y-193105810D01*
X50174686Y-193105889D01*
X50166126Y-193127582D01*
X50159942Y-193187147D01*
X50156192Y-193283738D01*
X50154930Y-193416513D01*
X50154930Y-193727217D01*
X50072399Y-193726790D01*
X49981960Y-193713982D01*
X49882916Y-193672997D01*
X49796660Y-193610141D01*
X49731853Y-193531921D01*
X49697153Y-193444844D01*
X49693822Y-193424988D01*
X49692778Y-193345842D01*
X49843050Y-193345842D01*
X49857329Y-193426951D01*
X49900989Y-193495683D01*
X49913282Y-193507324D01*
X49956045Y-193539517D01*
X49988375Y-193552446D01*
X50001051Y-193548006D01*
X50010179Y-193529631D01*
X50015645Y-193491089D01*
X50018301Y-193426161D01*
X50018997Y-193328629D01*
X50018997Y-193104813D01*
X49961069Y-193134768D01*
X49958544Y-193136098D01*
X49895453Y-193189631D01*
X49856357Y-193263141D01*
X49843050Y-193345842D01*
X49692778Y-193345842D01*
X49692125Y-193296368D01*
X49724137Y-193181118D01*
X49786171Y-193083668D01*
X49874538Y-193008447D01*
X49985549Y-192959887D01*
X50018997Y-192955391D01*
X50115515Y-192942416D01*
X50161511Y-192944117D01*
G37*
G36*
X52370515Y-198782742D02*
G01*
X52393000Y-198810129D01*
X52392409Y-198854377D01*
X52369724Y-198895318D01*
X52331548Y-198912079D01*
X52293368Y-198901369D01*
X52263093Y-198865040D01*
X52261591Y-198815916D01*
X52262510Y-198813301D01*
X52289334Y-198785029D01*
X52330648Y-198774609D01*
X52370515Y-198782742D01*
G37*
G36*
X53084288Y-192041614D02*
G01*
X53122147Y-192061070D01*
X53137650Y-192090561D01*
X53145449Y-192139226D01*
X53134603Y-192186054D01*
X53095631Y-192213021D01*
X53083895Y-192216965D01*
X53026087Y-192219104D01*
X52985804Y-192191277D01*
X52970679Y-192138062D01*
X52975573Y-192098484D01*
X53004766Y-192053429D01*
X53058064Y-192037767D01*
X53084288Y-192041614D01*
G37*
G36*
X52942912Y-192666719D02*
G01*
X52960133Y-192681236D01*
X52967186Y-192722199D01*
X52952425Y-192755305D01*
X52912422Y-192765978D01*
X52874422Y-192756907D01*
X52857658Y-192722199D01*
X52863482Y-192685661D01*
X52894836Y-192662397D01*
X52942912Y-192666719D01*
G37*
G36*
X52182824Y-196942442D02*
G01*
X52208717Y-196987862D01*
X52201951Y-197029759D01*
X52167998Y-197058333D01*
X52112459Y-197063914D01*
X52097975Y-197059868D01*
X52067517Y-197030000D01*
X52059590Y-196985082D01*
X52078294Y-196939986D01*
X52094409Y-196924494D01*
X52136799Y-196914328D01*
X52182824Y-196942442D01*
G37*
G36*
X51797244Y-192647319D02*
G01*
X51802215Y-192649898D01*
X51820704Y-192680778D01*
X51823124Y-192727361D01*
X51807991Y-192772388D01*
X51787557Y-192787456D01*
X51743258Y-192791666D01*
X51695730Y-192778839D01*
X51661957Y-192751414D01*
X51652780Y-192728129D01*
X51660707Y-192687268D01*
X51693480Y-192655522D01*
X51742018Y-192639877D01*
X51797244Y-192647319D01*
G37*
G36*
X51785389Y-197649454D02*
G01*
X51787598Y-197650695D01*
X51817780Y-197687710D01*
X51823205Y-197737456D01*
X51801657Y-197781896D01*
X51799763Y-197783719D01*
X51754602Y-197803807D01*
X51705073Y-197797038D01*
X51669216Y-197765627D01*
X51660858Y-197745985D01*
X51659452Y-197693424D01*
X51685407Y-197654146D01*
X51730220Y-197636655D01*
X51785389Y-197649454D01*
G37*
G36*
X52959099Y-199190568D02*
G01*
X52967933Y-199224434D01*
X52952861Y-199258531D01*
X52917190Y-199277546D01*
X52889006Y-199276106D01*
X52861132Y-199251767D01*
X52858593Y-199242206D01*
X52867924Y-199203930D01*
X52899233Y-199177523D01*
X52939129Y-199175993D01*
X52959099Y-199190568D01*
G37*
G36*
X51785389Y-195804653D02*
G01*
X51787598Y-195805894D01*
X51817780Y-195842909D01*
X51823205Y-195892655D01*
X51801657Y-195937094D01*
X51799763Y-195938918D01*
X51754602Y-195959006D01*
X51705073Y-195952237D01*
X51669216Y-195920826D01*
X51660858Y-195901184D01*
X51659452Y-195848622D01*
X51685407Y-195809344D01*
X51730220Y-195791853D01*
X51785389Y-195804653D01*
G37*
G36*
X53891692Y-197330821D02*
G01*
X53917585Y-197376241D01*
X53910820Y-197418138D01*
X53876867Y-197446712D01*
X53821327Y-197452293D01*
X53795168Y-197441930D01*
X53771251Y-197407305D01*
X53771216Y-197363537D01*
X53797852Y-197325667D01*
X53826429Y-197307347D01*
X53857592Y-197304349D01*
X53891692Y-197330821D01*
G37*
G36*
X53298345Y-194483241D02*
G01*
X53329485Y-194513022D01*
X53341983Y-194560953D01*
X53328493Y-194608361D01*
X53289820Y-194640391D01*
X53277069Y-194644657D01*
X53219037Y-194646512D01*
X53179486Y-194617307D01*
X53164868Y-194561132D01*
X53167902Y-194535707D01*
X53195300Y-194490507D01*
X53242387Y-194470914D01*
X53298345Y-194483241D01*
G37*
G36*
X53894012Y-194504749D02*
G01*
X53908202Y-194521188D01*
X53922208Y-194562232D01*
X53921522Y-194573019D01*
X53901119Y-194614572D01*
X53861904Y-194634331D01*
X53816804Y-194629233D01*
X53778746Y-194596215D01*
X53768725Y-194569026D01*
X53777631Y-194528181D01*
X53808428Y-194498341D01*
X53850695Y-194487774D01*
X53894012Y-194504749D01*
G37*
G36*
X54085882Y-194515072D02*
G01*
X54104061Y-194536549D01*
X54116397Y-194562232D01*
X54114989Y-194568370D01*
X54096440Y-194596908D01*
X54068272Y-194626357D01*
X54045767Y-194639908D01*
X54011766Y-194628575D01*
X53976628Y-194598702D01*
X53961046Y-194565432D01*
X53966974Y-194531480D01*
X53996242Y-194496396D01*
X54039734Y-194489371D01*
X54085882Y-194515072D01*
G37*
G36*
X52370515Y-195093139D02*
G01*
X52393000Y-195120527D01*
X52392409Y-195164774D01*
X52369724Y-195205715D01*
X52331548Y-195222477D01*
X52293368Y-195211767D01*
X52263093Y-195175437D01*
X52261591Y-195126314D01*
X52262510Y-195123698D01*
X52289334Y-195095427D01*
X52330648Y-195085007D01*
X52370515Y-195093139D01*
G37*
G36*
X50523890Y-196251681D02*
G01*
X49957752Y-196251681D01*
X49900989Y-196308445D01*
X49872316Y-196340945D01*
X49849944Y-196388644D01*
X49844226Y-196454087D01*
X49844284Y-196461709D01*
X49854113Y-196533759D01*
X49883064Y-196581804D01*
X49885879Y-196584560D01*
X49904191Y-196598661D01*
X49929032Y-196608544D01*
X49966861Y-196614944D01*
X50024140Y-196618602D01*
X50107332Y-196620255D01*
X50222896Y-196620642D01*
X50523890Y-196620642D01*
X50523890Y-196798686D01*
X50198622Y-196792194D01*
X50080989Y-196789383D01*
X49987998Y-196785632D01*
X49921044Y-196780344D01*
X49873542Y-196772766D01*
X49838907Y-196762142D01*
X49810557Y-196747718D01*
X49780422Y-196726152D01*
X49723273Y-196655523D01*
X49694330Y-196568363D01*
X49694079Y-196472467D01*
X49723010Y-196375635D01*
X49781611Y-196285665D01*
X49796430Y-196267215D01*
X49794882Y-196254188D01*
X49759851Y-196251681D01*
X49743905Y-196251281D01*
X49720004Y-196243639D01*
X49710192Y-196218133D01*
X49708293Y-196164296D01*
X49708293Y-196076911D01*
X50523890Y-196076911D01*
X50523890Y-196251681D01*
G37*
G36*
X52554790Y-192660959D02*
G01*
X52577488Y-192676167D01*
X52582300Y-192717431D01*
X52580515Y-192748178D01*
X52565306Y-192770876D01*
X52524043Y-192775688D01*
X52493295Y-192773903D01*
X52470598Y-192758694D01*
X52465786Y-192717431D01*
X52467571Y-192686683D01*
X52482779Y-192663986D01*
X52524043Y-192659174D01*
X52554790Y-192660959D01*
G37*
G36*
X53659116Y-192643912D02*
G01*
X53699959Y-192660061D01*
X53714013Y-192676339D01*
X53728018Y-192717431D01*
X53718349Y-192752514D01*
X53681178Y-192784626D01*
X53627138Y-192791742D01*
X53605779Y-192786387D01*
X53587014Y-192764984D01*
X53582376Y-192717431D01*
X53583909Y-192684782D01*
X53596252Y-192654540D01*
X53627138Y-192643119D01*
X53659116Y-192643912D01*
G37*
G36*
X50523890Y-194834097D02*
G01*
X49708293Y-194834097D01*
X49708293Y-194659327D01*
X50523890Y-194659327D01*
X50523890Y-194834097D01*
G37*
G36*
X54671181Y-196955385D02*
G01*
X54677312Y-196990466D01*
X54661100Y-197025254D01*
X54626058Y-197044366D01*
X54611858Y-197045035D01*
X54577248Y-197029272D01*
X54567459Y-196995448D01*
X54588001Y-196956312D01*
X54611741Y-196940838D01*
X54650275Y-196938312D01*
X54671181Y-196955385D01*
G37*
G36*
X51801657Y-199168409D02*
G01*
X51803481Y-199170304D01*
X51823569Y-199215465D01*
X51816800Y-199264993D01*
X51785389Y-199300851D01*
X51765747Y-199309209D01*
X51713186Y-199310615D01*
X51673908Y-199284660D01*
X51656417Y-199239846D01*
X51669216Y-199184678D01*
X51670457Y-199182469D01*
X51707472Y-199152287D01*
X51757218Y-199146861D01*
X51801657Y-199168409D01*
G37*
G36*
X52554222Y-192458365D02*
G01*
X52572431Y-192474842D01*
X52578495Y-192520867D01*
X52577686Y-192526940D01*
X52561091Y-192563727D01*
X52519188Y-192577933D01*
X52490753Y-192579430D01*
X52470128Y-192566807D01*
X52465786Y-192526609D01*
X52474116Y-192483316D01*
X52505245Y-192454560D01*
X52554222Y-192458365D01*
G37*
G36*
X51801657Y-199362599D02*
G01*
X51821170Y-199399600D01*
X51820798Y-199452070D01*
X51796084Y-199494439D01*
X51783743Y-199502259D01*
X51736157Y-199508714D01*
X51688926Y-199491780D01*
X51660117Y-199456498D01*
X51655988Y-199421495D01*
X51673542Y-199375859D01*
X51710700Y-199346168D01*
X51756920Y-199339416D01*
X51801657Y-199362599D01*
G37*
G36*
X50967440Y-186774949D02*
G01*
X51066420Y-186825290D01*
X51087241Y-186840321D01*
X51151599Y-186886608D01*
X51207081Y-186926296D01*
X51282911Y-186970689D01*
X51418995Y-187018751D01*
X51586298Y-187047144D01*
X51786122Y-187056161D01*
X51842616Y-187055854D01*
X51934972Y-187053549D01*
X52008624Y-187047236D01*
X52077053Y-187034800D01*
X52153744Y-187014129D01*
X52252177Y-186983109D01*
X52307857Y-186965059D01*
X52472582Y-186911856D01*
X52606928Y-186869173D01*
X52715945Y-186835859D01*
X52804682Y-186810761D01*
X52878188Y-186792727D01*
X52941514Y-186780605D01*
X52999708Y-186773242D01*
X53057820Y-186769486D01*
X53120900Y-186768185D01*
X53193997Y-186768186D01*
X53194085Y-186768187D01*
X53323287Y-186770581D01*
X53426105Y-186777633D01*
X53514841Y-186790629D01*
X53601795Y-186810857D01*
X53641658Y-186822116D01*
X53822604Y-186887218D01*
X53986587Y-186969142D01*
X54129233Y-187064602D01*
X54246166Y-187170313D01*
X54333014Y-187282988D01*
X54385400Y-187399344D01*
X54389600Y-187431162D01*
X54393512Y-187497710D01*
X54396898Y-187594147D01*
X54399760Y-187716432D01*
X54402104Y-187860522D01*
X54403933Y-188022373D01*
X54405251Y-188197943D01*
X54406063Y-188383190D01*
X54406373Y-188574071D01*
X54406186Y-188766544D01*
X54405505Y-188956565D01*
X54404334Y-189140092D01*
X54402678Y-189313082D01*
X54400541Y-189471493D01*
X54397928Y-189611282D01*
X54394842Y-189728406D01*
X54391287Y-189818823D01*
X54387269Y-189878490D01*
X54382791Y-189903364D01*
X54362720Y-189924688D01*
X54300014Y-189963837D01*
X54232694Y-189979357D01*
X54229893Y-189979290D01*
X54179798Y-189960845D01*
X54130355Y-189918072D01*
X54092597Y-189863144D01*
X54077560Y-189808232D01*
X54068134Y-189758360D01*
X54040414Y-189704788D01*
X54010978Y-189677063D01*
X53970471Y-189663136D01*
X53906117Y-189660328D01*
X53886914Y-189660997D01*
X53834276Y-189667426D01*
X53778335Y-189682156D01*
X53715702Y-189707169D01*
X53642985Y-189744444D01*
X53556796Y-189795962D01*
X53453745Y-189863702D01*
X53330441Y-189949645D01*
X53183495Y-190055771D01*
X53009517Y-190184059D01*
X52915745Y-190251482D01*
X52688578Y-190395465D01*
X52472872Y-190503733D01*
X52269034Y-190576229D01*
X52077471Y-190612897D01*
X51898587Y-190613682D01*
X51732790Y-190578528D01*
X51580486Y-190507377D01*
X51442080Y-190400175D01*
X51406165Y-190366974D01*
X51370112Y-190340451D01*
X51342323Y-190334350D01*
X51312029Y-190344023D01*
X51275477Y-190366319D01*
X51232004Y-190419004D01*
X51202033Y-190498654D01*
X51182901Y-190610772D01*
X51179198Y-190640272D01*
X51152271Y-190762043D01*
X51104895Y-190872623D01*
X51050223Y-190961202D01*
X50978397Y-191053062D01*
X50899684Y-191134954D01*
X50820533Y-191200890D01*
X50747394Y-191244880D01*
X50686715Y-191260936D01*
X50668068Y-191258927D01*
X50610896Y-191232188D01*
X50561644Y-191183506D01*
X50533498Y-191124613D01*
X50525858Y-191100156D01*
X50506592Y-191068470D01*
X50472557Y-191034703D01*
X50418842Y-190994876D01*
X50340532Y-190945013D01*
X50232715Y-190881137D01*
X50063131Y-190766976D01*
X49920635Y-190634142D01*
X49813240Y-190486808D01*
X49740124Y-190324044D01*
X49737961Y-190318653D01*
X49726295Y-190306055D01*
X49701699Y-190297761D01*
X49657699Y-190292907D01*
X49587819Y-190290628D01*
X49485585Y-190290061D01*
X49407875Y-190289367D01*
X49317147Y-190285726D01*
X49261289Y-190279109D01*
X49242238Y-190269677D01*
X49243062Y-190259091D01*
X49265903Y-190201749D01*
X49315425Y-190133560D01*
X49385375Y-190060537D01*
X49469495Y-189988694D01*
X49561532Y-189924047D01*
X49655231Y-189872608D01*
X49692333Y-189854885D01*
X49759665Y-189817079D01*
X49803356Y-189780425D01*
X49832940Y-189737686D01*
X49858937Y-189698009D01*
X49908292Y-189637673D01*
X49964638Y-189579501D01*
X49976251Y-189568864D01*
X50107692Y-189473989D01*
X50265110Y-189402653D01*
X50450698Y-189354067D01*
X50666650Y-189327444D01*
X50713376Y-189323462D01*
X50834210Y-189303899D01*
X50943537Y-189269516D01*
X51045019Y-189217264D01*
X51142321Y-189144092D01*
X51239107Y-189046949D01*
X51339041Y-188922785D01*
X51445787Y-188768550D01*
X51563009Y-188581192D01*
X51649460Y-188444384D01*
X51810302Y-188223930D01*
X51981702Y-188033841D01*
X52169451Y-187868680D01*
X52379340Y-187723008D01*
X52617160Y-187591389D01*
X52664805Y-187568152D01*
X52861847Y-187484317D01*
X53041534Y-187429555D01*
X53208785Y-187402293D01*
X53290359Y-187391734D01*
X53347277Y-187374161D01*
X53388410Y-187346180D01*
X53395443Y-187339311D01*
X53431021Y-187279339D01*
X53429348Y-187215489D01*
X53390356Y-187154303D01*
X53385587Y-187149694D01*
X53333761Y-187115358D01*
X53263250Y-187094837D01*
X53167810Y-187086993D01*
X53041195Y-187090686D01*
X52942642Y-187101601D01*
X52841988Y-187123828D01*
X52735275Y-187159659D01*
X52616259Y-187211529D01*
X52478692Y-187281871D01*
X52316328Y-187373118D01*
X52275182Y-187396815D01*
X52111056Y-187487165D01*
X51967085Y-187557812D01*
X51834611Y-187611991D01*
X51704976Y-187652936D01*
X51569519Y-187683881D01*
X51419584Y-187708059D01*
X51384748Y-187712539D01*
X51222075Y-187723626D01*
X51084291Y-187712932D01*
X50964097Y-187678532D01*
X50854195Y-187618504D01*
X50747286Y-187530925D01*
X50706129Y-187489609D01*
X50612946Y-187367349D01*
X50556768Y-187238550D01*
X50536322Y-187100616D01*
X50537872Y-187027761D01*
X50549989Y-186965047D01*
X50576421Y-186910422D01*
X50589717Y-186890683D01*
X50665325Y-186816980D01*
X50758846Y-186772192D01*
X50862233Y-186757715D01*
X50967440Y-186774949D01*
G37*
G36*
X51789262Y-198039906D02*
G01*
X51792770Y-198041966D01*
X51819200Y-198078304D01*
X51822746Y-198127216D01*
X51801657Y-198170275D01*
X51764656Y-198189788D01*
X51712186Y-198189415D01*
X51669818Y-198164701D01*
X51651836Y-198123577D01*
X51661009Y-198079436D01*
X51692522Y-198044978D01*
X51738048Y-198028901D01*
X51789262Y-198039906D01*
G37*
G36*
X51789262Y-196195105D02*
G01*
X51792770Y-196197165D01*
X51819200Y-196233503D01*
X51822746Y-196282415D01*
X51801657Y-196325473D01*
X51764656Y-196344986D01*
X51712186Y-196344614D01*
X51669818Y-196319900D01*
X51651836Y-196278776D01*
X51661009Y-196234635D01*
X51692522Y-196200176D01*
X51738048Y-196184100D01*
X51789262Y-196195105D01*
G37*
G36*
X52543655Y-196009030D02*
G01*
X52574390Y-196030917D01*
X52578574Y-196073723D01*
X52569294Y-196103096D01*
X52538559Y-196130130D01*
X52500184Y-196130252D01*
X52467852Y-196100191D01*
X52460427Y-196080488D01*
X52465402Y-196037260D01*
X52495381Y-196009352D01*
X52541216Y-196008232D01*
X52543655Y-196009030D01*
G37*
G36*
X52554472Y-193385197D02*
G01*
X52573200Y-193402234D01*
X52578745Y-193450386D01*
X52577027Y-193462435D01*
X52561358Y-193495384D01*
X52524043Y-193503899D01*
X52513070Y-193503532D01*
X52481672Y-193490438D01*
X52469340Y-193450386D01*
X52474455Y-193407265D01*
X52504701Y-193380637D01*
X52554472Y-193385197D01*
G37*
%TO.C,leddirectionarrow4*%
G36*
X52264541Y-40215406D02*
G01*
X52264810Y-40215550D01*
X52269899Y-40219724D01*
X52280193Y-40229159D01*
X52295433Y-40243599D01*
X52315357Y-40262788D01*
X52339707Y-40286471D01*
X52368222Y-40314393D01*
X52400642Y-40346296D01*
X52436708Y-40381927D01*
X52476160Y-40421028D01*
X52518737Y-40463345D01*
X52564180Y-40508622D01*
X52612229Y-40556602D01*
X52662624Y-40607031D01*
X52713141Y-40657624D01*
X52762775Y-40707326D01*
X52807404Y-40752038D01*
X52847289Y-40792047D01*
X52882691Y-40827642D01*
X52913870Y-40859108D01*
X52941086Y-40886736D01*
X52964600Y-40910811D01*
X52984672Y-40931622D01*
X53001562Y-40949457D01*
X53015532Y-40964603D01*
X53026840Y-40977348D01*
X53035749Y-40987980D01*
X53042517Y-40996786D01*
X53047406Y-41004055D01*
X53050676Y-41010073D01*
X53052588Y-41015129D01*
X53053400Y-41019511D01*
X53053375Y-41023506D01*
X53052773Y-41027401D01*
X53051853Y-41031486D01*
X53050876Y-41036046D01*
X53050370Y-41038299D01*
X53043713Y-41053330D01*
X53032749Y-41067746D01*
X53019900Y-41078244D01*
X53015519Y-41079471D01*
X53006464Y-41080570D01*
X52992316Y-41081539D01*
X52972620Y-41082394D01*
X52946925Y-41083151D01*
X52914777Y-41083826D01*
X52875723Y-41084434D01*
X52829308Y-41084992D01*
X52813328Y-41085165D01*
X52773437Y-41085615D01*
X52740420Y-41086044D01*
X52713584Y-41086487D01*
X52692237Y-41086978D01*
X52675687Y-41087553D01*
X52663240Y-41088248D01*
X52654205Y-41089098D01*
X52647888Y-41090139D01*
X52643598Y-41091406D01*
X52640642Y-41092934D01*
X52638328Y-41094759D01*
X52638085Y-41094974D01*
X52635373Y-41097300D01*
X52632930Y-41099505D01*
X52630741Y-41101984D01*
X52628792Y-41105134D01*
X52627070Y-41109353D01*
X52625561Y-41115037D01*
X52624250Y-41122583D01*
X52623124Y-41132388D01*
X52622168Y-41144847D01*
X52621369Y-41160359D01*
X52620713Y-41179320D01*
X52620186Y-41202126D01*
X52619773Y-41229174D01*
X52619461Y-41260862D01*
X52619236Y-41297585D01*
X52619085Y-41339741D01*
X52618992Y-41387726D01*
X52618943Y-41441937D01*
X52618926Y-41502770D01*
X52618926Y-41570623D01*
X52618930Y-41645893D01*
X52618930Y-42164073D01*
X52610656Y-42178794D01*
X52609307Y-42181006D01*
X52599326Y-42192745D01*
X52587548Y-42201852D01*
X52572713Y-42210189D01*
X52236709Y-42209149D01*
X52184621Y-42208986D01*
X52132113Y-42208808D01*
X52086474Y-42208629D01*
X52047203Y-42208433D01*
X52013797Y-42208209D01*
X51985753Y-42207942D01*
X51962569Y-42207620D01*
X51943741Y-42207230D01*
X51928769Y-42206758D01*
X51917148Y-42206191D01*
X51908377Y-42205517D01*
X51901953Y-42204722D01*
X51897374Y-42203792D01*
X51894137Y-42202715D01*
X51891739Y-42201478D01*
X51889678Y-42200067D01*
X51886440Y-42197318D01*
X51877528Y-42186999D01*
X51869860Y-42174823D01*
X51861070Y-42157622D01*
X51861070Y-41638692D01*
X51861074Y-41588433D01*
X51861087Y-41517839D01*
X51861093Y-41454413D01*
X51861073Y-41397762D01*
X51861011Y-41347497D01*
X51860889Y-41303226D01*
X51860688Y-41264559D01*
X51860391Y-41231106D01*
X51859980Y-41202475D01*
X51859439Y-41178276D01*
X51858748Y-41158118D01*
X51857890Y-41141611D01*
X51856848Y-41128364D01*
X51855603Y-41117987D01*
X51854138Y-41110088D01*
X51852436Y-41104276D01*
X51850478Y-41100163D01*
X51848247Y-41097355D01*
X51845725Y-41095464D01*
X51842895Y-41094098D01*
X51839738Y-41092866D01*
X51836237Y-41091379D01*
X51832454Y-41089901D01*
X51827159Y-41088607D01*
X51819810Y-41087558D01*
X51809686Y-41086729D01*
X51796069Y-41086095D01*
X51778238Y-41085632D01*
X51755474Y-41085315D01*
X51727056Y-41085119D01*
X51692265Y-41085020D01*
X51650381Y-41084992D01*
X51648899Y-41084992D01*
X51605863Y-41084977D01*
X51569902Y-41084880D01*
X51540301Y-41084620D01*
X51516345Y-41084120D01*
X51497318Y-41083301D01*
X51482505Y-41082082D01*
X51471192Y-41080386D01*
X51462661Y-41078133D01*
X51456200Y-41075243D01*
X51451091Y-41071639D01*
X51446620Y-41067241D01*
X51442072Y-41061970D01*
X51434834Y-41051141D01*
X51428516Y-41030745D01*
X51429222Y-41007839D01*
X51429236Y-41007764D01*
X51430076Y-41005238D01*
X51431939Y-41001850D01*
X51435092Y-40997327D01*
X51439798Y-40991395D01*
X51446323Y-40983780D01*
X51454933Y-40974208D01*
X51465893Y-40962406D01*
X51479467Y-40948099D01*
X51495921Y-40931014D01*
X51515521Y-40910877D01*
X51538531Y-40887413D01*
X51565217Y-40860350D01*
X51595844Y-40829413D01*
X51630677Y-40794329D01*
X51669982Y-40754823D01*
X51714023Y-40710621D01*
X51763066Y-40661450D01*
X51817376Y-40607037D01*
X51849520Y-40574862D01*
X51894435Y-40529979D01*
X51937734Y-40486797D01*
X51979094Y-40445637D01*
X52018190Y-40406817D01*
X52054697Y-40370659D01*
X52088290Y-40337481D01*
X52118646Y-40307604D01*
X52145439Y-40281347D01*
X52168345Y-40259031D01*
X52187039Y-40240974D01*
X52201198Y-40227498D01*
X52210495Y-40218921D01*
X52214608Y-40215564D01*
X52223332Y-40212447D01*
X52244148Y-40210486D01*
X52264541Y-40215406D01*
G37*
%TO.C,OSHW logo*%
G36*
X51827839Y-98012943D02*
G01*
X51829642Y-98022160D01*
X51838980Y-98071109D01*
X51851669Y-98138795D01*
X51866273Y-98217522D01*
X51881355Y-98299600D01*
X51887422Y-98331922D01*
X51902181Y-98404145D01*
X51916137Y-98464334D01*
X51927952Y-98506960D01*
X51936287Y-98526490D01*
X51949905Y-98535340D01*
X51985938Y-98551452D01*
X52032572Y-98567935D01*
X52050034Y-98573737D01*
X52107358Y-98595094D01*
X52175201Y-98622641D01*
X52242355Y-98651893D01*
X52277430Y-98667537D01*
X52329822Y-98689826D01*
X52369058Y-98705143D01*
X52388563Y-98710838D01*
X52390036Y-98710522D01*
X52410729Y-98699719D01*
X52450665Y-98675362D01*
X52505972Y-98639919D01*
X52572781Y-98595864D01*
X52647220Y-98545668D01*
X52889623Y-98380499D01*
X53106983Y-98597497D01*
X53127899Y-98618484D01*
X53190505Y-98682658D01*
X53244495Y-98740010D01*
X53286826Y-98787180D01*
X53314457Y-98820808D01*
X53324343Y-98837533D01*
X53316821Y-98855697D01*
X53295227Y-98893735D01*
X53262151Y-98947274D01*
X53220191Y-99012116D01*
X53171943Y-99084060D01*
X53124291Y-99154725D01*
X53082328Y-99218474D01*
X53049165Y-99270487D01*
X53027378Y-99306721D01*
X53019543Y-99323133D01*
X53019614Y-99324095D01*
X53027338Y-99345897D01*
X53045323Y-99384560D01*
X53070013Y-99432388D01*
X53070284Y-99432890D01*
X53102099Y-99496413D01*
X53117642Y-99539940D01*
X53117685Y-99566948D01*
X53103000Y-99580910D01*
X53088544Y-99586820D01*
X53049831Y-99602771D01*
X52990316Y-99627340D01*
X52913165Y-99659221D01*
X52821541Y-99697107D01*
X52718607Y-99739690D01*
X52607526Y-99785663D01*
X52506472Y-99827333D01*
X52402780Y-99869732D01*
X52310119Y-99907244D01*
X52231642Y-99938612D01*
X52170500Y-99962575D01*
X52129843Y-99977877D01*
X52112825Y-99983257D01*
X52097219Y-99972982D01*
X52071162Y-99944437D01*
X52040887Y-99904029D01*
X51961684Y-99807021D01*
X51860475Y-99720207D01*
X51749116Y-99656678D01*
X51630893Y-99616823D01*
X51509095Y-99601035D01*
X51387010Y-99609704D01*
X51267925Y-99643222D01*
X51155129Y-99701979D01*
X51051911Y-99786368D01*
X51011713Y-99830369D01*
X50940638Y-99935789D01*
X50894301Y-100048590D01*
X50871599Y-100165475D01*
X50871428Y-100283147D01*
X50892687Y-100398310D01*
X50934270Y-100507665D01*
X50995076Y-100607917D01*
X51074001Y-100695767D01*
X51169941Y-100767920D01*
X51281795Y-100821078D01*
X51408457Y-100851943D01*
X51469507Y-100857608D01*
X51601776Y-100849815D01*
X51727266Y-100814716D01*
X51843759Y-100753351D01*
X51949039Y-100666757D01*
X52040887Y-100555971D01*
X52069930Y-100517069D01*
X52096272Y-100487896D01*
X52112800Y-100476743D01*
X52127209Y-100481190D01*
X52165815Y-100495622D01*
X52225201Y-100518827D01*
X52302215Y-100549548D01*
X52393703Y-100586526D01*
X52496516Y-100628504D01*
X52607502Y-100674222D01*
X52708072Y-100715822D01*
X52811947Y-100758778D01*
X52904819Y-100797171D01*
X52983525Y-100829695D01*
X53044899Y-100855042D01*
X53085779Y-100871905D01*
X53103000Y-100878975D01*
X53103204Y-100879057D01*
X53117745Y-100893202D01*
X53117579Y-100920341D01*
X53101927Y-100963977D01*
X53070013Y-101027612D01*
X53067326Y-101032621D01*
X53043150Y-101079875D01*
X53026037Y-101117189D01*
X53019543Y-101136867D01*
X53027218Y-101152995D01*
X53048871Y-101189041D01*
X53081928Y-101240908D01*
X53123810Y-101304555D01*
X53171943Y-101375940D01*
X53219131Y-101446276D01*
X53261267Y-101511330D01*
X53294578Y-101565180D01*
X53316469Y-101603626D01*
X53324343Y-101622466D01*
X53323343Y-101625675D01*
X53307584Y-101648046D01*
X53275033Y-101686267D01*
X53228733Y-101736979D01*
X53171726Y-101796819D01*
X53107058Y-101862429D01*
X52889772Y-102079352D01*
X52641253Y-101910399D01*
X52392733Y-101741447D01*
X52281595Y-101792817D01*
X52281266Y-101792969D01*
X52210418Y-101823817D01*
X52131523Y-101855339D01*
X52061600Y-101880734D01*
X52050322Y-101884577D01*
X51997967Y-101903953D01*
X51957283Y-101921426D01*
X51936287Y-101933612D01*
X51933322Y-101938574D01*
X51923375Y-101968366D01*
X51910505Y-102018953D01*
X51896053Y-102084806D01*
X51881355Y-102160400D01*
X51877210Y-102183043D01*
X51862116Y-102264962D01*
X51847899Y-102341400D01*
X51835995Y-102404663D01*
X51827839Y-102447057D01*
X51812799Y-102523257D01*
X51495492Y-102523257D01*
X51456476Y-102523240D01*
X51361292Y-102522918D01*
X51290255Y-102521967D01*
X51239734Y-102520104D01*
X51206098Y-102517045D01*
X51185718Y-102512506D01*
X51174962Y-102506205D01*
X51170199Y-102497857D01*
X51168270Y-102489776D01*
X51161445Y-102456828D01*
X51151022Y-102404264D01*
X51138018Y-102337431D01*
X51123449Y-102261672D01*
X51108333Y-102182335D01*
X51093685Y-102104763D01*
X51080523Y-102034302D01*
X51069863Y-101976298D01*
X51062721Y-101936096D01*
X51060114Y-101919041D01*
X51058541Y-101917888D01*
X51038119Y-101908615D01*
X50999045Y-101892568D01*
X50947629Y-101872365D01*
X50878353Y-101844328D01*
X50798290Y-101809814D01*
X50727728Y-101777462D01*
X50711889Y-101770048D01*
X50662293Y-101749245D01*
X50624038Y-101736781D01*
X50604356Y-101735137D01*
X50602962Y-101735985D01*
X50582420Y-101749452D01*
X50542516Y-101776150D01*
X50487140Y-101813461D01*
X50420177Y-101858766D01*
X50345517Y-101909448D01*
X50260692Y-101966555D01*
X50194800Y-102009393D01*
X50146478Y-102038540D01*
X50112733Y-102055683D01*
X50090572Y-102062505D01*
X50077002Y-102060694D01*
X50075984Y-102060085D01*
X50056210Y-102043703D01*
X50020175Y-102010305D01*
X49971451Y-101963329D01*
X49913612Y-101906214D01*
X49850227Y-101842397D01*
X49785905Y-101776198D01*
X49725447Y-101711352D01*
X49684655Y-101663701D01*
X49662484Y-101632010D01*
X49657889Y-101615042D01*
X49658921Y-101612825D01*
X49672837Y-101589476D01*
X49700030Y-101547088D01*
X49737889Y-101489631D01*
X49783803Y-101421077D01*
X49835160Y-101345399D01*
X50003626Y-101098702D01*
X49953062Y-100987294D01*
X49951597Y-100984057D01*
X49921965Y-100915657D01*
X49892493Y-100843093D01*
X49869358Y-100781543D01*
X49869262Y-100781271D01*
X49851367Y-100732405D01*
X49836253Y-100694788D01*
X49827184Y-100676543D01*
X49826855Y-100676248D01*
X49808282Y-100670054D01*
X49766045Y-100659861D01*
X49704696Y-100646652D01*
X49628789Y-100631410D01*
X49542875Y-100615119D01*
X49539796Y-100614551D01*
X49452128Y-100598287D01*
X49372741Y-100583392D01*
X49306701Y-100570829D01*
X49259079Y-100561562D01*
X49234943Y-100556556D01*
X49233605Y-100556236D01*
X49223273Y-100552940D01*
X49215506Y-100546262D01*
X49209940Y-100532538D01*
X49206207Y-100508105D01*
X49203942Y-100469298D01*
X49202778Y-100412454D01*
X49202348Y-100333910D01*
X49202286Y-100230000D01*
X49202286Y-100216944D01*
X49202371Y-100116067D01*
X49202865Y-100040144D01*
X49204135Y-99985509D01*
X49206547Y-99948500D01*
X49210467Y-99925453D01*
X49216262Y-99912704D01*
X49224299Y-99906589D01*
X49234943Y-99903444D01*
X49235325Y-99903354D01*
X49260347Y-99898186D01*
X49308681Y-99888791D01*
X49375260Y-99876133D01*
X49455014Y-99861175D01*
X49542875Y-99844881D01*
X49550064Y-99843552D01*
X49635340Y-99827309D01*
X49710242Y-99812195D01*
X49770219Y-99799192D01*
X49810717Y-99789285D01*
X49827184Y-99783456D01*
X49827210Y-99783425D01*
X49836320Y-99765057D01*
X49851457Y-99727360D01*
X49869358Y-99678457D01*
X49870330Y-99675703D01*
X49893959Y-99613183D01*
X49923595Y-99540457D01*
X49953062Y-99472706D01*
X50003626Y-99361297D01*
X49835160Y-99114601D01*
X49823311Y-99097225D01*
X49772947Y-99022798D01*
X49728612Y-98956386D01*
X49692916Y-98901961D01*
X49668471Y-98863494D01*
X49657889Y-98844958D01*
X49660315Y-98832257D01*
X49679110Y-98803421D01*
X49716330Y-98758857D01*
X49773020Y-98697330D01*
X49850227Y-98617602D01*
X49857255Y-98610468D01*
X49920222Y-98547204D01*
X49977268Y-98491010D01*
X50024817Y-98445323D01*
X50059297Y-98413586D01*
X50077131Y-98399236D01*
X50077217Y-98399190D01*
X50090795Y-98397367D01*
X50112820Y-98404090D01*
X50146304Y-98421054D01*
X50194261Y-98449956D01*
X50259704Y-98492492D01*
X50345645Y-98550356D01*
X50360151Y-98560217D01*
X50433635Y-98610087D01*
X50498687Y-98654095D01*
X50551417Y-98689620D01*
X50587936Y-98714041D01*
X50604356Y-98724736D01*
X50607834Y-98725542D01*
X50633785Y-98720482D01*
X50676159Y-98705323D01*
X50727728Y-98682537D01*
X50795170Y-98651571D01*
X50875195Y-98616996D01*
X50947629Y-98587634D01*
X50966377Y-98580355D01*
X51014246Y-98561290D01*
X51047596Y-98547285D01*
X51060114Y-98540959D01*
X51061050Y-98533975D01*
X51066461Y-98502587D01*
X51075806Y-98451213D01*
X51088069Y-98385198D01*
X51102232Y-98309887D01*
X51117280Y-98230625D01*
X51132195Y-98152757D01*
X51145961Y-98081630D01*
X51157562Y-98022588D01*
X51165980Y-97980978D01*
X51170199Y-97962143D01*
X51171389Y-97959020D01*
X51177805Y-97951409D01*
X51191465Y-97945746D01*
X51215999Y-97941749D01*
X51255038Y-97939134D01*
X51312213Y-97937616D01*
X51391154Y-97936914D01*
X51495492Y-97936743D01*
X51812799Y-97936743D01*
X51827839Y-98012943D01*
G37*
D12*
X51827839Y-98012943D02*
X51829642Y-98022160D01*
X51838980Y-98071109D01*
X51851669Y-98138795D01*
X51866273Y-98217522D01*
X51881355Y-98299600D01*
X51887422Y-98331922D01*
X51902181Y-98404145D01*
X51916137Y-98464334D01*
X51927952Y-98506960D01*
X51936287Y-98526490D01*
X51949905Y-98535340D01*
X51985938Y-98551452D01*
X52032572Y-98567935D01*
X52050034Y-98573737D01*
X52107358Y-98595094D01*
X52175201Y-98622641D01*
X52242355Y-98651893D01*
X52277430Y-98667537D01*
X52329822Y-98689826D01*
X52369058Y-98705143D01*
X52388563Y-98710838D01*
X52390036Y-98710522D01*
X52410729Y-98699719D01*
X52450665Y-98675362D01*
X52505972Y-98639919D01*
X52572781Y-98595864D01*
X52647220Y-98545668D01*
X52889623Y-98380499D01*
X53106983Y-98597497D01*
X53127899Y-98618484D01*
X53190505Y-98682658D01*
X53244495Y-98740010D01*
X53286826Y-98787180D01*
X53314457Y-98820808D01*
X53324343Y-98837533D01*
X53316821Y-98855697D01*
X53295227Y-98893735D01*
X53262151Y-98947274D01*
X53220191Y-99012116D01*
X53171943Y-99084060D01*
X53124291Y-99154725D01*
X53082328Y-99218474D01*
X53049165Y-99270487D01*
X53027378Y-99306721D01*
X53019543Y-99323133D01*
X53019614Y-99324095D01*
X53027338Y-99345897D01*
X53045323Y-99384560D01*
X53070013Y-99432388D01*
X53070284Y-99432890D01*
X53102099Y-99496413D01*
X53117642Y-99539940D01*
X53117685Y-99566948D01*
X53103000Y-99580910D01*
X53088544Y-99586820D01*
X53049831Y-99602771D01*
X52990316Y-99627340D01*
X52913165Y-99659221D01*
X52821541Y-99697107D01*
X52718607Y-99739690D01*
X52607526Y-99785663D01*
X52506472Y-99827333D01*
X52402780Y-99869732D01*
X52310119Y-99907244D01*
X52231642Y-99938612D01*
X52170500Y-99962575D01*
X52129843Y-99977877D01*
X52112825Y-99983257D01*
X52097219Y-99972982D01*
X52071162Y-99944437D01*
X52040887Y-99904029D01*
X51961684Y-99807021D01*
X51860475Y-99720207D01*
X51749116Y-99656678D01*
X51630893Y-99616823D01*
X51509095Y-99601035D01*
X51387010Y-99609704D01*
X51267925Y-99643222D01*
X51155129Y-99701979D01*
X51051911Y-99786368D01*
X51011713Y-99830369D01*
X50940638Y-99935789D01*
X50894301Y-100048590D01*
X50871599Y-100165475D01*
X50871428Y-100283147D01*
X50892687Y-100398310D01*
X50934270Y-100507665D01*
X50995076Y-100607917D01*
X51074001Y-100695767D01*
X51169941Y-100767920D01*
X51281795Y-100821078D01*
X51408457Y-100851943D01*
X51469507Y-100857608D01*
X51601776Y-100849815D01*
X51727266Y-100814716D01*
X51843759Y-100753351D01*
X51949039Y-100666757D01*
X52040887Y-100555971D01*
X52069930Y-100517069D01*
X52096272Y-100487896D01*
X52112800Y-100476743D01*
X52127209Y-100481190D01*
X52165815Y-100495622D01*
X52225201Y-100518827D01*
X52302215Y-100549548D01*
X52393703Y-100586526D01*
X52496516Y-100628504D01*
X52607502Y-100674222D01*
X52708072Y-100715822D01*
X52811947Y-100758778D01*
X52904819Y-100797171D01*
X52983525Y-100829695D01*
X53044899Y-100855042D01*
X53085779Y-100871905D01*
X53103000Y-100878975D01*
X53103204Y-100879057D01*
X53117745Y-100893202D01*
X53117579Y-100920341D01*
X53101927Y-100963977D01*
X53070013Y-101027612D01*
X53067326Y-101032621D01*
X53043150Y-101079875D01*
X53026037Y-101117189D01*
X53019543Y-101136867D01*
X53027218Y-101152995D01*
X53048871Y-101189041D01*
X53081928Y-101240908D01*
X53123810Y-101304555D01*
X53171943Y-101375940D01*
X53219131Y-101446276D01*
X53261267Y-101511330D01*
X53294578Y-101565180D01*
X53316469Y-101603626D01*
X53324343Y-101622466D01*
X53323343Y-101625675D01*
X53307584Y-101648046D01*
X53275033Y-101686267D01*
X53228733Y-101736979D01*
X53171726Y-101796819D01*
X53107058Y-101862429D01*
X52889772Y-102079352D01*
X52641253Y-101910399D01*
X52392733Y-101741447D01*
X52281595Y-101792817D01*
X52281266Y-101792969D01*
X52210418Y-101823817D01*
X52131523Y-101855339D01*
X52061600Y-101880734D01*
X52050322Y-101884577D01*
X51997967Y-101903953D01*
X51957283Y-101921426D01*
X51936287Y-101933612D01*
X51933322Y-101938574D01*
X51923375Y-101968366D01*
X51910505Y-102018953D01*
X51896053Y-102084806D01*
X51881355Y-102160400D01*
X51877210Y-102183043D01*
X51862116Y-102264962D01*
X51847899Y-102341400D01*
X51835995Y-102404663D01*
X51827839Y-102447057D01*
X51812799Y-102523257D01*
X51495492Y-102523257D01*
X51456476Y-102523240D01*
X51361292Y-102522918D01*
X51290255Y-102521967D01*
X51239734Y-102520104D01*
X51206098Y-102517045D01*
X51185718Y-102512506D01*
X51174962Y-102506205D01*
X51170199Y-102497857D01*
X51168270Y-102489776D01*
X51161445Y-102456828D01*
X51151022Y-102404264D01*
X51138018Y-102337431D01*
X51123449Y-102261672D01*
X51108333Y-102182335D01*
X51093685Y-102104763D01*
X51080523Y-102034302D01*
X51069863Y-101976298D01*
X51062721Y-101936096D01*
X51060114Y-101919041D01*
X51058541Y-101917888D01*
X51038119Y-101908615D01*
X50999045Y-101892568D01*
X50947629Y-101872365D01*
X50878353Y-101844328D01*
X50798290Y-101809814D01*
X50727728Y-101777462D01*
X50711889Y-101770048D01*
X50662293Y-101749245D01*
X50624038Y-101736781D01*
X50604356Y-101735137D01*
X50602962Y-101735985D01*
X50582420Y-101749452D01*
X50542516Y-101776150D01*
X50487140Y-101813461D01*
X50420177Y-101858766D01*
X50345517Y-101909448D01*
X50260692Y-101966555D01*
X50194800Y-102009393D01*
X50146478Y-102038540D01*
X50112733Y-102055683D01*
X50090572Y-102062505D01*
X50077002Y-102060694D01*
X50075984Y-102060085D01*
X50056210Y-102043703D01*
X50020175Y-102010305D01*
X49971451Y-101963329D01*
X49913612Y-101906214D01*
X49850227Y-101842397D01*
X49785905Y-101776198D01*
X49725447Y-101711352D01*
X49684655Y-101663701D01*
X49662484Y-101632010D01*
X49657889Y-101615042D01*
X49658921Y-101612825D01*
X49672837Y-101589476D01*
X49700030Y-101547088D01*
X49737889Y-101489631D01*
X49783803Y-101421077D01*
X49835160Y-101345399D01*
X50003626Y-101098702D01*
X49953062Y-100987294D01*
X49951597Y-100984057D01*
X49921965Y-100915657D01*
X49892493Y-100843093D01*
X49869358Y-100781543D01*
X49869262Y-100781271D01*
X49851367Y-100732405D01*
X49836253Y-100694788D01*
X49827184Y-100676543D01*
X49826855Y-100676248D01*
X49808282Y-100670054D01*
X49766045Y-100659861D01*
X49704696Y-100646652D01*
X49628789Y-100631410D01*
X49542875Y-100615119D01*
X49539796Y-100614551D01*
X49452128Y-100598287D01*
X49372741Y-100583392D01*
X49306701Y-100570829D01*
X49259079Y-100561562D01*
X49234943Y-100556556D01*
X49233605Y-100556236D01*
X49223273Y-100552940D01*
X49215506Y-100546262D01*
X49209940Y-100532538D01*
X49206207Y-100508105D01*
X49203942Y-100469298D01*
X49202778Y-100412454D01*
X49202348Y-100333910D01*
X49202286Y-100230000D01*
X49202286Y-100216944D01*
X49202371Y-100116067D01*
X49202865Y-100040144D01*
X49204135Y-99985509D01*
X49206547Y-99948500D01*
X49210467Y-99925453D01*
X49216262Y-99912704D01*
X49224299Y-99906589D01*
X49234943Y-99903444D01*
X49235325Y-99903354D01*
X49260347Y-99898186D01*
X49308681Y-99888791D01*
X49375260Y-99876133D01*
X49455014Y-99861175D01*
X49542875Y-99844881D01*
X49550064Y-99843552D01*
X49635340Y-99827309D01*
X49710242Y-99812195D01*
X49770219Y-99799192D01*
X49810717Y-99789285D01*
X49827184Y-99783456D01*
X49827210Y-99783425D01*
X49836320Y-99765057D01*
X49851457Y-99727360D01*
X49869358Y-99678457D01*
X49870330Y-99675703D01*
X49893959Y-99613183D01*
X49923595Y-99540457D01*
X49953062Y-99472706D01*
X50003626Y-99361297D01*
X49835160Y-99114601D01*
X49823311Y-99097225D01*
X49772947Y-99022798D01*
X49728612Y-98956386D01*
X49692916Y-98901961D01*
X49668471Y-98863494D01*
X49657889Y-98844958D01*
X49660315Y-98832257D01*
X49679110Y-98803421D01*
X49716330Y-98758857D01*
X49773020Y-98697330D01*
X49850227Y-98617602D01*
X49857255Y-98610468D01*
X49920222Y-98547204D01*
X49977268Y-98491010D01*
X50024817Y-98445323D01*
X50059297Y-98413586D01*
X50077131Y-98399236D01*
X50077217Y-98399190D01*
X50090795Y-98397367D01*
X50112820Y-98404090D01*
X50146304Y-98421054D01*
X50194261Y-98449956D01*
X50259704Y-98492492D01*
X50345645Y-98550356D01*
X50360151Y-98560217D01*
X50433635Y-98610087D01*
X50498687Y-98654095D01*
X50551417Y-98689620D01*
X50587936Y-98714041D01*
X50604356Y-98724736D01*
X50607834Y-98725542D01*
X50633785Y-98720482D01*
X50676159Y-98705323D01*
X50727728Y-98682537D01*
X50795170Y-98651571D01*
X50875195Y-98616996D01*
X50947629Y-98587634D01*
X50966377Y-98580355D01*
X51014246Y-98561290D01*
X51047596Y-98547285D01*
X51060114Y-98540959D01*
X51061050Y-98533975D01*
X51066461Y-98502587D01*
X51075806Y-98451213D01*
X51088069Y-98385198D01*
X51102232Y-98309887D01*
X51117280Y-98230625D01*
X51132195Y-98152757D01*
X51145961Y-98081630D01*
X51157562Y-98022588D01*
X51165980Y-97980978D01*
X51170199Y-97962143D01*
X51171389Y-97959020D01*
X51177805Y-97951409D01*
X51191465Y-97945746D01*
X51215999Y-97941749D01*
X51255038Y-97939134D01*
X51312213Y-97937616D01*
X51391154Y-97936914D01*
X51495492Y-97936743D01*
X51812799Y-97936743D01*
X51827839Y-98012943D01*
G36*
X54251305Y-103089693D02*
G01*
X54327521Y-103093238D01*
X54383294Y-103102517D01*
X54424613Y-103119625D01*
X54457467Y-103146656D01*
X54487846Y-103185708D01*
X54501660Y-103210555D01*
X54510965Y-103250385D01*
X54510230Y-103306335D01*
X54507283Y-103337615D01*
X54498283Y-103375347D01*
X54478720Y-103405506D01*
X54442267Y-103440592D01*
X54436943Y-103445280D01*
X54395969Y-103476823D01*
X54360283Y-103491872D01*
X54317966Y-103495714D01*
X54255779Y-103495714D01*
X54272182Y-103452258D01*
X54291356Y-103420576D01*
X54336347Y-103393038D01*
X54350752Y-103387289D01*
X54391546Y-103355145D01*
X54412081Y-103311389D01*
X54410235Y-103263746D01*
X54383886Y-103219943D01*
X54367455Y-103204889D01*
X54342667Y-103191237D01*
X54320144Y-103195507D01*
X54296964Y-103220084D01*
X54270202Y-103267349D01*
X54236934Y-103339686D01*
X54171816Y-103488457D01*
X54107308Y-103492405D01*
X54059064Y-103490662D01*
X53998096Y-103468719D01*
X53964497Y-103441021D01*
X53926966Y-103383595D01*
X53908006Y-103315473D01*
X53908135Y-103309410D01*
X54006364Y-103309410D01*
X54029109Y-103361856D01*
X54040481Y-103376391D01*
X54066220Y-103393990D01*
X54091657Y-103386632D01*
X54118814Y-103353152D01*
X54149714Y-103292386D01*
X54154190Y-103282331D01*
X54175017Y-103234249D01*
X54189665Y-103198274D01*
X54195200Y-103181556D01*
X54191126Y-103179023D01*
X54166247Y-103178007D01*
X54126257Y-103181631D01*
X54087152Y-103190758D01*
X54037884Y-103219227D01*
X54010122Y-103260322D01*
X54006364Y-103309410D01*
X53908135Y-103309410D01*
X53909507Y-103245053D01*
X53933355Y-103180733D01*
X53942513Y-103166574D01*
X53970849Y-103134096D01*
X54006695Y-103111884D01*
X54055384Y-103098196D01*
X54122249Y-103091285D01*
X54166247Y-103090372D01*
X54212622Y-103089410D01*
X54251305Y-103089693D01*
G37*
X54251305Y-103089693D02*
X54327521Y-103093238D01*
X54383294Y-103102517D01*
X54424613Y-103119625D01*
X54457467Y-103146656D01*
X54487846Y-103185708D01*
X54501660Y-103210555D01*
X54510965Y-103250385D01*
X54510230Y-103306335D01*
X54507283Y-103337615D01*
X54498283Y-103375347D01*
X54478720Y-103405506D01*
X54442267Y-103440592D01*
X54436943Y-103445280D01*
X54395969Y-103476823D01*
X54360283Y-103491872D01*
X54317966Y-103495714D01*
X54255779Y-103495714D01*
X54272182Y-103452258D01*
X54291356Y-103420576D01*
X54336347Y-103393038D01*
X54350752Y-103387289D01*
X54391546Y-103355145D01*
X54412081Y-103311389D01*
X54410235Y-103263746D01*
X54383886Y-103219943D01*
X54367455Y-103204889D01*
X54342667Y-103191237D01*
X54320144Y-103195507D01*
X54296964Y-103220084D01*
X54270202Y-103267349D01*
X54236934Y-103339686D01*
X54171816Y-103488457D01*
X54107308Y-103492405D01*
X54059064Y-103490662D01*
X53998096Y-103468719D01*
X53964497Y-103441021D01*
X53926966Y-103383595D01*
X53908006Y-103315473D01*
X53908135Y-103309410D01*
X54006364Y-103309410D01*
X54029109Y-103361856D01*
X54040481Y-103376391D01*
X54066220Y-103393990D01*
X54091657Y-103386632D01*
X54118814Y-103353152D01*
X54149714Y-103292386D01*
X54154190Y-103282331D01*
X54175017Y-103234249D01*
X54189665Y-103198274D01*
X54195200Y-103181556D01*
X54191126Y-103179023D01*
X54166247Y-103178007D01*
X54126257Y-103181631D01*
X54087152Y-103190758D01*
X54037884Y-103219227D01*
X54010122Y-103260322D01*
X54006364Y-103309410D01*
X53908135Y-103309410D01*
X53909507Y-103245053D01*
X53933355Y-103180733D01*
X53942513Y-103166574D01*
X53970849Y-103134096D01*
X54006695Y-103111884D01*
X54055384Y-103098196D01*
X54122249Y-103091285D01*
X54166247Y-103090372D01*
X54212622Y-103089410D01*
X54251305Y-103089693D01*
G36*
X54266313Y-101000463D02*
G01*
X54343462Y-101008655D01*
X54401276Y-101026481D01*
X54445422Y-101056025D01*
X54481568Y-101099375D01*
X54502463Y-101140668D01*
X54514090Y-101210013D01*
X54501377Y-101279264D01*
X54465945Y-101341855D01*
X54409418Y-101391221D01*
X54398995Y-101397182D01*
X54380733Y-101405055D01*
X54357429Y-101410894D01*
X54325085Y-101415001D01*
X54279704Y-101417675D01*
X54217287Y-101419219D01*
X54133837Y-101419933D01*
X54025358Y-101420117D01*
X53688601Y-101420171D01*
X53708362Y-101373000D01*
X53713770Y-101360528D01*
X53725985Y-101340676D01*
X53744482Y-101329313D01*
X53776829Y-101323067D01*
X53830593Y-101318571D01*
X53878866Y-101314465D01*
X53910557Y-101309037D01*
X53922383Y-101301261D01*
X53919212Y-101289543D01*
X53908067Y-101259682D01*
X53905304Y-101206316D01*
X53907837Y-101192224D01*
X54008843Y-101192224D01*
X54012198Y-101242960D01*
X54040107Y-101287013D01*
X54051173Y-101296496D01*
X54072009Y-101308061D01*
X54101106Y-101314748D01*
X54145381Y-101317827D01*
X54211748Y-101318571D01*
X54264577Y-101318228D01*
X54312362Y-101316058D01*
X54343209Y-101310693D01*
X54363935Y-101300783D01*
X54381356Y-101284979D01*
X54384705Y-101281276D01*
X54409419Y-101233701D01*
X54406890Y-101183365D01*
X54377288Y-101136483D01*
X54361953Y-101122523D01*
X54341622Y-101110840D01*
X54313514Y-101104314D01*
X54270550Y-101101476D01*
X54205647Y-101100857D01*
X54156122Y-101101163D01*
X54107782Y-101103278D01*
X54076587Y-101108610D01*
X54055647Y-101118540D01*
X54038073Y-101134450D01*
X54030159Y-101143796D01*
X54008843Y-101192224D01*
X53907837Y-101192224D01*
X53915625Y-101148907D01*
X53937861Y-101099375D01*
X53958443Y-101072124D01*
X53998600Y-101037135D01*
X54050086Y-101014726D01*
X54118568Y-101002810D01*
X54205647Y-100999458D01*
X54209714Y-100999302D01*
X54266313Y-101000463D01*
G37*
X54266313Y-101000463D02*
X54343462Y-101008655D01*
X54401276Y-101026481D01*
X54445422Y-101056025D01*
X54481568Y-101099375D01*
X54502463Y-101140668D01*
X54514090Y-101210013D01*
X54501377Y-101279264D01*
X54465945Y-101341855D01*
X54409418Y-101391221D01*
X54398995Y-101397182D01*
X54380733Y-101405055D01*
X54357429Y-101410894D01*
X54325085Y-101415001D01*
X54279704Y-101417675D01*
X54217287Y-101419219D01*
X54133837Y-101419933D01*
X54025358Y-101420117D01*
X53688601Y-101420171D01*
X53708362Y-101373000D01*
X53713770Y-101360528D01*
X53725985Y-101340676D01*
X53744482Y-101329313D01*
X53776829Y-101323067D01*
X53830593Y-101318571D01*
X53878866Y-101314465D01*
X53910557Y-101309037D01*
X53922383Y-101301261D01*
X53919212Y-101289543D01*
X53908067Y-101259682D01*
X53905304Y-101206316D01*
X53907837Y-101192224D01*
X54008843Y-101192224D01*
X54012198Y-101242960D01*
X54040107Y-101287013D01*
X54051173Y-101296496D01*
X54072009Y-101308061D01*
X54101106Y-101314748D01*
X54145381Y-101317827D01*
X54211748Y-101318571D01*
X54264577Y-101318228D01*
X54312362Y-101316058D01*
X54343209Y-101310693D01*
X54363935Y-101300783D01*
X54381356Y-101284979D01*
X54384705Y-101281276D01*
X54409419Y-101233701D01*
X54406890Y-101183365D01*
X54377288Y-101136483D01*
X54361953Y-101122523D01*
X54341622Y-101110840D01*
X54313514Y-101104314D01*
X54270550Y-101101476D01*
X54205647Y-101100857D01*
X54156122Y-101101163D01*
X54107782Y-101103278D01*
X54076587Y-101108610D01*
X54055647Y-101118540D01*
X54038073Y-101134450D01*
X54030159Y-101143796D01*
X54008843Y-101192224D01*
X53907837Y-101192224D01*
X53915625Y-101148907D01*
X53937861Y-101099375D01*
X53958443Y-101072124D01*
X53998600Y-101037135D01*
X54050086Y-101014726D01*
X54118568Y-101002810D01*
X54205647Y-100999458D01*
X54209714Y-100999302D01*
X54266313Y-101000463D01*
G36*
X54373000Y-97518748D02*
G01*
X54405339Y-97518349D01*
X54513455Y-97517071D01*
X54596186Y-97516815D01*
X54656426Y-97518366D01*
X54697073Y-97522510D01*
X54721023Y-97530036D01*
X54731171Y-97541729D01*
X54730414Y-97558376D01*
X54721648Y-97580764D01*
X54707769Y-97609679D01*
X54704808Y-97615858D01*
X54690311Y-97641587D01*
X54673065Y-97655024D01*
X54644308Y-97660166D01*
X54595283Y-97661010D01*
X54507257Y-97661048D01*
X54507257Y-97751724D01*
X54504815Y-97807502D01*
X54494908Y-97851360D01*
X54474886Y-97887782D01*
X54472929Y-97890497D01*
X54439869Y-97927454D01*
X54399931Y-97953174D01*
X54347657Y-97969394D01*
X54277588Y-97977852D01*
X54184267Y-97980286D01*
X54116169Y-97979747D01*
X54064587Y-97977293D01*
X54028816Y-97971842D01*
X54002015Y-97962314D01*
X53977338Y-97947629D01*
X53958480Y-97934148D01*
X53907568Y-97885201D01*
X53879918Y-97829744D01*
X53871165Y-97760072D01*
X53871776Y-97754491D01*
X54006514Y-97754491D01*
X54008094Y-97771650D01*
X54023766Y-97801340D01*
X54058691Y-97820969D01*
X54115901Y-97831812D01*
X54198430Y-97835143D01*
X54211697Y-97835118D01*
X54271584Y-97833739D01*
X54310732Y-97829313D01*
X54336153Y-97820539D01*
X54354857Y-97806114D01*
X54355750Y-97805216D01*
X54379952Y-97769763D01*
X54377567Y-97735404D01*
X54348260Y-97696597D01*
X54338244Y-97687105D01*
X54317708Y-97673124D01*
X54290997Y-97665240D01*
X54250499Y-97661755D01*
X54188603Y-97660971D01*
X54151130Y-97661650D01*
X54082980Y-97669017D01*
X54038330Y-97685832D01*
X54013926Y-97713766D01*
X54006514Y-97754491D01*
X53871776Y-97754491D01*
X53879890Y-97680336D01*
X53911185Y-97611405D01*
X53966381Y-97556887D01*
X53972224Y-97552777D01*
X53987753Y-97543192D01*
X54005498Y-97535849D01*
X54029290Y-97530388D01*
X54062958Y-97526450D01*
X54110333Y-97523677D01*
X54175245Y-97521708D01*
X54188603Y-97521472D01*
X54261524Y-97520185D01*
X54373000Y-97518748D01*
G37*
X54373000Y-97518748D02*
X54405339Y-97518349D01*
X54513455Y-97517071D01*
X54596186Y-97516815D01*
X54656426Y-97518366D01*
X54697073Y-97522510D01*
X54721023Y-97530036D01*
X54731171Y-97541729D01*
X54730414Y-97558376D01*
X54721648Y-97580764D01*
X54707769Y-97609679D01*
X54704808Y-97615858D01*
X54690311Y-97641587D01*
X54673065Y-97655024D01*
X54644308Y-97660166D01*
X54595283Y-97661010D01*
X54507257Y-97661048D01*
X54507257Y-97751724D01*
X54504815Y-97807502D01*
X54494908Y-97851360D01*
X54474886Y-97887782D01*
X54472929Y-97890497D01*
X54439869Y-97927454D01*
X54399931Y-97953174D01*
X54347657Y-97969394D01*
X54277588Y-97977852D01*
X54184267Y-97980286D01*
X54116169Y-97979747D01*
X54064587Y-97977293D01*
X54028816Y-97971842D01*
X54002015Y-97962314D01*
X53977338Y-97947629D01*
X53958480Y-97934148D01*
X53907568Y-97885201D01*
X53879918Y-97829744D01*
X53871165Y-97760072D01*
X53871776Y-97754491D01*
X54006514Y-97754491D01*
X54008094Y-97771650D01*
X54023766Y-97801340D01*
X54058691Y-97820969D01*
X54115901Y-97831812D01*
X54198430Y-97835143D01*
X54211697Y-97835118D01*
X54271584Y-97833739D01*
X54310732Y-97829313D01*
X54336153Y-97820539D01*
X54354857Y-97806114D01*
X54355750Y-97805216D01*
X54379952Y-97769763D01*
X54377567Y-97735404D01*
X54348260Y-97696597D01*
X54338244Y-97687105D01*
X54317708Y-97673124D01*
X54290997Y-97665240D01*
X54250499Y-97661755D01*
X54188603Y-97660971D01*
X54151130Y-97661650D01*
X54082980Y-97669017D01*
X54038330Y-97685832D01*
X54013926Y-97713766D01*
X54006514Y-97754491D01*
X53871776Y-97754491D01*
X53879890Y-97680336D01*
X53911185Y-97611405D01*
X53966381Y-97556887D01*
X53972224Y-97552777D01*
X53987753Y-97543192D01*
X54005498Y-97535849D01*
X54029290Y-97530388D01*
X54062958Y-97526450D01*
X54110333Y-97523677D01*
X54175245Y-97521708D01*
X54188603Y-97521472D01*
X54261524Y-97520185D01*
X54373000Y-97518748D01*
G36*
X54471127Y-101553188D02*
G01*
X54481427Y-101563680D01*
X54504320Y-101592745D01*
X54511735Y-101622057D01*
X54508321Y-101665674D01*
X54506114Y-101683432D01*
X54501445Y-101729233D01*
X54499585Y-101761257D01*
X54499869Y-101770756D01*
X54502948Y-101809726D01*
X54508321Y-101856840D01*
X54510168Y-101871915D01*
X54510893Y-101909890D01*
X54499429Y-101937675D01*
X54471127Y-101969326D01*
X54425196Y-102015257D01*
X54165055Y-102015257D01*
X54088180Y-102014899D01*
X54014886Y-102013784D01*
X53956850Y-102012048D01*
X53918663Y-102009833D01*
X53904914Y-102007279D01*
X53904951Y-102006744D01*
X53911793Y-101988192D01*
X53926868Y-101956847D01*
X53948822Y-101914392D01*
X54177240Y-101910396D01*
X54405657Y-101906400D01*
X54405657Y-101819314D01*
X54155286Y-101815343D01*
X54087227Y-101814084D01*
X54014482Y-101812282D01*
X53956730Y-101810329D01*
X53918648Y-101808388D01*
X53904914Y-101806623D01*
X53904962Y-101806115D01*
X53910015Y-101788518D01*
X53920849Y-101756166D01*
X53936783Y-101710457D01*
X54156706Y-101710235D01*
X54194909Y-101710012D01*
X54269146Y-101708469D01*
X54331145Y-101705708D01*
X54375308Y-101702023D01*
X54396041Y-101697708D01*
X54407131Y-101682268D01*
X54410556Y-101650759D01*
X54405657Y-101616114D01*
X54155286Y-101612143D01*
X54091663Y-101610722D01*
X54016356Y-101607775D01*
X53957286Y-101603921D01*
X53918718Y-101599458D01*
X53904914Y-101594683D01*
X53909282Y-101576059D01*
X53921758Y-101544226D01*
X53938602Y-101507257D01*
X54425196Y-101507257D01*
X54471127Y-101553188D01*
G37*
X54471127Y-101553188D02*
X54481427Y-101563680D01*
X54504320Y-101592745D01*
X54511735Y-101622057D01*
X54508321Y-101665674D01*
X54506114Y-101683432D01*
X54501445Y-101729233D01*
X54499585Y-101761257D01*
X54499869Y-101770756D01*
X54502948Y-101809726D01*
X54508321Y-101856840D01*
X54510168Y-101871915D01*
X54510893Y-101909890D01*
X54499429Y-101937675D01*
X54471127Y-101969326D01*
X54425196Y-102015257D01*
X54165055Y-102015257D01*
X54088180Y-102014899D01*
X54014886Y-102013784D01*
X53956850Y-102012048D01*
X53918663Y-102009833D01*
X53904914Y-102007279D01*
X53904951Y-102006744D01*
X53911793Y-101988192D01*
X53926868Y-101956847D01*
X53948822Y-101914392D01*
X54177240Y-101910396D01*
X54405657Y-101906400D01*
X54405657Y-101819314D01*
X54155286Y-101815343D01*
X54087227Y-101814084D01*
X54014482Y-101812282D01*
X53956730Y-101810329D01*
X53918648Y-101808388D01*
X53904914Y-101806623D01*
X53904962Y-101806115D01*
X53910015Y-101788518D01*
X53920849Y-101756166D01*
X53936783Y-101710457D01*
X54156706Y-101710235D01*
X54194909Y-101710012D01*
X54269146Y-101708469D01*
X54331145Y-101705708D01*
X54375308Y-101702023D01*
X54396041Y-101697708D01*
X54407131Y-101682268D01*
X54410556Y-101650759D01*
X54405657Y-101616114D01*
X54155286Y-101612143D01*
X54091663Y-101610722D01*
X54016356Y-101607775D01*
X53957286Y-101603921D01*
X53918718Y-101599458D01*
X53904914Y-101594683D01*
X53909282Y-101576059D01*
X53921758Y-101544226D01*
X53938602Y-101507257D01*
X54425196Y-101507257D01*
X54471127Y-101553188D01*
G36*
X54379983Y-102103256D02*
G01*
X54435845Y-102127576D01*
X54481355Y-102173432D01*
X54500727Y-102210562D01*
X54514292Y-102282289D01*
X54512462Y-102322148D01*
X54502568Y-102359047D01*
X54481806Y-102373203D01*
X54447613Y-102367909D01*
X54443092Y-102366369D01*
X54419116Y-102354158D01*
X54410042Y-102333826D01*
X54410649Y-102295092D01*
X54411474Y-102267743D01*
X54404392Y-102235743D01*
X54383219Y-102213818D01*
X54357152Y-102201330D01*
X54329845Y-102199938D01*
X54329685Y-102200002D01*
X54314930Y-102216193D01*
X54293457Y-102250845D01*
X54269458Y-102295679D01*
X54247125Y-102342418D01*
X54230652Y-102382783D01*
X54224229Y-102408496D01*
X54230518Y-102412321D01*
X54260115Y-102417136D01*
X54308447Y-102420434D01*
X54369372Y-102421657D01*
X54411542Y-102421942D01*
X54464653Y-102423282D01*
X54501025Y-102425472D01*
X54514514Y-102428231D01*
X54509981Y-102442656D01*
X54497670Y-102471774D01*
X54480826Y-102508743D01*
X54264721Y-102508743D01*
X54209327Y-102508507D01*
X54125207Y-102506271D01*
X54062800Y-102500577D01*
X54017358Y-102490097D01*
X53984133Y-102473503D01*
X53958378Y-102449469D01*
X53935344Y-102416667D01*
X53916335Y-102374876D01*
X53904914Y-102297713D01*
X53906220Y-102262505D01*
X53914121Y-102231401D01*
X53933817Y-102202441D01*
X53970484Y-102165169D01*
X53996378Y-102141199D01*
X54029997Y-102116230D01*
X54061506Y-102104969D01*
X54101485Y-102102343D01*
X54166917Y-102102343D01*
X54143842Y-102146965D01*
X54115724Y-102182327D01*
X54077848Y-102206549D01*
X54067551Y-102210709D01*
X54027637Y-102242406D01*
X54007624Y-102286446D01*
X54009572Y-102334469D01*
X54035543Y-102378114D01*
X54056635Y-102396580D01*
X54083619Y-102407337D01*
X54107634Y-102395822D01*
X54131791Y-102360019D01*
X54159199Y-102297910D01*
X54162985Y-102288485D01*
X54187759Y-102231942D01*
X54212189Y-102183420D01*
X54231486Y-102152549D01*
X54265953Y-102121629D01*
X54320957Y-102101073D01*
X54379983Y-102103256D01*
G37*
X54379983Y-102103256D02*
X54435845Y-102127576D01*
X54481355Y-102173432D01*
X54500727Y-102210562D01*
X54514292Y-102282289D01*
X54512462Y-102322148D01*
X54502568Y-102359047D01*
X54481806Y-102373203D01*
X54447613Y-102367909D01*
X54443092Y-102366369D01*
X54419116Y-102354158D01*
X54410042Y-102333826D01*
X54410649Y-102295092D01*
X54411474Y-102267743D01*
X54404392Y-102235743D01*
X54383219Y-102213818D01*
X54357152Y-102201330D01*
X54329845Y-102199938D01*
X54329685Y-102200002D01*
X54314930Y-102216193D01*
X54293457Y-102250845D01*
X54269458Y-102295679D01*
X54247125Y-102342418D01*
X54230652Y-102382783D01*
X54224229Y-102408496D01*
X54230518Y-102412321D01*
X54260115Y-102417136D01*
X54308447Y-102420434D01*
X54369372Y-102421657D01*
X54411542Y-102421942D01*
X54464653Y-102423282D01*
X54501025Y-102425472D01*
X54514514Y-102428231D01*
X54509981Y-102442656D01*
X54497670Y-102471774D01*
X54480826Y-102508743D01*
X54264721Y-102508743D01*
X54209327Y-102508507D01*
X54125207Y-102506271D01*
X54062800Y-102500577D01*
X54017358Y-102490097D01*
X53984133Y-102473503D01*
X53958378Y-102449469D01*
X53935344Y-102416667D01*
X53916335Y-102374876D01*
X53904914Y-102297713D01*
X53906220Y-102262505D01*
X53914121Y-102231401D01*
X53933817Y-102202441D01*
X53970484Y-102165169D01*
X53996378Y-102141199D01*
X54029997Y-102116230D01*
X54061506Y-102104969D01*
X54101485Y-102102343D01*
X54166917Y-102102343D01*
X54143842Y-102146965D01*
X54115724Y-102182327D01*
X54077848Y-102206549D01*
X54067551Y-102210709D01*
X54027637Y-102242406D01*
X54007624Y-102286446D01*
X54009572Y-102334469D01*
X54035543Y-102378114D01*
X54056635Y-102396580D01*
X54083619Y-102407337D01*
X54107634Y-102395822D01*
X54131791Y-102360019D01*
X54159199Y-102297910D01*
X54162985Y-102288485D01*
X54187759Y-102231942D01*
X54212189Y-102183420D01*
X54231486Y-102152549D01*
X54265953Y-102121629D01*
X54320957Y-102101073D01*
X54379983Y-102103256D01*
G36*
X54210935Y-96964299D02*
G01*
X54281119Y-96965086D01*
X54330022Y-96967790D01*
X54364178Y-96973394D01*
X54390124Y-96982881D01*
X54414397Y-96997232D01*
X54419433Y-97000763D01*
X54459143Y-97038122D01*
X54489092Y-97080689D01*
X54498810Y-97102548D01*
X54515020Y-97181092D01*
X54504535Y-97258769D01*
X54468707Y-97330355D01*
X54408887Y-97390626D01*
X54400873Y-97395714D01*
X54354342Y-97412270D01*
X54289552Y-97423427D01*
X54214727Y-97428840D01*
X54138096Y-97428167D01*
X54067882Y-97421063D01*
X54012312Y-97407185D01*
X53975301Y-97389351D01*
X53917733Y-97339145D01*
X53881962Y-97271115D01*
X53870426Y-97192992D01*
X54006514Y-97192992D01*
X54007635Y-97206560D01*
X54028194Y-97244570D01*
X54074299Y-97269688D01*
X54145513Y-97281752D01*
X54241399Y-97280598D01*
X54247569Y-97280134D01*
X54300478Y-97273371D01*
X54334029Y-97261329D01*
X54357016Y-97240995D01*
X54378548Y-97206903D01*
X54379680Y-97173186D01*
X54354857Y-97138457D01*
X54348325Y-97132416D01*
X54328779Y-97120583D01*
X54300386Y-97113596D01*
X54256430Y-97110273D01*
X54190192Y-97109429D01*
X54128150Y-97110875D01*
X54069042Y-97118093D01*
X54031686Y-97132994D01*
X54012152Y-97157364D01*
X54006514Y-97192992D01*
X53870426Y-97192992D01*
X53869665Y-97187842D01*
X53870331Y-97165602D01*
X53883947Y-97100109D01*
X53918249Y-97046313D01*
X53977338Y-96996943D01*
X53981722Y-96994005D01*
X54005299Y-96980713D01*
X54031949Y-96972068D01*
X54068159Y-96967096D01*
X54120413Y-96964826D01*
X54190192Y-96964322D01*
X54195200Y-96964286D01*
X54210935Y-96964299D01*
G37*
X54210935Y-96964299D02*
X54281119Y-96965086D01*
X54330022Y-96967790D01*
X54364178Y-96973394D01*
X54390124Y-96982881D01*
X54414397Y-96997232D01*
X54419433Y-97000763D01*
X54459143Y-97038122D01*
X54489092Y-97080689D01*
X54498810Y-97102548D01*
X54515020Y-97181092D01*
X54504535Y-97258769D01*
X54468707Y-97330355D01*
X54408887Y-97390626D01*
X54400873Y-97395714D01*
X54354342Y-97412270D01*
X54289552Y-97423427D01*
X54214727Y-97428840D01*
X54138096Y-97428167D01*
X54067882Y-97421063D01*
X54012312Y-97407185D01*
X53975301Y-97389351D01*
X53917733Y-97339145D01*
X53881962Y-97271115D01*
X53870426Y-97192992D01*
X54006514Y-97192992D01*
X54007635Y-97206560D01*
X54028194Y-97244570D01*
X54074299Y-97269688D01*
X54145513Y-97281752D01*
X54241399Y-97280598D01*
X54247569Y-97280134D01*
X54300478Y-97273371D01*
X54334029Y-97261329D01*
X54357016Y-97240995D01*
X54378548Y-97206903D01*
X54379680Y-97173186D01*
X54354857Y-97138457D01*
X54348325Y-97132416D01*
X54328779Y-97120583D01*
X54300386Y-97113596D01*
X54256430Y-97110273D01*
X54190192Y-97109429D01*
X54128150Y-97110875D01*
X54069042Y-97118093D01*
X54031686Y-97132994D01*
X54012152Y-97157364D01*
X54006514Y-97192992D01*
X53870426Y-97192992D01*
X53869665Y-97187842D01*
X53870331Y-97165602D01*
X53883947Y-97100109D01*
X53918249Y-97046313D01*
X53977338Y-96996943D01*
X53981722Y-96994005D01*
X54005299Y-96980713D01*
X54031949Y-96972068D01*
X54068159Y-96967096D01*
X54120413Y-96964826D01*
X54190192Y-96964322D01*
X54195200Y-96964286D01*
X54210935Y-96964299D01*
G36*
X54459934Y-100508006D02*
G01*
X54500948Y-100511836D01*
X54514514Y-100518111D01*
X54510452Y-100537102D01*
X54498144Y-100569362D01*
X54494545Y-100576959D01*
X54486398Y-100588824D01*
X54473004Y-100597006D01*
X54449608Y-100602357D01*
X54411455Y-100605731D01*
X54353790Y-100607981D01*
X54271857Y-100609960D01*
X54247907Y-100610502D01*
X54172266Y-100612597D01*
X54119328Y-100615317D01*
X54084075Y-100619485D01*
X54061487Y-100625921D01*
X54046544Y-100635450D01*
X54034227Y-100648894D01*
X54012634Y-100688695D01*
X54008476Y-100737659D01*
X54024999Y-100781471D01*
X54059210Y-100812992D01*
X54108114Y-100825086D01*
X54121407Y-100825422D01*
X54145472Y-100832028D01*
X54149144Y-100851530D01*
X54134813Y-100889717D01*
X54130217Y-100898562D01*
X54103186Y-100922466D01*
X54062994Y-100922939D01*
X54007409Y-100900164D01*
X53977117Y-100879273D01*
X53934084Y-100825858D01*
X53909755Y-100759926D01*
X53906443Y-100689426D01*
X53926467Y-100622309D01*
X53929003Y-100617727D01*
X53958057Y-100580296D01*
X53995410Y-100546830D01*
X54003852Y-100540993D01*
X54023553Y-100529835D01*
X54046935Y-100521864D01*
X54079067Y-100516382D01*
X54125019Y-100512693D01*
X54189859Y-100510101D01*
X54278657Y-100507908D01*
X54293669Y-100507598D01*
X54390999Y-100506600D01*
X54459934Y-100508006D01*
G37*
X54459934Y-100508006D02*
X54500948Y-100511836D01*
X54514514Y-100518111D01*
X54510452Y-100537102D01*
X54498144Y-100569362D01*
X54494545Y-100576959D01*
X54486398Y-100588824D01*
X54473004Y-100597006D01*
X54449608Y-100602357D01*
X54411455Y-100605731D01*
X54353790Y-100607981D01*
X54271857Y-100609960D01*
X54247907Y-100610502D01*
X54172266Y-100612597D01*
X54119328Y-100615317D01*
X54084075Y-100619485D01*
X54061487Y-100625921D01*
X54046544Y-100635450D01*
X54034227Y-100648894D01*
X54012634Y-100688695D01*
X54008476Y-100737659D01*
X54024999Y-100781471D01*
X54059210Y-100812992D01*
X54108114Y-100825086D01*
X54121407Y-100825422D01*
X54145472Y-100832028D01*
X54149144Y-100851530D01*
X54134813Y-100889717D01*
X54130217Y-100898562D01*
X54103186Y-100922466D01*
X54062994Y-100922939D01*
X54007409Y-100900164D01*
X53977117Y-100879273D01*
X53934084Y-100825858D01*
X53909755Y-100759926D01*
X53906443Y-100689426D01*
X53926467Y-100622309D01*
X53929003Y-100617727D01*
X53958057Y-100580296D01*
X53995410Y-100546830D01*
X54003852Y-100540993D01*
X54023553Y-100529835D01*
X54046935Y-100521864D01*
X54079067Y-100516382D01*
X54125019Y-100512693D01*
X54189859Y-100510101D01*
X54278657Y-100507908D01*
X54293669Y-100507598D01*
X54390999Y-100506600D01*
X54459934Y-100508006D01*
G36*
X54514491Y-98669775D02*
G01*
X54501156Y-98704732D01*
X54488323Y-98730903D01*
X54471780Y-98747987D01*
X54446465Y-98757914D01*
X54407316Y-98762614D01*
X54349268Y-98764018D01*
X54267261Y-98764057D01*
X54201895Y-98764256D01*
X54139173Y-98765441D01*
X54096334Y-98768271D01*
X54068220Y-98773391D01*
X54049675Y-98781447D01*
X54035543Y-98793086D01*
X54015600Y-98821697D01*
X54008083Y-98869761D01*
X54027079Y-98917312D01*
X54029511Y-98920450D01*
X54040748Y-98930231D01*
X54058770Y-98937447D01*
X54088026Y-98942701D01*
X54132962Y-98946598D01*
X54198028Y-98949744D01*
X54287670Y-98952743D01*
X54527697Y-98960000D01*
X54500044Y-99021686D01*
X54472391Y-99083371D01*
X54253246Y-99083371D01*
X54193711Y-99083116D01*
X54110892Y-99080914D01*
X54049227Y-99075339D01*
X54003748Y-99065059D01*
X53969484Y-99048742D01*
X53941466Y-99025057D01*
X53914723Y-98992672D01*
X53887780Y-98946093D01*
X53870191Y-98872713D01*
X53877822Y-98798980D01*
X53909680Y-98731190D01*
X53964770Y-98675634D01*
X53982016Y-98664119D01*
X54001562Y-98654568D01*
X54026198Y-98647794D01*
X54060711Y-98643181D01*
X54109889Y-98640112D01*
X54178519Y-98637971D01*
X54271389Y-98636141D01*
X54529007Y-98631596D01*
X54514491Y-98669775D01*
G37*
X54514491Y-98669775D02*
X54501156Y-98704732D01*
X54488323Y-98730903D01*
X54471780Y-98747987D01*
X54446465Y-98757914D01*
X54407316Y-98762614D01*
X54349268Y-98764018D01*
X54267261Y-98764057D01*
X54201895Y-98764256D01*
X54139173Y-98765441D01*
X54096334Y-98768271D01*
X54068220Y-98773391D01*
X54049675Y-98781447D01*
X54035543Y-98793086D01*
X54015600Y-98821697D01*
X54008083Y-98869761D01*
X54027079Y-98917312D01*
X54029511Y-98920450D01*
X54040748Y-98930231D01*
X54058770Y-98937447D01*
X54088026Y-98942701D01*
X54132962Y-98946598D01*
X54198028Y-98949744D01*
X54287670Y-98952743D01*
X54527697Y-98960000D01*
X54500044Y-99021686D01*
X54472391Y-99083371D01*
X54253246Y-99083371D01*
X54193711Y-99083116D01*
X54110892Y-99080914D01*
X54049227Y-99075339D01*
X54003748Y-99065059D01*
X53969484Y-99048742D01*
X53941466Y-99025057D01*
X53914723Y-98992672D01*
X53887780Y-98946093D01*
X53870191Y-98872713D01*
X53877822Y-98798980D01*
X53909680Y-98731190D01*
X53964770Y-98675634D01*
X53982016Y-98664119D01*
X54001562Y-98654568D01*
X54026198Y-98647794D01*
X54060711Y-98643181D01*
X54109889Y-98640112D01*
X54178519Y-98637971D01*
X54271389Y-98636141D01*
X54529007Y-98631596D01*
X54514491Y-98669775D01*
G36*
X54229498Y-99504481D02*
G01*
X54322141Y-99505002D01*
X54400700Y-99505801D01*
X54461439Y-99506828D01*
X54500623Y-99508037D01*
X54514514Y-99509377D01*
X54514468Y-99509901D01*
X54509420Y-99527713D01*
X54498580Y-99560177D01*
X54482646Y-99605886D01*
X54278173Y-99605886D01*
X54197832Y-99606176D01*
X54139562Y-99607526D01*
X54099909Y-99610631D01*
X54073618Y-99616188D01*
X54055436Y-99624893D01*
X54040107Y-99637444D01*
X54031955Y-99646001D01*
X54009375Y-99692272D01*
X54011375Y-99743272D01*
X54038073Y-99790007D01*
X54044698Y-99796811D01*
X54058456Y-99807707D01*
X54076642Y-99815164D01*
X54104177Y-99819831D01*
X54145981Y-99822358D01*
X54206973Y-99823398D01*
X54292073Y-99823600D01*
X54335234Y-99823697D01*
X54406224Y-99824326D01*
X54463076Y-99825444D01*
X54500828Y-99826937D01*
X54514514Y-99828691D01*
X54514468Y-99829215D01*
X54509420Y-99847027D01*
X54498580Y-99879491D01*
X54482646Y-99925200D01*
X54277237Y-99925177D01*
X54258951Y-99925143D01*
X54163626Y-99923222D01*
X54091543Y-99917322D01*
X54037813Y-99905999D01*
X53997549Y-99887813D01*
X53965861Y-99861321D01*
X53937861Y-99825082D01*
X53920333Y-99789737D01*
X53906785Y-99733227D01*
X53906015Y-99677644D01*
X53919195Y-99634914D01*
X53921015Y-99631702D01*
X53920820Y-99621795D01*
X53905572Y-99615025D01*
X53870613Y-99610139D01*
X53811289Y-99605886D01*
X53689547Y-99598629D01*
X53709444Y-99551457D01*
X53729342Y-99504286D01*
X54126509Y-99504286D01*
X54229498Y-99504481D01*
G37*
X54229498Y-99504481D02*
X54322141Y-99505002D01*
X54400700Y-99505801D01*
X54461439Y-99506828D01*
X54500623Y-99508037D01*
X54514514Y-99509377D01*
X54514468Y-99509901D01*
X54509420Y-99527713D01*
X54498580Y-99560177D01*
X54482646Y-99605886D01*
X54278173Y-99605886D01*
X54197832Y-99606176D01*
X54139562Y-99607526D01*
X54099909Y-99610631D01*
X54073618Y-99616188D01*
X54055436Y-99624893D01*
X54040107Y-99637444D01*
X54031955Y-99646001D01*
X54009375Y-99692272D01*
X54011375Y-99743272D01*
X54038073Y-99790007D01*
X54044698Y-99796811D01*
X54058456Y-99807707D01*
X54076642Y-99815164D01*
X54104177Y-99819831D01*
X54145981Y-99822358D01*
X54206973Y-99823398D01*
X54292073Y-99823600D01*
X54335234Y-99823697D01*
X54406224Y-99824326D01*
X54463076Y-99825444D01*
X54500828Y-99826937D01*
X54514514Y-99828691D01*
X54514468Y-99829215D01*
X54509420Y-99847027D01*
X54498580Y-99879491D01*
X54482646Y-99925200D01*
X54277237Y-99925177D01*
X54258951Y-99925143D01*
X54163626Y-99923222D01*
X54091543Y-99917322D01*
X54037813Y-99905999D01*
X53997549Y-99887813D01*
X53965861Y-99861321D01*
X53937861Y-99825082D01*
X53920333Y-99789737D01*
X53906785Y-99733227D01*
X53906015Y-99677644D01*
X53919195Y-99634914D01*
X53921015Y-99631702D01*
X53920820Y-99621795D01*
X53905572Y-99615025D01*
X53870613Y-99610139D01*
X53811289Y-99605886D01*
X53689547Y-99598629D01*
X53709444Y-99551457D01*
X53729342Y-99504286D01*
X54126509Y-99504286D01*
X54229498Y-99504481D01*
G36*
X54145128Y-100059001D02*
G01*
X54125308Y-100091308D01*
X54084160Y-100116769D01*
X54075675Y-100119384D01*
X54032451Y-100147522D01*
X54009103Y-100189933D01*
X54008100Y-100238630D01*
X54031914Y-100285627D01*
X54038056Y-100292643D01*
X54064745Y-100316107D01*
X54088014Y-100319981D01*
X54110862Y-100302232D01*
X54136287Y-100260821D01*
X54167288Y-100193714D01*
X54169252Y-100189176D01*
X54203990Y-100114678D01*
X54234763Y-100063797D01*
X54265488Y-100032475D01*
X54300082Y-100016657D01*
X54342462Y-100012286D01*
X54389446Y-100018014D01*
X54449585Y-100046938D01*
X54492788Y-100097822D01*
X54505759Y-100134626D01*
X54512856Y-100186566D01*
X54511340Y-100237001D01*
X54500632Y-100273017D01*
X54497966Y-100276842D01*
X54479337Y-100287002D01*
X54446505Y-100279952D01*
X54420735Y-100267703D01*
X54410006Y-100248061D01*
X54410539Y-100210809D01*
X54407462Y-100159092D01*
X54386212Y-100125299D01*
X54346877Y-100113886D01*
X54345747Y-100113896D01*
X54322913Y-100120813D01*
X54301963Y-100144341D01*
X54277815Y-100190086D01*
X54248741Y-100252296D01*
X54232925Y-100293501D01*
X54233944Y-100317288D01*
X54254837Y-100328403D01*
X54298641Y-100331592D01*
X54368393Y-100331600D01*
X54411452Y-100331956D01*
X54464626Y-100333587D01*
X54501022Y-100336239D01*
X54514514Y-100339578D01*
X54514423Y-100340470D01*
X54507110Y-100359763D01*
X54491678Y-100391716D01*
X54468842Y-100435876D01*
X54263078Y-100430629D01*
X54249432Y-100430264D01*
X54153651Y-100426096D01*
X54081462Y-100418732D01*
X54028058Y-100406670D01*
X53988633Y-100388407D01*
X53958380Y-100362440D01*
X53932493Y-100327267D01*
X53932087Y-100326616D01*
X53910968Y-100269744D01*
X53907400Y-100203967D01*
X53920569Y-100140517D01*
X53949661Y-100090624D01*
X53972327Y-100068675D01*
X54040082Y-100026496D01*
X54113950Y-100012286D01*
X54164770Y-100012286D01*
X54145128Y-100059001D01*
G37*
X54145128Y-100059001D02*
X54125308Y-100091308D01*
X54084160Y-100116769D01*
X54075675Y-100119384D01*
X54032451Y-100147522D01*
X54009103Y-100189933D01*
X54008100Y-100238630D01*
X54031914Y-100285627D01*
X54038056Y-100292643D01*
X54064745Y-100316107D01*
X54088014Y-100319981D01*
X54110862Y-100302232D01*
X54136287Y-100260821D01*
X54167288Y-100193714D01*
X54169252Y-100189176D01*
X54203990Y-100114678D01*
X54234763Y-100063797D01*
X54265488Y-100032475D01*
X54300082Y-100016657D01*
X54342462Y-100012286D01*
X54389446Y-100018014D01*
X54449585Y-100046938D01*
X54492788Y-100097822D01*
X54505759Y-100134626D01*
X54512856Y-100186566D01*
X54511340Y-100237001D01*
X54500632Y-100273017D01*
X54497966Y-100276842D01*
X54479337Y-100287002D01*
X54446505Y-100279952D01*
X54420735Y-100267703D01*
X54410006Y-100248061D01*
X54410539Y-100210809D01*
X54407462Y-100159092D01*
X54386212Y-100125299D01*
X54346877Y-100113886D01*
X54345747Y-100113896D01*
X54322913Y-100120813D01*
X54301963Y-100144341D01*
X54277815Y-100190086D01*
X54248741Y-100252296D01*
X54232925Y-100293501D01*
X54233944Y-100317288D01*
X54254837Y-100328403D01*
X54298641Y-100331592D01*
X54368393Y-100331600D01*
X54411452Y-100331956D01*
X54464626Y-100333587D01*
X54501022Y-100336239D01*
X54514514Y-100339578D01*
X54514423Y-100340470D01*
X54507110Y-100359763D01*
X54491678Y-100391716D01*
X54468842Y-100435876D01*
X54263078Y-100430629D01*
X54249432Y-100430264D01*
X54153651Y-100426096D01*
X54081462Y-100418732D01*
X54028058Y-100406670D01*
X53988633Y-100388407D01*
X53958380Y-100362440D01*
X53932493Y-100327267D01*
X53932087Y-100326616D01*
X53910968Y-100269744D01*
X53907400Y-100203967D01*
X53920569Y-100140517D01*
X53949661Y-100090624D01*
X53972327Y-100068675D01*
X54040082Y-100026496D01*
X54113950Y-100012286D01*
X54164770Y-100012286D01*
X54145128Y-100059001D01*
G36*
X54264078Y-98072316D02*
G01*
X54287387Y-98074922D01*
X54370352Y-98094340D01*
X54433448Y-98129427D01*
X54481808Y-98182788D01*
X54483804Y-98185804D01*
X54512185Y-98253638D01*
X54514711Y-98324465D01*
X54493097Y-98392711D01*
X54449062Y-98452804D01*
X54384322Y-98499171D01*
X54382761Y-98499950D01*
X54342558Y-98515357D01*
X54296866Y-98526643D01*
X54253972Y-98532630D01*
X54222160Y-98532139D01*
X54209714Y-98523993D01*
X54210471Y-98516756D01*
X54224235Y-98482149D01*
X54249546Y-98442922D01*
X54278845Y-98409552D01*
X54304572Y-98392517D01*
X54339471Y-98374808D01*
X54371212Y-98338515D01*
X54383886Y-98296370D01*
X54380221Y-98280923D01*
X54361774Y-98250431D01*
X54336166Y-98223872D01*
X54312934Y-98212514D01*
X54312848Y-98212518D01*
X54302179Y-98225404D01*
X54282933Y-98259759D01*
X54257813Y-98310407D01*
X54229524Y-98372171D01*
X54229374Y-98372511D01*
X54199498Y-98439612D01*
X54177973Y-98484589D01*
X54161437Y-98511855D01*
X54146531Y-98525822D01*
X54129893Y-98530903D01*
X54108162Y-98531510D01*
X54056086Y-98526167D01*
X53985335Y-98499749D01*
X53929735Y-98455527D01*
X53891239Y-98398303D01*
X53871797Y-98332880D01*
X53872910Y-98283846D01*
X54007950Y-98283846D01*
X54009845Y-98325923D01*
X54035632Y-98364995D01*
X54053451Y-98380353D01*
X54067013Y-98384000D01*
X54079949Y-98369209D01*
X54099333Y-98332356D01*
X54099881Y-98331275D01*
X54120587Y-98287795D01*
X54137105Y-98248898D01*
X54144093Y-98224222D01*
X54134753Y-98214324D01*
X54102748Y-98212514D01*
X54062915Y-98220034D01*
X54026717Y-98246103D01*
X54007950Y-98283846D01*
X53872910Y-98283846D01*
X53873359Y-98264063D01*
X53897878Y-98196653D01*
X53947302Y-98135456D01*
X53996212Y-98101550D01*
X54066027Y-98077194D01*
X54102748Y-98073233D01*
X54154055Y-98067701D01*
X54264078Y-98072316D01*
G37*
X54264078Y-98072316D02*
X54287387Y-98074922D01*
X54370352Y-98094340D01*
X54433448Y-98129427D01*
X54481808Y-98182788D01*
X54483804Y-98185804D01*
X54512185Y-98253638D01*
X54514711Y-98324465D01*
X54493097Y-98392711D01*
X54449062Y-98452804D01*
X54384322Y-98499171D01*
X54382761Y-98499950D01*
X54342558Y-98515357D01*
X54296866Y-98526643D01*
X54253972Y-98532630D01*
X54222160Y-98532139D01*
X54209714Y-98523993D01*
X54210471Y-98516756D01*
X54224235Y-98482149D01*
X54249546Y-98442922D01*
X54278845Y-98409552D01*
X54304572Y-98392517D01*
X54339471Y-98374808D01*
X54371212Y-98338515D01*
X54383886Y-98296370D01*
X54380221Y-98280923D01*
X54361774Y-98250431D01*
X54336166Y-98223872D01*
X54312934Y-98212514D01*
X54312848Y-98212518D01*
X54302179Y-98225404D01*
X54282933Y-98259759D01*
X54257813Y-98310407D01*
X54229524Y-98372171D01*
X54229374Y-98372511D01*
X54199498Y-98439612D01*
X54177973Y-98484589D01*
X54161437Y-98511855D01*
X54146531Y-98525822D01*
X54129893Y-98530903D01*
X54108162Y-98531510D01*
X54056086Y-98526167D01*
X53985335Y-98499749D01*
X53929735Y-98455527D01*
X53891239Y-98398303D01*
X53871797Y-98332880D01*
X53872910Y-98283846D01*
X54007950Y-98283846D01*
X54009845Y-98325923D01*
X54035632Y-98364995D01*
X54053451Y-98380353D01*
X54067013Y-98384000D01*
X54079949Y-98369209D01*
X54099333Y-98332356D01*
X54099881Y-98331275D01*
X54120587Y-98287795D01*
X54137105Y-98248898D01*
X54144093Y-98224222D01*
X54134753Y-98214324D01*
X54102748Y-98212514D01*
X54062915Y-98220034D01*
X54026717Y-98246103D01*
X54007950Y-98283846D01*
X53872910Y-98283846D01*
X53873359Y-98264063D01*
X53897878Y-98196653D01*
X53947302Y-98135456D01*
X53996212Y-98101550D01*
X54066027Y-98077194D01*
X54102748Y-98073233D01*
X54154055Y-98067701D01*
X54264078Y-98072316D01*
G36*
X54334027Y-102595998D02*
G01*
X54405715Y-102596847D01*
X54462925Y-102598289D01*
X54500809Y-102600186D01*
X54514514Y-102602403D01*
X54509981Y-102616828D01*
X54497670Y-102645946D01*
X54497272Y-102646819D01*
X54489356Y-102661940D01*
X54478495Y-102672109D01*
X54459471Y-102678309D01*
X54427069Y-102681522D01*
X54376071Y-102682730D01*
X54301261Y-102682914D01*
X54253804Y-102683286D01*
X54164615Y-102687250D01*
X54099287Y-102696327D01*
X54054393Y-102711476D01*
X54026507Y-102733655D01*
X54012203Y-102763825D01*
X54011206Y-102768010D01*
X54010427Y-102824520D01*
X54035744Y-102868590D01*
X54086502Y-102899028D01*
X54101175Y-102904456D01*
X54133649Y-102916829D01*
X54148572Y-102923095D01*
X54146516Y-102935964D01*
X54135357Y-102964067D01*
X54116927Y-102990279D01*
X54082098Y-103002229D01*
X54057151Y-102998664D01*
X54006547Y-102976765D01*
X53959128Y-102941356D01*
X53926334Y-102899948D01*
X53918752Y-102882600D01*
X53906076Y-102816911D01*
X53911097Y-102747171D01*
X53933355Y-102687247D01*
X53950080Y-102662327D01*
X53974043Y-102637090D01*
X54004526Y-102619088D01*
X54046023Y-102607142D01*
X54103032Y-102600070D01*
X54180047Y-102596692D01*
X54281565Y-102595829D01*
X54334027Y-102595998D01*
G37*
X54334027Y-102595998D02*
X54405715Y-102596847D01*
X54462925Y-102598289D01*
X54500809Y-102600186D01*
X54514514Y-102602403D01*
X54509981Y-102616828D01*
X54497670Y-102645946D01*
X54497272Y-102646819D01*
X54489356Y-102661940D01*
X54478495Y-102672109D01*
X54459471Y-102678309D01*
X54427069Y-102681522D01*
X54376071Y-102682730D01*
X54301261Y-102682914D01*
X54253804Y-102683286D01*
X54164615Y-102687250D01*
X54099287Y-102696327D01*
X54054393Y-102711476D01*
X54026507Y-102733655D01*
X54012203Y-102763825D01*
X54011206Y-102768010D01*
X54010427Y-102824520D01*
X54035744Y-102868590D01*
X54086502Y-102899028D01*
X54101175Y-102904456D01*
X54133649Y-102916829D01*
X54148572Y-102923095D01*
X54146516Y-102935964D01*
X54135357Y-102964067D01*
X54116927Y-102990279D01*
X54082098Y-103002229D01*
X54057151Y-102998664D01*
X54006547Y-102976765D01*
X53959128Y-102941356D01*
X53926334Y-102899948D01*
X53918752Y-102882600D01*
X53906076Y-102816911D01*
X53911097Y-102747171D01*
X53933355Y-102687247D01*
X53950080Y-102662327D01*
X53974043Y-102637090D01*
X54004526Y-102619088D01*
X54046023Y-102607142D01*
X54103032Y-102600070D01*
X54180047Y-102596692D01*
X54281565Y-102595829D01*
X54334027Y-102595998D01*
%TO.C,qrcode*%
G36*
X50223191Y-61441935D02*
G01*
X49533442Y-61441935D01*
X49533442Y-61097061D01*
X50223191Y-61097061D01*
X50223191Y-61441935D01*
G37*
G36*
X53671935Y-56268819D02*
G01*
X53327061Y-56268819D01*
X53327061Y-55579070D01*
X53671935Y-55579070D01*
X53671935Y-56268819D01*
G37*
G36*
X52637312Y-63856056D02*
G01*
X52982186Y-63856056D01*
X52982186Y-64200930D01*
X51947563Y-64200930D01*
X51947563Y-63856056D01*
X52292438Y-63856056D01*
X52292438Y-63511182D01*
X52637312Y-63511182D01*
X52637312Y-63856056D01*
G37*
G36*
X55741182Y-59717563D02*
G01*
X55396307Y-59717563D01*
X55396307Y-59372689D01*
X55741182Y-59372689D01*
X55741182Y-59717563D01*
G37*
G36*
X51602689Y-56268819D02*
G01*
X50912940Y-56268819D01*
X50912940Y-55923945D01*
X51602689Y-55923945D01*
X51602689Y-56268819D01*
G37*
G36*
X56086056Y-59372689D02*
G01*
X55741182Y-59372689D01*
X55741182Y-58682940D01*
X56086056Y-58682940D01*
X56086056Y-59372689D01*
G37*
G36*
X55741182Y-57303442D02*
G01*
X54706558Y-57303442D01*
X54706558Y-56268819D01*
X55741182Y-56268819D01*
X55741182Y-57303442D01*
G37*
G36*
X49533442Y-57303442D02*
G01*
X48498819Y-57303442D01*
X48498819Y-56268819D01*
X49533442Y-56268819D01*
X49533442Y-57303442D01*
G37*
G36*
X51602689Y-59717563D02*
G01*
X51257814Y-59717563D01*
X51257814Y-59372689D01*
X51602689Y-59372689D01*
X51602689Y-59717563D01*
G37*
G36*
X55051433Y-64200930D02*
G01*
X53671935Y-64200930D01*
X53671935Y-63856056D01*
X55051433Y-63856056D01*
X55051433Y-64200930D01*
G37*
G36*
X54361684Y-59027814D02*
G01*
X54706558Y-59027814D01*
X54706558Y-58682940D01*
X55396307Y-58682940D01*
X55396307Y-59027814D01*
X55051433Y-59027814D01*
X55051433Y-59372689D01*
X54706558Y-59372689D01*
X54706558Y-60062438D01*
X54361684Y-60062438D01*
X54361684Y-60407312D01*
X54706558Y-60407312D01*
X54706558Y-60062438D01*
X55396307Y-60062438D01*
X55396307Y-60407312D01*
X55051433Y-60407312D01*
X55051433Y-62476558D01*
X55396307Y-62476558D01*
X55396307Y-62131684D01*
X55741182Y-62131684D01*
X55741182Y-61786810D01*
X55396307Y-61786810D01*
X55396307Y-61441935D01*
X55741182Y-61441935D01*
X55741182Y-61097061D01*
X56430930Y-61097061D01*
X56430930Y-61786810D01*
X56086056Y-61786810D01*
X56086056Y-62821433D01*
X55741182Y-62821433D01*
X55741182Y-63166307D01*
X55396307Y-63166307D01*
X55396307Y-62821433D01*
X53327061Y-62821433D01*
X53327061Y-63166307D01*
X52982186Y-63166307D01*
X52982186Y-63511182D01*
X52637312Y-63511182D01*
X52637312Y-62821433D01*
X52982186Y-62821433D01*
X52982186Y-62476558D01*
X53671935Y-62476558D01*
X54706558Y-62476558D01*
X54706558Y-61441935D01*
X53671935Y-61441935D01*
X53671935Y-62476558D01*
X52982186Y-62476558D01*
X52982186Y-62131684D01*
X53327061Y-62131684D01*
X53327061Y-61097061D01*
X53671935Y-61097061D01*
X54016810Y-61097061D01*
X54361684Y-61097061D01*
X54361684Y-60752186D01*
X54016810Y-60752186D01*
X54016810Y-61097061D01*
X53671935Y-61097061D01*
X53671935Y-60407312D01*
X54016810Y-60407312D01*
X54016810Y-60062438D01*
X53671935Y-60062438D01*
X53671935Y-60407312D01*
X53327061Y-60407312D01*
X53327061Y-59372689D01*
X53671935Y-59372689D01*
X53671935Y-59717563D01*
X54361684Y-59717563D01*
X54361684Y-59027814D01*
G37*
G36*
X50912940Y-55923945D02*
G01*
X50568066Y-55923945D01*
X50568066Y-55579070D01*
X50912940Y-55579070D01*
X50912940Y-55923945D01*
G37*
G36*
X52982186Y-61097061D02*
G01*
X52292438Y-61097061D01*
X52292438Y-60752186D01*
X52982186Y-60752186D01*
X52982186Y-61097061D01*
G37*
G36*
X56430930Y-58682940D02*
G01*
X56086056Y-58682940D01*
X56086056Y-58338066D01*
X56430930Y-58338066D01*
X56430930Y-58682940D01*
G37*
G36*
X48153945Y-58682940D02*
G01*
X47809070Y-58682940D01*
X47809070Y-58338066D01*
X48153945Y-58338066D01*
X48153945Y-58682940D01*
G37*
G36*
X48843694Y-58682940D02*
G01*
X49533442Y-58682940D01*
X49533442Y-59027814D01*
X48843694Y-59027814D01*
X48843694Y-59372689D01*
X49188568Y-59372689D01*
X49188568Y-59717563D01*
X48498819Y-59717563D01*
X48498819Y-59372689D01*
X48153945Y-59372689D01*
X48153945Y-59027814D01*
X48498819Y-59027814D01*
X48498819Y-58338066D01*
X48843694Y-58338066D01*
X48843694Y-58682940D01*
G37*
G36*
X54016810Y-59372689D02*
G01*
X53671935Y-59372689D01*
X53671935Y-59027814D01*
X54016810Y-59027814D01*
X54016810Y-59372689D01*
G37*
G36*
X52982186Y-59717563D02*
G01*
X52637312Y-59717563D01*
X52637312Y-59372689D01*
X52982186Y-59372689D01*
X52982186Y-59717563D01*
G37*
G36*
X56430930Y-64200930D02*
G01*
X56086056Y-64200930D01*
X56086056Y-63856056D01*
X56430930Y-63856056D01*
X56430930Y-64200930D01*
G37*
G36*
X56430930Y-60407312D02*
G01*
X55741182Y-60407312D01*
X55741182Y-60062438D01*
X56086056Y-60062438D01*
X56086056Y-59372689D01*
X56430930Y-59372689D01*
X56430930Y-60407312D01*
G37*
G36*
X50912940Y-56613694D02*
G01*
X50568066Y-56613694D01*
X50568066Y-56268819D01*
X50912940Y-56268819D01*
X50912940Y-56613694D01*
G37*
G36*
X49533442Y-59717563D02*
G01*
X50223191Y-59717563D01*
X50223191Y-59372689D01*
X49533442Y-59372689D01*
X49533442Y-59027814D01*
X50568066Y-59027814D01*
X50568066Y-58682940D01*
X50912940Y-58682940D01*
X50912940Y-59372689D01*
X50568066Y-59372689D01*
X50568066Y-60062438D01*
X49878317Y-60062438D01*
X49878317Y-60407312D01*
X49533442Y-60407312D01*
X49533442Y-60752186D01*
X49188568Y-60752186D01*
X49188568Y-61097061D01*
X48843694Y-61097061D01*
X48843694Y-61441935D01*
X48153945Y-61441935D01*
X48153945Y-61097061D01*
X48843694Y-61097061D01*
X48843694Y-60407312D01*
X48498819Y-60407312D01*
X48498819Y-60752186D01*
X48153945Y-60752186D01*
X48153945Y-61097061D01*
X47809070Y-61097061D01*
X47809070Y-60407312D01*
X48153945Y-60407312D01*
X48153945Y-60062438D01*
X49533442Y-60062438D01*
X49533442Y-59717563D01*
G37*
G36*
X56430930Y-57993191D02*
G01*
X54016810Y-57993191D01*
X54016810Y-57631073D01*
X54378928Y-57631073D01*
X56068812Y-57631073D01*
X56068812Y-55941188D01*
X54378928Y-55941188D01*
X54378928Y-57631073D01*
X54016810Y-57631073D01*
X54016810Y-55579070D01*
X56430930Y-55579070D01*
X56430930Y-57993191D01*
G37*
G36*
X54361684Y-62131684D02*
G01*
X54016810Y-62131684D01*
X54016810Y-61786810D01*
X54361684Y-61786810D01*
X54361684Y-62131684D01*
G37*
G36*
X50223191Y-57993191D02*
G01*
X47809070Y-57993191D01*
X47809070Y-57631073D01*
X48171188Y-57631073D01*
X49861073Y-57631073D01*
X49861073Y-55941188D01*
X48171188Y-55941188D01*
X48171188Y-57631073D01*
X47809070Y-57631073D01*
X47809070Y-55579070D01*
X50223191Y-55579070D01*
X50223191Y-57993191D01*
G37*
G36*
X50568066Y-60752186D02*
G01*
X50912940Y-60752186D01*
X50912940Y-60407312D01*
X51257814Y-60407312D01*
X51257814Y-60752186D01*
X51947563Y-60752186D01*
X51947563Y-61097061D01*
X52292438Y-61097061D01*
X52292438Y-61441935D01*
X51947563Y-61441935D01*
X51947563Y-61786810D01*
X52292438Y-61786810D01*
X52292438Y-61441935D01*
X52637312Y-61441935D01*
X52637312Y-61786810D01*
X52982186Y-61786810D01*
X52982186Y-62131684D01*
X52637312Y-62131684D01*
X52637312Y-62476558D01*
X51947563Y-62476558D01*
X51947563Y-61786810D01*
X51257814Y-61786810D01*
X51257814Y-61441935D01*
X51602689Y-61441935D01*
X51602689Y-61097061D01*
X50223191Y-61097061D01*
X50223191Y-60752186D01*
X49878317Y-60752186D01*
X49878317Y-60407312D01*
X50568066Y-60407312D01*
X50568066Y-60752186D01*
G37*
G36*
X52292438Y-55923945D02*
G01*
X51947563Y-55923945D01*
X51947563Y-55579070D01*
X52292438Y-55579070D01*
X52292438Y-55923945D01*
G37*
G36*
X55741182Y-58682940D02*
G01*
X55396307Y-58682940D01*
X55396307Y-58338066D01*
X55741182Y-58338066D01*
X55741182Y-58682940D01*
G37*
G36*
X51947563Y-60062438D02*
G01*
X51602689Y-60062438D01*
X51602689Y-59717563D01*
X51947563Y-59717563D01*
X51947563Y-60062438D01*
G37*
G36*
X53327061Y-60752186D02*
G01*
X52982186Y-60752186D01*
X52982186Y-60407312D01*
X53327061Y-60407312D01*
X53327061Y-60752186D01*
G37*
G36*
X51257814Y-62131684D02*
G01*
X51602689Y-62131684D01*
X51602689Y-62476558D01*
X50568066Y-62476558D01*
X50568066Y-62131684D01*
X50912940Y-62131684D01*
X50912940Y-61786810D01*
X51257814Y-61786810D01*
X51257814Y-62131684D01*
G37*
G36*
X51947563Y-63166307D02*
G01*
X51602689Y-63166307D01*
X51602689Y-63511182D01*
X51257814Y-63511182D01*
X51257814Y-63856056D01*
X51602689Y-63856056D01*
X51602689Y-64200930D01*
X50568066Y-64200930D01*
X50568066Y-63856056D01*
X50912940Y-63856056D01*
X50912940Y-63511182D01*
X51257814Y-63511182D01*
X51257814Y-63166307D01*
X50912940Y-63166307D01*
X50912940Y-63511182D01*
X50568066Y-63511182D01*
X50568066Y-63166307D01*
X50912940Y-63166307D01*
X50912940Y-62821433D01*
X51947563Y-62821433D01*
X51947563Y-63166307D01*
G37*
G36*
X53327061Y-56613694D02*
G01*
X53671935Y-56613694D01*
X53671935Y-56958568D01*
X53327061Y-56958568D01*
X53327061Y-57303442D01*
X53671935Y-57303442D01*
X53671935Y-58338066D01*
X54361684Y-58338066D01*
X54361684Y-58682940D01*
X53671935Y-58682940D01*
X53671935Y-59027814D01*
X53327061Y-59027814D01*
X53327061Y-58682940D01*
X52982186Y-58682940D01*
X52982186Y-59027814D01*
X52637312Y-59027814D01*
X52637312Y-58682940D01*
X52292438Y-58682940D01*
X52292438Y-58338066D01*
X51947563Y-58338066D01*
X51947563Y-59372689D01*
X51602689Y-59372689D01*
X51602689Y-59027814D01*
X51257814Y-59027814D01*
X51257814Y-58682940D01*
X50912940Y-58682940D01*
X50912940Y-58338066D01*
X51257814Y-58338066D01*
X51257814Y-58682940D01*
X51602689Y-58682940D01*
X51602689Y-57993191D01*
X51947563Y-57993191D01*
X52292438Y-57993191D01*
X52637312Y-57993191D01*
X52982186Y-57993191D01*
X53327061Y-57993191D01*
X53327061Y-57648317D01*
X52982186Y-57648317D01*
X52982186Y-57993191D01*
X52637312Y-57993191D01*
X52637312Y-57648317D01*
X52982186Y-57648317D01*
X52982186Y-57303442D01*
X52292438Y-57303442D01*
X52292438Y-57993191D01*
X51947563Y-57993191D01*
X51947563Y-57648317D01*
X51602689Y-57648317D01*
X51602689Y-57993191D01*
X51257814Y-57993191D01*
X51257814Y-57648317D01*
X50912940Y-57648317D01*
X50912940Y-58338066D01*
X50568066Y-58338066D01*
X50568066Y-57648317D01*
X50912940Y-57648317D01*
X50912940Y-57303442D01*
X51257814Y-57303442D01*
X51602689Y-57303442D01*
X51947563Y-57303442D01*
X52292438Y-57303442D01*
X52292438Y-56958568D01*
X51947563Y-56958568D01*
X51947563Y-57303442D01*
X51602689Y-57303442D01*
X51602689Y-56958568D01*
X51257814Y-56958568D01*
X51257814Y-57303442D01*
X50912940Y-57303442D01*
X50912940Y-56958568D01*
X51257814Y-56958568D01*
X51257814Y-56613694D01*
X51947563Y-56613694D01*
X51947563Y-56268819D01*
X52637312Y-56268819D01*
X52637312Y-55579070D01*
X52982186Y-55579070D01*
X52982186Y-56268819D01*
X53327061Y-56268819D01*
X53327061Y-56613694D01*
X52637312Y-56613694D01*
X52637312Y-56958568D01*
X53327061Y-56958568D01*
X53327061Y-56613694D01*
G37*
G36*
X50223191Y-64200930D02*
G01*
X47809070Y-64200930D01*
X47809070Y-63838812D01*
X48171188Y-63838812D01*
X49861073Y-63838812D01*
X49861073Y-62148928D01*
X48171188Y-62148928D01*
X48171188Y-63838812D01*
X47809070Y-63838812D01*
X47809070Y-61786810D01*
X50223191Y-61786810D01*
X50223191Y-64200930D01*
G37*
G36*
X49533442Y-63511182D02*
G01*
X48498819Y-63511182D01*
X48498819Y-62476558D01*
X49533442Y-62476558D01*
X49533442Y-63511182D01*
G37*
G36*
X50223191Y-58682940D02*
G01*
X49533442Y-58682940D01*
X49533442Y-58338066D01*
X50223191Y-58338066D01*
X50223191Y-58682940D01*
G37*
G36*
X53671935Y-63856056D02*
G01*
X53327061Y-63856056D01*
X53327061Y-63511182D01*
X53671935Y-63511182D01*
X53671935Y-63856056D01*
G37*
G36*
X48153945Y-60062438D02*
G01*
X47809070Y-60062438D01*
X47809070Y-59717563D01*
X48153945Y-59717563D01*
X48153945Y-60062438D01*
G37*
G36*
X55396307Y-63511182D02*
G01*
X55741182Y-63511182D01*
X55741182Y-64200930D01*
X55396307Y-64200930D01*
X55396307Y-63856056D01*
X55051433Y-63856056D01*
X55051433Y-63166307D01*
X55396307Y-63166307D01*
X55396307Y-63511182D01*
G37*
G36*
X56430930Y-63166307D02*
G01*
X56086056Y-63166307D01*
X56086056Y-62821433D01*
X56430930Y-62821433D01*
X56430930Y-63166307D01*
G37*
G36*
X52637312Y-60407312D02*
G01*
X51947563Y-60407312D01*
X51947563Y-60062438D01*
X52637312Y-60062438D01*
X52637312Y-60407312D01*
G37*
%TD*%
M02*
